<?xml version="1.0" encoding="UTF-8" standalone="no"?>
<!-- Created with Inkscape (http://www.inkscape.org/) -->

<svg
   width="14mm"
   height="14mm"
   viewBox="0 0 14 14"
   version="1.1"
   id="svg1"
   xml:space="preserve"
   inkscape:version="1.3 (0e150ed6c4, 2023-07-21)"
   sodipodi:docname="backspace.svg"
   xmlns:inkscape="http://www.inkscape.org/namespaces/inkscape"
   xmlns:sodipodi="http://sodipodi.sourceforge.net/DTD/sodipodi-0.dtd"
   xmlns="http://www.w3.org/2000/svg"
   xmlns:svg="http://www.w3.org/2000/svg"><sodipodi:namedview
     id="namedview1"
     pagecolor="#ffffff"
     bordercolor="#111111"
     borderopacity="1"
     inkscape:showpageshadow="0"
     inkscape:pageopacity="0"
     inkscape:pagecheckerboard="1"
     inkscape:deskcolor="#d1d1d1"
     inkscape:document-units="mm"
     showgrid="true"
     inkscape:zoom="21.114954"
     inkscape:cx="18.612402"
     inkscape:cy="29.268357"
     inkscape:window-width="1920"
     inkscape:window-height="1027"
     inkscape:window-x="-8"
     inkscape:window-y="-8"
     inkscape:window-maximized="1"
     inkscape:current-layer="layer1"><inkscape:grid
       id="grid1"
       units="mm"
       originx="0"
       originy="0"
       spacingx="0.99999997"
       spacingy="0.99999997"
       empcolor="#0099e5"
       empopacity="0.30196078"
       color="#0099e5"
       opacity="0.14901961"
       empspacing="5"
       dotted="false"
       gridanglex="30"
       gridanglez="30"
       visible="true" /></sodipodi:namedview><defs
     id="defs1" /><g
     inkscape:label="Layer 1"
     inkscape:groupmode="layer"
     id="layer1"><g
       id="g2"
       transform="matrix(0.26458333,0,0,0.26458333,-129.64005,-128.33334)"
       style="fill:#000000"><path
         d="m 519.95724,509.48431 2.22127,-1.95477 a 1.7179132,1.5118109 0 0 1 2.42912,2.1377 l -2.22126,1.95477 2.22126,1.95478 a 1.7179132,1.5118109 0 0 1 -2.42912,2.1377 l -2.22127,-1.95478 -2.22126,1.95478 a 1.7179132,1.5118109 0 0 1 -2.42913,-2.1377 l 2.22126,-1.95478 -2.22126,-1.95477 a 1.7179132,1.5118109 0 0 1 2.42913,-2.1377 z m 11.163,13.47629 h -20.06179 c -1.9086,0 -4.29736,-0.91918 -5.58665,-2.1498 l -6.57016,-6.26948 c -1.70417,-1.6252 -1.70503,-4.2119 0,-5.83861 l 6.57102,-6.26948 c 1.28586,-1.22759 3.68235,-2.1498 5.58579,-2.1498 h 20.06093 a 4.294783,3.7795274 0 0 1 4.29908,3.78558 v 15.10601 a 4.2982187,3.7825509 0 0 1 -4.29822,3.78558 z m 0,-3.02363 c 0.47587,0 0.8624,-0.3394 0.8624,-0.76195 v -15.10601 c 0,-0.42331 -0.3831,-0.76196 -0.8624,-0.76196 h -20.06179 c -0.94485,0 -2.42483,0.5692 -3.06046,1.17619 l -6.57102,6.26873 c -0.49046,0.46866 -0.4896,1.27143 0,1.74009 l 6.57102,6.26873 c 0.63821,0.60926 2.11132,1.17618 3.06046,1.17618 h 20.06093 z"
         fill=""
         id="path1"
         style="fill:none;stroke:#000000;stroke-width:0.0377712;stroke-opacity:1" /></g></g></svg>
