999
FreeCAD v0.21 33771 (Git)
  0
SECTION
  2
HEADER
  9
$ACADVER
  1
AC1014
  9
$ACADMAINTVER
 70
     9
  9
$DWGCODEPAGE
  3
ANSI_1252
  9
$TEXTSTYLE
  7
STANDARD
  9
$DIMSTYLE
  2
STANDARD
  9
$DIMTXSTY
  7
STANDARD
  9
$CMLSTYLE
  2
STANDARD
  9
$LUNITS
 70
2
  9
$INSUNITS
 70
4
  9
$PEXTMAX
 10
50
 20
50
 30
50
  9
$PEXTMIN
 10
0
 20
0
 30
0
  9
$HANDSEED
  5
FFFF
  0
ENDSEC
  0
SECTION
  2
CLASSES
  0
CLASS
  1
ACDBDICTIONARYWDFLT
  2
AcDbDictionaryWithDefault
  3
ObjectDBX Classes
 90
        0
280
     0
281
     0
  0
CLASS
  1
XRECORD
  2
AcDbXrecord
  3
ObjectDBX Classes
 90
        0
280
     0
281
     0
  0
CLASS
  1
LWPOLYLINE
  2
AcDbPolyline
  3
ObjectDBX Classes
 90
        0
280
     0
281
     1
  0
ENDSEC
  0
SECTION
  2
TABLES
  0
TABLE
  2
VPORT
  5
20
330
0
100
AcDbSymbolTable
 70
     1
  0
VPORT
  5
21
330
20
100
AcDbSymbolTableRecord
100
AcDbViewportTableRecord
  2
*ACTIVE
 70
     0
  0
ENDTAB
  0
TABLE
  2
LTYPE
  5
22
330
0
100
AcDbSymbolTable
 70
     1
  0
LTYPE
  5
23
330
21
100
AcDbSymbolTableRecord
100
AcDbLinetypeTableRecord
  2
BYBLOCK
 70
     0
  3

 72
    65
 73
     0
 40
0.0
  0
LTYPE
  5
24
330
21
100
AcDbSymbolTableRecord
100
AcDbLinetypeTableRecord
  2
BYLAYER
 70
     0
  3

 72
    65
 73
     0
 40
0.0
  0
LTYPE
  5
25
330
21
100
AcDbSymbolTableRecord
100
AcDbLinetypeTableRecord
  2
CONTINUOUS
 70
     0
  3
Solid line
 72
    65
 73
     0
 40
0.0
  0
ENDTAB
  0
TABLE
  2
LAYER
  5
DFE
330
0
100
AcDbSymbolTable
 70
3
  0
LAYER
  5
DFF
330
DFE
100
AcDbSymbolTableRecord
100
AcDbLayerTableRecord
  2
0
 70
   0
 62
   7
  6
CONTINUOUS
  0
LAYER
  5
E00
330
DFE
100
AcDbSymbolTableRecord
100
AcDbLayerTableRecord
  2
none
 70
    0
 62
    7
  6
CONTINUOUS
  0
LAYER
  5
E01
330
DFE
100
AcDbSymbolTableRecord
100
AcDbLayerTableRecord
  2
Body
 70
    0
 62
    7
  6
CONTINUOUS
  0
ENDTAB
  0
TABLE
  2
STYLE
  5
70
330
0
100
AcDbSymbolTable
 70
     2
  0
STYLE
  5
71
330
70
100
AcDbSymbolTableRecord
100
AcDbTextStyleTableRecord
  2
STANDARD
 70
     0
 40
0.0
 41
1.0
 50
0.0
 71
     0
 42
2.5
  3
arial.ttf
  4

  0
STYLE
  5
72
330
70
100
AcDbSymbolTableRecord
100
AcDbTextStyleTableRecord
  2
ANNOTATIVE
 70
     0
 40
0.0
 41
1.0
 50
0.0
 71
     0
 42
2.5
  3
arial.ttf
  4

  0
ENDTAB
  0
TABLE
  2
VIEW
  5
73
330
0
100
AcDbSymbolTable
 70
     0
  0
ENDTAB
  0
TABLE
  2
UCS
  5
74
330
0
100
AcDbSymbolTable
 70
     0
  0
ENDTAB
  0
TABLE
  2
APPID
  5
75
330
0
100
AcDbSymbolTable
 70
     2
  0
APPID
  5
76
330
75
100
AcDbSymbolTableRecord
100
AcDbRegAppTableRecord
  2
ACAD
 70
     0
  0
APPID
  5
77
330
75
100
AcDbSymbolTableRecord
100
AcDbRegAppTableRecord
  2
ACADANNOTATIVE
 70
     0
  0
ENDTAB
  0
TABLE
  2
DIMSTYLE
  5
78
330
0
100
AcDbSymbolTable
 70
     2
  0
DIMSTYLE
105
79
330
78
100
AcDbSymbolTableRecord
100
AcDbDimStyleTableRecord
  2
STANDARD
 70
     0
  3

  4

  5

  6

  7

 40
0.0
 41
2.5
 42
0.625
 43
3.75
 44
1.25
 45
0.0
 46
0.0
 47
0.0
 48
0.0
140
2.5
141
2.5
142
0.0
143
0.03937007874016
144
1.0
145
0.0
146
1.0
147
0.625
 71
     0
 72
     0
 73
     0
 74
     0
 75
     0
 76
     0
 77
     1
 78
     8
170
     0
171
     3
172
     1
173
     0
174
     0
175
     0
176
     0
177
     0
178
     0
270
     2
271
     2
272
     2
273
     2
274
     3
340
71
275
     0
280
     0
281
     0
282
     0
283
     0
284
     8
285
     0
286
     0
287
     3
288
     0
  0
ENDTAB
  0
TABLE
  2
BLOCK_RECORD
  5
A01
330
0
100
AcDbSymbolTable
  70
5
  0
BLOCK_RECORD
  5
A02
330
A01
100
AcDbSymbolTableRecord
100
AcDbBlockTableRecord
  2
*MODEL_SPACE
  0
BLOCK_RECORD
  5
A03
330
A01
100
AcDbSymbolTableRecord
100
AcDbBlockTableRecord
  2
*PAPER_SPACE
  0
ENDTAB
  0
ENDSEC
  0
SECTION
  2
BLOCKS
  0
BLOCK
  5
A04
330
A02
100
AcDbEntity
  8
0
100
AcDbBlockBegin
  2
*MODEL_SPACE
 70
   0
 10
0
 20
0
 30
0
  3
*MODEL_SPACE
  1
 
  0
ENDBLK
  5
A05
330
A02
100
AcDbEntity
  8
0
100
AcDbBlockEnd
  0
BLOCK
  5
A06
330
A03
100
AcDbEntity
 67
1
  8
0
100
AcDbBlockBegin
  2
*PAPER_SPACE
 70
   0
 10
0
 20
0
 30
0
  3
*PAPER_SPACE
  1
 
  0
ENDBLK
  5
A07
330
A03
100
AcDbEntity
 67
    1
  8
0
100
AcDbBlockEnd
  0
ENDSEC
  0
SECTION
  2
ENTITIES
  0
LINE
  5
A08
330
A02
100
AcDbEntity
  8
Body
100
AcDbLine
 10
-50
 20
100
 30
0
 11
-50
 21
100
 31
1.5
  0
LINE
  5
A09
330
A02
100
AcDbEntity
  8
Body
100
AcDbLine
 10
50
 20
100
 30
0
 11
50
 21
100
 31
1.5
  0
LINE
  5
A0A
330
A02
100
AcDbEntity
  8
Body
100
AcDbLine
 10
-50
 20
100
 30
0
 11
50
 21
100
 31
0
  0
LINE
  5
A0B
330
A02
100
AcDbEntity
  8
Body
100
AcDbLine
 10
-50
 20
100
 30
1.5
 11
50
 21
100
 31
1.5
  0
LINE
  5
A0C
330
A02
100
AcDbEntity
  8
Body
100
AcDbLine
 10
-50
 20
-100
 30
0
 11
-50
 21
-100
 31
1.5
  0
LINE
  5
A0D
330
A02
100
AcDbEntity
  8
Body
100
AcDbLine
 10
-50
 20
100
 30
0
 11
-50
 21
100
 31
1.5
  0
LINE
  5
A0E
330
A02
100
AcDbEntity
  8
Body
100
AcDbLine
 10
-50
 20
-100
 30
0
 11
-50
 21
100
 31
0
  0
LINE
  5
A0F
330
A02
100
AcDbEntity
  8
Body
100
AcDbLine
 10
-50
 20
-100
 30
1.5
 11
-50
 21
100
 31
1.5
  0
LINE
  5
A10
330
A02
100
AcDbEntity
  8
Body
100
AcDbLine
 10
50
 20
100
 30
0
 11
50
 21
100
 31
1.5
  0
LINE
  5
A11
330
A02
100
AcDbEntity
  8
Body
100
AcDbLine
 10
50
 20
-100
 30
0
 11
50
 21
-100
 31
1.5
  0
LINE
  5
A12
330
A02
100
AcDbEntity
  8
Body
100
AcDbLine
 10
50
 20
100
 30
0
 11
50
 21
-100
 31
0
  0
LINE
  5
A13
330
A02
100
AcDbEntity
  8
Body
100
AcDbLine
 10
50
 20
100
 30
1.5
 11
50
 21
-100
 31
1.5
  0
LINE
  5
A14
330
A02
100
AcDbEntity
  8
Body
100
AcDbLine
 10
-50
 20
100
 30
0
 11
50
 21
100
 31
0
  0
LINE
  5
A15
330
A02
100
AcDbEntity
  8
Body
100
AcDbLine
 10
-50
 20
-100
 30
0
 11
-50
 21
100
 31
0
  0
LINE
  5
A16
330
A02
100
AcDbEntity
  8
Body
100
AcDbLine
 10
50
 20
100
 30
0
 11
50
 21
-100
 31
0
  0
LINE
  5
A17
330
A02
100
AcDbEntity
  8
Body
100
AcDbLine
 10
50
 20
-100
 30
0
 11
-50
 21
-100
 31
0
  0
LINE
  5
A18
330
A02
100
AcDbEntity
  8
Body
100
AcDbLine
 10
-40
 20
-90
 30
0
 11
-40
 21
-76
 31
0
  0
LINE
  5
A19
330
A02
100
AcDbEntity
  8
Body
100
AcDbLine
 10
-26
 20
-90
 30
0
 11
-40
 21
-90
 31
0
  0
LINE
  5
A1A
330
A02
100
AcDbEntity
  8
Body
100
AcDbLine
 10
-40
 20
-76
 30
0
 11
-26
 21
-76
 31
0
  0
LINE
  5
A1B
330
A02
100
AcDbEntity
  8
Body
100
AcDbLine
 10
-26
 20
-76
 30
0
 11
-26
 21
-90
 31
0
  0
CIRCLE
  5
A1C
330
A02
100
AcDbEntity
  8
Body
100
AcDbCircle
 10
-33
 20
-60
 40
1.5
  0
LINE
  5
A1D
330
A02
100
AcDbEntity
  8
Body
100
AcDbLine
 10
19
 20
-76
 30
0
 11
5
 21
-76
 31
0
  0
LINE
  5
A1E
330
A02
100
AcDbEntity
  8
Body
100
AcDbLine
 10
19
 20
-90
 30
0
 11
19
 21
-76
 31
0
  0
LINE
  5
A1F
330
A02
100
AcDbEntity
  8
Body
100
AcDbLine
 10
5
 20
-76
 30
0
 11
5
 21
-90
 31
0
  0
LINE
  5
A20
330
A02
100
AcDbEntity
  8
Body
100
AcDbLine
 10
5
 20
-90
 30
0
 11
19
 21
-90
 31
0
  0
LINE
  5
A21
330
A02
100
AcDbEntity
  8
Body
100
AcDbLine
 10
19
 20
-56
 30
0
 11
5
 21
-56
 31
0
  0
LINE
  5
A22
330
A02
100
AcDbEntity
  8
Body
100
AcDbLine
 10
19
 20
-70
 30
0
 11
19
 21
-56
 31
0
  0
LINE
  5
A23
330
A02
100
AcDbEntity
  8
Body
100
AcDbLine
 10
5
 20
-56
 30
0
 11
5
 21
-70
 31
0
  0
LINE
  5
A24
330
A02
100
AcDbEntity
  8
Body
100
AcDbLine
 10
5
 20
-70
 30
0
 11
19
 21
-70
 31
0
  0
LINE
  5
A25
330
A02
100
AcDbEntity
  8
Body
100
AcDbLine
 10
25
 20
-80
 30
0
 11
29.7
 21
-80
 31
0
  0
LINE
  5
A26
330
A02
100
AcDbEntity
  8
Body
100
AcDbLine
 10
25
 20
-80
 30
0
 11
25
 21
-66
 31
0
  0
LINE
  5
A27
330
A02
100
AcDbEntity
  8
Body
100
AcDbLine
 10
29.7
 20
-80
 30
0
 11
29.7
 21
-81.525
 31
0
  0
LINE
  5
A28
330
A02
100
AcDbEntity
  8
Body
100
AcDbLine
 10
25
 20
-66
 30
0
 11
29.7
 21
-66
 31
0
  0
LINE
  5
A29
330
A02
100
AcDbEntity
  8
Body
100
AcDbLine
 10
29.7
 20
-81.525
 30
0
 11
26.47
 21
-81.525
 31
0
  0
LINE
  5
A2A
330
A02
100
AcDbEntity
  8
Body
100
AcDbLine
 10
29.7
 20
-66
 30
0
 11
29.7
 21
-64.475
 31
0
  0
LINE
  5
A2B
330
A02
100
AcDbEntity
  8
Body
100
AcDbLine
 10
26.47
 20
-81.525
 30
0
 11
26.47
 21
-88.275
 31
0
  0
LINE
  5
A2C
330
A02
100
AcDbEntity
  8
Body
100
AcDbLine
 10
29.7
 20
-64.475
 30
0
 11
26.47
 21
-64.475
 31
0
  0
LINE
  5
A2D
330
A02
100
AcDbEntity
  8
Body
100
AcDbLine
 10
26.47
 20
-88.275
 30
0
 11
29.7
 21
-88.275
 31
0
  0
LINE
  5
A2E
330
A02
100
AcDbEntity
  8
Body
100
AcDbLine
 10
26.47
 20
-64.475
 30
0
 11
26.47
 21
-57.725
 31
0
  0
LINE
  5
A2F
330
A02
100
AcDbEntity
  8
Body
100
AcDbLine
 10
29.7
 20
-88.275
 30
0
 11
29.7
 21
-89.1
 31
0
  0
LINE
  5
A30
330
A02
100
AcDbEntity
  8
Body
100
AcDbLine
 10
26.47
 20
-57.725
 30
0
 11
29.7
 21
-57.725
 31
0
  0
LINE
  5
A31
330
A02
100
AcDbEntity
  8
Body
100
AcDbLine
 10
29.7
 20
-89.1
 30
0
 11
32.485
 21
-89.1
 31
0
  0
LINE
  5
A32
330
A02
100
AcDbEntity
  8
Body
100
AcDbLine
 10
29.7
 20
-57.725
 30
0
 11
29.7
 21
-56.9
 31
0
  0
LINE
  5
A33
330
A02
100
AcDbEntity
  8
Body
100
AcDbLine
 10
32.485
 20
-89.1
 30
0
 11
32.485
 21
-88.275
 31
0
  0
LINE
  5
A34
330
A02
100
AcDbEntity
  8
Body
100
AcDbLine
 10
29.7
 20
-56.9
 30
0
 11
32.485
 21
-56.9
 31
0
  0
LINE
  5
A35
330
A02
100
AcDbEntity
  8
Body
100
AcDbLine
 10
32.485
 20
-88.275
 30
0
 11
38.77
 21
-88.275
 31
0
  0
LINE
  5
A36
330
A02
100
AcDbEntity
  8
Body
100
AcDbLine
 10
32.485
 20
-56.9
 30
0
 11
32.485
 21
-57.725
 31
0
  0
LINE
  5
A37
330
A02
100
AcDbEntity
  8
Body
100
AcDbLine
 10
38.77
 20
-88.275
 30
0
 11
38.77
 21
-86.55
 31
0
  0
LINE
  5
A38
330
A02
100
AcDbEntity
  8
Body
100
AcDbLine
 10
32.485
 20
-57.725
 30
0
 11
38.77
 21
-57.725
 31
0
  0
LINE
  5
A39
330
A02
100
AcDbEntity
  8
Body
100
AcDbLine
 10
38.77
 20
-86.55
 30
0
 11
40.495
 21
-86.55
 31
0
  0
LINE
  5
A3A
330
A02
100
AcDbEntity
  8
Body
100
AcDbLine
 10
38.77
 20
-57.725
 30
0
 11
38.77
 21
-59.45
 31
0
  0
LINE
  5
A3B
330
A02
100
AcDbEntity
  8
Body
100
AcDbLine
 10
40.495
 20
-86.55
 30
0
 11
40.495
 21
-83.25
 31
0
  0
LINE
  5
A3C
330
A02
100
AcDbEntity
  8
Body
100
AcDbLine
 10
38.77
 20
-59.45
 30
0
 11
40.495
 21
-59.45
 31
0
  0
LINE
  5
A3D
330
A02
100
AcDbEntity
  8
Body
100
AcDbLine
 10
40.495
 20
-83.25
 30
0
 11
38.77
 21
-83.25
 31
0
  0
LINE
  5
A3E
330
A02
100
AcDbEntity
  8
Body
100
AcDbLine
 10
40.495
 20
-59.45
 30
0
 11
40.495
 21
-62.75
 31
0
  0
LINE
  5
A3F
330
A02
100
AcDbEntity
  8
Body
100
AcDbLine
 10
38.77
 20
-83.25
 30
0
 11
38.77
 21
-81.525
 31
0
  0
LINE
  5
A40
330
A02
100
AcDbEntity
  8
Body
100
AcDbLine
 10
40.495
 20
-62.75
 30
0
 11
38.77
 21
-62.75
 31
0
  0
LINE
  5
A41
330
A02
100
AcDbEntity
  8
Body
100
AcDbLine
 10
38.77
 20
-81.525
 30
0
 11
34.07
 21
-81.525
 31
0
  0
LINE
  5
A42
330
A02
100
AcDbEntity
  8
Body
100
AcDbLine
 10
38.77
 20
-62.75
 30
0
 11
38.77
 21
-64.475
 31
0
  0
LINE
  5
A43
330
A02
100
AcDbEntity
  8
Body
100
AcDbLine
 10
34.07
 20
-81.525
 30
0
 11
34.07
 21
-80
 31
0
  0
LINE
  5
A44
330
A02
100
AcDbEntity
  8
Body
100
AcDbLine
 10
38.77
 20
-64.475
 30
0
 11
34.07
 21
-64.475
 31
0
  0
LINE
  5
A45
330
A02
100
AcDbEntity
  8
Body
100
AcDbLine
 10
34.07
 20
-80
 30
0
 11
38.77
 21
-80
 31
0
  0
LINE
  5
A46
330
A02
100
AcDbEntity
  8
Body
100
AcDbLine
 10
34.07
 20
-64.475
 30
0
 11
34.07
 21
-66
 31
0
  0
LINE
  5
A47
330
A02
100
AcDbEntity
  8
Body
100
AcDbLine
 10
38.77
 20
-66
 30
0
 11
38.77
 21
-80
 31
0
  0
LINE
  5
A48
330
A02
100
AcDbEntity
  8
Body
100
AcDbLine
 10
34.07
 20
-66
 30
0
 11
38.77
 21
-66
 31
0
  0
LINE
  5
A49
330
A02
100
AcDbEntity
  8
Body
100
AcDbLine
 10
19
 20
-36
 30
0
 11
5
 21
-36
 31
0
  0
LINE
  5
A4A
330
A02
100
AcDbEntity
  8
Body
100
AcDbLine
 10
19
 20
-50
 30
0
 11
19
 21
-36
 31
0
  0
LINE
  5
A4B
330
A02
100
AcDbEntity
  8
Body
100
AcDbLine
 10
5
 20
-36
 30
0
 11
5
 21
-50
 31
0
  0
LINE
  5
A4C
330
A02
100
AcDbEntity
  8
Body
100
AcDbLine
 10
5
 20
-50
 30
0
 11
19
 21
-50
 31
0
  0
LINE
  5
A4D
330
A02
100
AcDbEntity
  8
Body
100
AcDbLine
 10
39
 20
-36
 30
0
 11
25
 21
-36
 31
0
  0
LINE
  5
A4E
330
A02
100
AcDbEntity
  8
Body
100
AcDbLine
 10
39
 20
-50
 30
0
 11
39
 21
-36
 31
0
  0
LINE
  5
A4F
330
A02
100
AcDbEntity
  8
Body
100
AcDbLine
 10
25
 20
-36
 30
0
 11
25
 21
-50
 31
0
  0
LINE
  5
A50
330
A02
100
AcDbEntity
  8
Body
100
AcDbLine
 10
25
 20
-50
 30
0
 11
39
 21
-50
 31
0
  0
LINE
  5
A51
330
A02
100
AcDbEntity
  8
Body
100
AcDbLine
 10
-34
 20
-54
 30
0
 11
-34
 21
54
 31
0
  0
LINE
  5
A52
330
A02
100
AcDbEntity
  8
Body
100
AcDbLine
 10
-32
 20
-54
 30
0
 11
-34
 21
-54
 31
0
  0
LINE
  5
A53
330
A02
100
AcDbEntity
  8
Body
100
AcDbLine
 10
-34
 20
54
 30
0
 11
-32
 21
54
 31
0
  0
LINE
  5
A54
330
A02
100
AcDbEntity
  8
Body
100
AcDbLine
 10
-32
 20
54
 30
0
 11
-32
 21
-54
 31
0
  0
CIRCLE
  5
A55
330
A02
100
AcDbEntity
  8
Body
100
AcDbCircle
 10
-33
 20
60
 40
1.5
  0
LINE
  5
A56
330
A02
100
AcDbEntity
  8
Body
100
AcDbLine
 10
-47
 20
75
 30
0
 11
-47
 21
89
 31
0
  0
LINE
  5
A57
330
A02
100
AcDbEntity
  8
Body
100
AcDbLine
 10
-19
 20
75
 30
0
 11
-47
 21
75
 31
0
  0
LINE
  5
A58
330
A02
100
AcDbEntity
  8
Body
100
AcDbLine
 10
-47
 20
89
 30
0
 11
-19
 21
89
 31
0
  0
LINE
  5
A59
330
A02
100
AcDbEntity
  8
Body
100
AcDbLine
 10
-19
 20
89
 30
0
 11
-19
 21
75
 31
0
  0
LINE
  5
A5A
330
A02
100
AcDbEntity
  8
Body
100
AcDbLine
 10
-20
 20
50
 30
0
 11
-20
 21
70
 31
0
  0
LINE
  5
A5B
330
A02
100
AcDbEntity
  8
Body
100
AcDbLine
 10
-15
 20
45
 30
0
 11
-20
 21
50
 31
0
  0
LINE
  5
A5C
330
A02
100
AcDbEntity
  8
Body
100
AcDbLine
 10
-15
 20
55
 30
0
 11
-15
 21
45
 31
0
  0
LINE
  5
A5D
330
A02
100
AcDbEntity
  8
Body
100
AcDbLine
 10
-5
 20
55
 30
0
 11
-15
 21
55
 31
0
  0
LINE
  5
A5E
330
A02
100
AcDbEntity
  8
Body
100
AcDbLine
 10
-5
 20
45
 30
0
 11
-5
 21
55
 31
0
  0
LINE
  5
A5F
330
A02
100
AcDbEntity
  8
Body
100
AcDbLine
 10
2.6e-16
 20
45
 30
0
 11
-5
 21
45
 31
0
  0
LINE
  5
A60
330
A02
100
AcDbEntity
  8
Body
100
AcDbLine
 10
2.6e-16
 20
65
 30
0
 11
2.6e-16
 21
45
 31
0
  0
LINE
  5
A61
330
A02
100
AcDbEntity
  8
Body
100
AcDbLine
 10
-5
 20
70
 30
0
 11
8.88178e-16
 21
65
 31
0
  0
LINE
  5
A62
330
A02
100
AcDbEntity
  8
Body
100
AcDbLine
 10
-5
 20
60
 30
0
 11
-5
 21
70
 31
0
  0
LINE
  5
A63
330
A02
100
AcDbEntity
  8
Body
100
AcDbLine
 10
-15
 20
60
 30
0
 11
-5
 21
60
 31
0
  0
LINE
  5
A64
330
A02
100
AcDbEntity
  8
Body
100
AcDbLine
 10
-15
 20
70
 30
0
 11
-15
 21
60
 31
0
  0
LINE
  5
A65
330
A02
100
AcDbEntity
  8
Body
100
AcDbLine
 10
-20
 20
70
 30
0
 11
-15
 21
70
 31
0
  0
SPLINE
  5
A66
330
A02
100
AcDbEntity
  8
Body
100
AcDbSpline
210
0
220
0
230
1
 70
8
 71
1
 72
4
 73
2
 74
0
 40
0
 40
0
 40
16.7208
 40
16.7208
 10
15.6702
 20
2.42528
 30
0
 10
11.3207
 20
3.23411
 30
0
  0
SPLINE
  5
A67
330
A02
100
AcDbEntity
  8
Body
100
AcDbSpline
210
0
220
0
230
1
 70
8
 71
3
 72
8
 73
4
 74
0
 40
0
 40
0
 40
0
 40
0
 40
1
 40
1
 40
1
 40
1
 10
15.8626
 20
2.19271
 30
0
 10
15.8628
 20
2.30093
 30
0
 10
15.7761
 20
2.40517
 30
0
 10
15.6702
 20
2.42528
 30
0
  0
SPLINE
  5
A68
330
A02
100
AcDbEntity
  8
Body
100
AcDbSpline
210
0
220
0
230
1
 70
8
 71
3
 72
8
 73
4
 74
0
 40
0
 40
0
 40
0
 40
0
 40
1
 40
1
 40
1
 40
1
 10
11.3207
 20
3.23411
 30
0
 10
11.2149
 20
3.25396
 30
0
 10
11.099
 20
3.35344
 30
0
 10
11.0633
 20
3.45557
 30
0
  0
SPLINE
  5
A69
330
A02
100
AcDbEntity
  8
Body
100
AcDbSpline
210
0
220
0
230
1
 70
8
 71
1
 72
4
 73
2
 74
0
 40
0
 40
0
 40
16.919
 40
16.919
 10
15.862
 20
-2.28377
 30
0
 10
15.8626
 20
2.19271
 30
0
  0
SPLINE
  5
A6A
330
A02
100
AcDbEntity
  8
Body
100
AcDbSpline
210
0
220
0
230
1
 70
8
 71
1
 72
4
 73
2
 74
0
 40
0
 40
0
 40
12.7904
 40
12.7904
 10
11.0633
 20
3.45557
 30
0
 10
9.73006
 20
6.56601
 30
0
  0
SPLINE
  5
A6B
330
A02
100
AcDbEntity
  8
Body
100
AcDbSpline
210
0
220
0
230
1
 70
8
 71
3
 72
8
 73
4
 74
0
 40
0
 40
0
 40
0
 40
0
 40
1
 40
1
 40
1
 40
1
 10
15.6692
 20
-2.51608
 30
0
 10
15.775
 20
-2.49676
 30
0
 10
15.862
 20
-2.39172
 30
0
 10
15.862
 20
-2.28377
 30
0
  0
SPLINE
  5
A6C
330
A02
100
AcDbEntity
  8
Body
100
AcDbSpline
210
0
220
0
230
1
 70
8
 71
3
 72
8
 73
4
 74
0
 40
0
 40
0
 40
0
 40
0
 40
1
 40
1
 40
1
 40
1
 10
9.73006
 20
6.56601
 30
0
 10
9.68032
 20
6.66205
 30
0
 10
9.68984
 20
6.81287
 30
0
 10
9.75123
 20
6.9023
 30
0
  0
SPLINE
  5
A6D
330
A02
100
AcDbEntity
  8
Body
100
AcDbSpline
210
0
220
0
230
1
 70
8
 71
1
 72
4
 73
2
 74
0
 40
0
 40
0
 40
16.3103
 40
16.3103
 10
11.4266
 20
-3.30559
 30
0
 10
15.6692
 20
-2.51608
 30
0
  0
SPLINE
  5
A6E
330
A02
100
AcDbEntity
  8
Body
100
AcDbSpline
210
0
220
0
230
1
 70
8
 71
1
 72
4
 73
2
 74
0
 40
0
 40
0
 40
16.9298
 40
16.9298
 10
9.75123
 20
6.9023
 30
0
 10
12.2854
 20
10.5959
 30
0
  0
SPLINE
  5
A6F
330
A02
100
AcDbEntity
  8
Body
100
AcDbSpline
210
0
220
0
230
1
 70
8
 71
3
 72
8
 73
4
 74
0
 40
0
 40
0
 40
0
 40
0
 40
1
 40
1
 40
1
 40
1
 10
11.1749
 20
-3.52864
 30
0
 10
11.2075
 20
-3.42572
 30
0
 10
11.3202
 20
-3.32491
 30
0
 10
11.4266
 20
-3.30559
 30
0
  0
SPLINE
  5
A70
330
A02
100
AcDbEntity
  8
Body
100
AcDbSpline
210
0
220
0
230
1
 70
8
 71
3
 72
8
 73
4
 74
0
 40
0
 40
0
 40
0
 40
0
 40
1
 40
1
 40
1
 40
1
 10
12.2854
 20
10.5959
 30
0
 10
12.346
 20
10.6848
 30
0
 10
12.3341
 20
10.82
 30
0
 10
12.2576
 20
10.8964
 30
0
  0
SPLINE
  5
A71
330
A02
100
AcDbEntity
  8
Body
100
AcDbSpline
210
0
220
0
230
1
 70
8
 71
1
 72
4
 73
2
 74
0
 40
0
 40
0
 40
13.4698
 40
13.4698
 10
9.85045
 20
-6.83725
 30
0
 10
11.1749
 20
-3.52864
 30
0
  0
SPLINE
  5
A72
330
A02
100
AcDbEntity
  8
Body
100
AcDbSpline
210
0
220
0
230
1
 70
8
 71
1
 72
4
 73
2
 74
0
 40
0
 40
0
 40
16.9182
 40
16.9182
 10
12.2576
 20
10.8964
 30
0
 10
9.09241
 20
14.0617
 30
0
  0
SPLINE
  5
A73
330
A02
100
AcDbEntity
  8
Body
100
AcDbSpline
210
0
220
0
230
1
 70
8
 71
3
 72
8
 73
4
 74
0
 40
0
 40
0
 40
0
 40
0
 40
1
 40
1
 40
1
 40
1
 10
9.87532
 20
-7.17513
 30
0
 10
9.81446
 20
-7.08623
 30
0
 10
9.80309
 20
-6.93435
 30
0
 10
9.85045
 20
-6.83725
 30
0
  0
SPLINE
  5
A74
330
A02
100
AcDbEntity
  8
Body
100
AcDbSpline
210
0
220
0
230
1
 70
8
 71
3
 72
8
 73
4
 74
0
 40
0
 40
0
 40
0
 40
0
 40
1
 40
1
 40
1
 40
1
 10
9.09241
 20
14.0617
 30
0
 10
9.01595
 20
14.1381
 30
0
 10
8.88101
 20
14.1506
 30
0
 10
8.79211
 20
14.0894
 30
0
  0
SPLINE
  5
A75
330
A02
100
AcDbEntity
  8
Body
100
AcDbSpline
210
0
220
0
230
1
 70
8
 71
1
 72
4
 73
2
 74
0
 40
0
 40
0
 40
16.098
 40
16.098
 10
12.2854
 20
-10.6869
 30
0
 10
9.87532
 20
-7.17513
 30
0
  0
SPLINE
  5
A76
330
A02
100
AcDbEntity
  8
Body
100
AcDbSpline
210
0
220
0
230
1
 70
8
 71
1
 72
4
 73
2
 74
0
 40
0
 40
0
 40
17.228
 40
17.228
 10
8.79211
 20
14.0894
 30
0
 10
5.03371
 20
11.5103
 30
0
  0
SPLINE
  5
A77
330
A02
100
AcDbEntity
  8
Body
100
AcDbSpline
210
0
220
0
230
1
 70
8
 71
3
 72
8
 73
4
 74
0
 40
0
 40
0
 40
0
 40
0
 40
1
 40
1
 40
1
 40
1
 10
12.2576
 20
-10.9878
 30
0
 10
12.3341
 20
-10.9113
 30
0
 10
12.3465
 20
-10.7758
 30
0
 10
12.2854
 20
-10.6869
 30
0
  0
SPLINE
  5
A78
330
A02
100
AcDbEntity
  8
Body
100
AcDbSpline
210
0
220
0
230
1
 70
8
 71
3
 72
8
 73
4
 74
0
 40
0
 40
0
 40
0
 40
0
 40
1
 40
1
 40
1
 40
1
 10
5.03371
 20
11.5103
 30
0
 10
4.94481
 20
11.4492
 30
0
 10
4.79241
 20
11.4383
 30
0
 10
4.69583
 20
11.4859
 30
0
  0
SPLINE
  5
A79
330
A02
100
AcDbEntity
  8
Body
100
AcDbSpline
210
0
220
0
230
1
 70
8
 71
1
 72
4
 73
2
 74
0
 40
0
 40
0
 40
16.9197
 40
16.9197
 10
9.09189
 20
-14.153
 30
0
 10
12.2576
 20
-10.9878
 30
0
  0
SPLINE
  5
A7A
330
A02
100
AcDbEntity
  8
Body
100
AcDbSpline
210
0
220
0
230
1
 70
8
 71
1
 72
4
 73
2
 74
0
 40
0
 40
0
 40
12.3139
 40
12.3139
 10
4.69583
 20
11.4859
 30
0
 10
1.68064
 20
12.7202
 30
0
  0
SPLINE
  5
A7B
330
A02
100
AcDbEntity
  8
Body
100
AcDbSpline
210
0
220
0
230
1
 70
8
 71
3
 72
8
 73
4
 74
0
 40
0
 40
0
 40
0
 40
0
 40
1
 40
1
 40
1
 40
1
 10
8.79158
 20
-14.1808
 30
0
 10
8.88048
 20
-14.2414
 30
0
 10
9.01595
 20
-14.2289
 30
0
 10
9.09189
 20
-14.153
 30
0
  0
SPLINE
  5
A7C
330
A02
100
AcDbEntity
  8
Body
100
AcDbSpline
210
0
220
0
230
1
 70
8
 71
3
 72
8
 73
4
 74
0
 40
0
 40
0
 40
0
 40
0
 40
1
 40
1
 40
1
 40
1
 10
1.68064
 20
12.7202
 30
0
 10
1.57825
 20
12.7541
 30
0
 10
1.4785
 20
12.8686
 30
0
 10
1.45839
 20
12.9747
 30
0
  0
SPLINE
  5
A7D
330
A02
100
AcDbEntity
  8
Body
100
AcDbSpline
210
0
220
0
230
1
 70
8
 71
1
 72
4
 73
2
 74
0
 40
0
 40
0
 40
15.8146
 40
15.8146
 10
5.34168
 20
-11.813
 30
0
 10
8.79158
 20
-14.1808
 30
0
  0
SPLINE
  5
A7E
330
A02
100
AcDbEntity
  8
Body
100
AcDbSpline
210
0
220
0
230
1
 70
8
 71
1
 72
4
 73
2
 74
0
 40
0
 40
0
 40
17.2951
 40
17.2951
 10
1.45839
 20
12.9747
 30
0
 10
0.620985
 20
17.4735
 30
0
  0
SPLINE
  5
A7F
330
A02
100
AcDbEntity
  8
Body
100
AcDbSpline
210
0
220
0
230
1
 70
8
 71
3
 72
8
 73
4
 74
0
 40
0
 40
0
 40
0
 40
0
 40
1
 40
1
 40
1
 40
1
 10
5.01095
 20
-11.8016
 30
0
 10
5.10409
 20
-11.7474
 30
0
 10
5.25278
 20
-11.7519
 30
0
 10
5.34168
 20
-11.813
 30
0
  0
SPLINE
  5
A80
330
A02
100
AcDbEntity
  8
Body
100
AcDbSpline
210
0
220
0
230
1
 70
8
 71
3
 72
8
 73
4
 74
0
 40
0
 40
0
 40
0
 40
0
 40
1
 40
1
 40
1
 40
1
 10
0.620985
 20
17.4735
 30
0
 10
0.601406
 20
17.5796
 30
0
 10
0.496896
 20
17.6663
 30
0
 10
0.388946
 20
17.6663
 30
0
  0
SPLINE
  5
A81
330
A02
100
AcDbEntity
  8
Body
100
AcDbSpline
210
0
220
0
230
1
 70
8
 71
1
 72
4
 73
2
 74
0
 40
0
 40
0
 40
6.51824
 40
6.51824
 10
3.4896
 20
-12.6139
 30
0
 10
5.01095
 20
-11.8016
 30
0
  0
SPLINE
  5
A82
330
A02
100
AcDbEntity
  8
Body
100
AcDbSpline
210
0
220
0
230
1
 70
8
 71
1
 72
4
 73
2
 74
0
 40
0
 40
0
 40
16.92
 40
16.92
 10
0.388946
 20
17.6663
 30
0
 10
-4.0878
 20
17.6663
 30
0
  0
SPLINE
  5
A83
330
A02
100
AcDbEntity
  8
Body
100
AcDbSpline
210
0
220
0
230
1
 70
8
 71
3
 72
8
 73
4
 74
0
 40
0
 40
0
 40
0
 40
0
 40
1
 40
1
 40
1
 40
1
 10
3.23957
 20
-12.5218
 30
0
 10
3.28084
 20
-12.6216
 30
0
 10
3.39302
 20
-12.6628
 30
0
 10
3.4896
 20
-12.6139
 30
0
  0
SPLINE
  5
A84
330
A02
100
AcDbEntity
  8
Body
100
AcDbSpline
210
0
220
0
230
1
 70
8
 71
3
 72
8
 73
4
 74
0
 40
0
 40
0
 40
0
 40
0
 40
1
 40
1
 40
1
 40
1
 10
-4.0878
 20
17.6663
 30
0
 10
-4.19549
 20
17.6663
 30
0
 10
-4.3
 20
17.5796
 30
0
 10
-4.31958
 20
17.4735
 30
0
  0
SPLINE
  5
A85
330
A02
100
AcDbEntity
  8
Body
100
AcDbSpline
210
0
220
0
230
1
 70
8
 71
1
 72
4
 73
2
 74
0
 40
0
 40
0
 40
31.004
 40
31.004
 10
0.102931
 20
-4.94204
 30
0
 10
3.23957
 20
-12.5218
 30
0
  0
SPLINE
  5
A86
330
A02
100
AcDbEntity
  8
Body
100
AcDbSpline
210
0
220
0
230
1
 70
8
 71
1
 72
4
 73
2
 74
0
 40
0
 40
0
 40
17.2949
 40
17.2949
 10
-4.31958
 20
17.4735
 30
0
 10
-5.15672
 20
12.9747
 30
0
  0
SPLINE
  5
A87
330
A02
100
AcDbEntity
  8
Body
100
AcDbSpline
210
0
220
0
230
1
 70
8
 71
3
 72
8
 73
4
 74
0
 40
0
 40
0
 40
0
 40
0
 40
1
 40
1
 40
1
 40
1
 10
0.195006
 20
-4.65867
 30
0
 10
0.10346
 20
-4.71503
 30
0
 10
0.0616561
 20
-4.84229
 30
0
 10
0.102931
 20
-4.94204
 30
0
  0
SPLINE
  5
A88
330
A02
100
AcDbEntity
  8
Body
100
AcDbSpline
210
0
220
0
230
1
 70
8
 71
3
 72
8
 73
4
 74
0
 40
0
 40
0
 40
0
 40
0
 40
1
 40
1
 40
1
 40
1
 10
-5.15672
 20
12.9747
 30
0
 10
-5.17683
 20
12.8686
 30
0
 10
-5.27631
 20
12.7541
 30
0
 10
-5.37897
 20
12.7202
 30
0
  0
SPLINE
  5
A89
330
A02
100
AcDbEntity
  8
Body
100
AcDbSpline
210
0
220
0
230
1
 70
8
 71
1
 72
4
 73
2
 74
0
 40
0
 40
0
 40
1.68727
 40
1.68727
 10
0.575742
 20
-4.42558
 30
0
 10
0.195006
 20
-4.65867
 30
0
  0
SPLINE
  5
A8A
330
A02
100
AcDbEntity
  8
Body
100
AcDbSpline
210
0
220
0
230
1
 70
8
 71
1
 72
4
 73
2
 74
0
 40
0
 40
0
 40
12.3148
 40
12.3148
 10
-5.37897
 20
12.7202
 30
0
 10
-8.39443
 20
11.4859
 30
0
  0
SPLINE
  5
A8B
330
A02
100
AcDbEntity
  8
Body
100
AcDbSpline
210
0
220
0
230
1
 70
8
 71
3
 72
8
 73
4
 74
0
 40
0
 40
0
 40
0
 40
0
 40
1
 40
1
 40
1
 40
1
 10
0.815983
 20
-4.24116
 30
0
 10
0.741635
 20
-4.30889
 30
0
 10
0.645856
 20
-4.38271
 30
0
 10
0.575742
 20
-4.42558
 30
0
  0
SPLINE
  5
A8C
330
A02
100
AcDbEntity
  8
Body
100
AcDbSpline
210
0
220
0
230
1
 70
8
 71
3
 72
8
 73
4
 74
0
 40
0
 40
0
 40
0
 40
0
 40
1
 40
1
 40
1
 40
1
 10
-8.39443
 20
11.4859
 30
0
 10
-8.49126
 20
11.4383
 30
0
 10
-8.64366
 20
11.4492
 30
0
 10
-8.7323
 20
11.5103
 30
0
  0
SPLINE
  5
A8D
330
A02
100
AcDbEntity
  8
Body
100
AcDbSpline
210
0
220
0
230
1
 70
8
 71
3
 72
8
 73
4
 74
0
 40
0
 40
0
 40
0
 40
0
 40
1
 40
1
 40
1
 40
1
 10
3.10066
 20
-0.0710631
 30
0
 10
3.10066
 20
-1.82313
 30
0
 10
2.1897
 20
-3.36169
 30
0
 10
0.815983
 20
-4.24116
 30
0
  0
SPLINE
  5
A8E
330
A02
100
AcDbEntity
  8
Body
100
AcDbSpline
210
0
220
0
230
1
 70
8
 71
1
 72
4
 73
2
 74
0
 40
0
 40
0
 40
17.2272
 40
17.2272
 10
-8.7323
 20
11.5103
 30
0
 10
-12.4904
 20
14.0894
 30
0
  0
SPLINE
  5
A8F
330
A02
100
AcDbEntity
  8
Body
100
AcDbSpline
210
0
220
0
230
1
 70
8
 71
3
 72
8
 73
4
 74
0
 40
0
 40
0
 40
0
 40
0
 40
1
 40
1
 40
1
 40
1
 10
-1.84969
 20
4.87956
 30
0
 10
0.884246
 20
4.87956
 30
0
 10
3.10066
 20
2.66314
 30
0
 10
3.10066
 20
-0.0710631
 30
0
  0
SPLINE
  5
A90
330
A02
100
AcDbEntity
  8
Body
100
AcDbSpline
210
0
220
0
230
1
 70
8
 71
3
 72
8
 73
4
 74
0
 40
0
 40
0
 40
0
 40
0
 40
1
 40
1
 40
1
 40
1
 10
-12.4904
 20
14.0894
 30
0
 10
-12.5796
 20
14.1506
 30
0
 10
-12.7148
 20
14.1381
 30
0
 10
-12.791
 20
14.0617
 30
0
  0
SPLINE
  5
A91
330
A02
100
AcDbEntity
  8
Body
100
AcDbSpline
210
0
220
0
230
1
 70
8
 71
3
 72
8
 73
4
 74
0
 40
0
 40
0
 40
0
 40
0
 40
1
 40
1
 40
1
 40
1
 10
-6.80031
 20
-0.0710631
 30
0
 10
-6.80031
 20
2.66314
 30
0
 10
-4.58363
 20
4.87956
 30
0
 10
-1.84969
 20
4.87956
 30
0
  0
SPLINE
  5
A92
330
A02
100
AcDbEntity
  8
Body
100
AcDbSpline
210
0
220
0
230
1
 70
8
 71
1
 72
4
 73
2
 74
0
 40
0
 40
0
 40
16.9189
 40
16.9189
 10
-12.791
 20
14.0617
 30
0
 10
-15.9565
 20
10.8964
 30
0
  0
SPLINE
  5
A93
330
A02
100
AcDbEntity
  8
Body
100
AcDbSpline
210
0
220
0
230
1
 70
8
 71
3
 72
8
 73
4
 74
0
 40
0
 40
0
 40
0
 40
0
 40
1
 40
1
 40
1
 40
1
 10
-4.51564
 20
-4.24116
 30
0
 10
-5.88909
 20
-3.36169
 30
0
 10
-6.80031
 20
-1.82313
 30
0
 10
-6.80031
 20
-0.0710631
 30
0
  0
SPLINE
  5
A94
330
A02
100
AcDbEntity
  8
Body
100
AcDbSpline
210
0
220
0
230
1
 70
8
 71
3
 72
8
 73
4
 74
0
 40
0
 40
0
 40
0
 40
0
 40
1
 40
1
 40
1
 40
1
 10
-15.9565
 20
10.8964
 30
0
 10
-16.0327
 20
10.82
 30
0
 10
-16.0454
 20
10.6848
 30
0
 10
-15.9843
 20
10.5959
 30
0
  0
SPLINE
  5
A95
330
A02
100
AcDbEntity
  8
Body
100
AcDbSpline
210
0
220
0
230
1
 70
8
 71
3
 72
8
 73
4
 74
0
 40
0
 40
0
 40
0
 40
0
 40
1
 40
1
 40
1
 40
1
 10
-4.27486
 20
-4.42558
 30
0
 10
-4.34524
 20
-4.38271
 30
0
 10
-4.44076
 20
-4.30889
 30
0
 10
-4.51564
 20
-4.24116
 30
0
  0
SPLINE
  5
A96
330
A02
100
AcDbEntity
  8
Body
100
AcDbSpline
210
0
220
0
230
1
 70
8
 71
1
 72
4
 73
2
 74
0
 40
0
 40
0
 40
16.9304
 40
16.9304
 10
-15.9843
 20
10.5959
 30
0
 10
-13.4498
 20
6.9023
 30
0
  0
SPLINE
  5
A97
330
A02
100
AcDbEntity
  8
Body
100
AcDbSpline
210
0
220
0
230
1
 70
8
 71
1
 72
4
 73
2
 74
0
 40
0
 40
0
 40
1.68727
 40
1.68727
 10
-3.89413
 20
-4.65867
 30
0
 10
-4.27486
 20
-4.42558
 30
0
  0
SPLINE
  5
A98
330
A02
100
AcDbEntity
  8
Body
100
AcDbSpline
210
0
220
0
230
1
 70
8
 71
3
 72
8
 73
4
 74
0
 40
0
 40
0
 40
0
 40
0
 40
1
 40
1
 40
1
 40
1
 10
-13.4498
 20
6.9023
 30
0
 10
-13.389
 20
6.81287
 30
0
 10
-13.3794
 20
6.66205
 30
0
 10
-13.4289
 20
6.56601
 30
0
  0
SPLINE
  5
A99
330
A02
100
AcDbEntity
  8
Body
100
AcDbSpline
210
0
220
0
230
1
 70
8
 71
3
 72
8
 73
4
 74
0
 40
0
 40
0
 40
0
 40
0
 40
1
 40
1
 40
1
 40
1
 10
-3.80205
 20
-4.94204
 30
0
 10
-3.76051
 20
-4.84229
 30
0
 10
-3.80205
 20
-4.71503
 30
0
 10
-3.89413
 20
-4.65867
 30
0
  0
SPLINE
  5
A9A
330
A02
100
AcDbEntity
  8
Body
100
AcDbSpline
210
0
220
0
230
1
 70
8
 71
1
 72
4
 73
2
 74
0
 40
0
 40
0
 40
12.7908
 40
12.7908
 10
-13.4289
 20
6.56601
 30
0
 10
-14.7624
 20
3.45557
 30
0
  0
SPLINE
  5
A9B
330
A02
100
AcDbEntity
  8
Body
100
AcDbSpline
210
0
220
0
230
1
 70
8
 71
1
 72
4
 73
2
 74
0
 40
0
 40
0
 40
31.0035
 40
31.0035
 10
-6.93895
 20
-12.5216
 30
0
 10
-3.80205
 20
-4.94204
 30
0
  0
SPLINE
  5
A9C
330
A02
100
AcDbEntity
  8
Body
100
AcDbSpline
210
0
220
0
230
1
 70
8
 71
3
 72
8
 73
4
 74
0
 40
0
 40
0
 40
0
 40
0
 40
1
 40
1
 40
1
 40
1
 10
-14.7624
 20
3.45557
 30
0
 10
-14.7979
 20
3.35344
 30
0
 10
-14.9135
 20
3.25396
 30
0
 10
-15.0199
 20
3.23411
 30
0
  0
SPLINE
  5
A9D
330
A02
100
AcDbEntity
  8
Body
100
AcDbSpline
210
0
220
0
230
1
 70
8
 71
3
 72
8
 73
4
 74
0
 40
0
 40
0
 40
0
 40
0
 40
1
 40
1
 40
1
 40
1
 10
-7.18899
 20
-12.6136
 30
0
 10
-7.09268
 20
-12.6628
 30
0
 10
-6.98023
 20
-12.6213
 30
0
 10
-6.93895
 20
-12.5216
 30
0
  0
SPLINE
  5
A9E
330
A02
100
AcDbEntity
  8
Body
100
AcDbSpline
210
0
220
0
230
1
 70
8
 71
1
 72
4
 73
2
 74
0
 40
0
 40
0
 40
16.7198
 40
16.7198
 10
-15.0199
 20
3.23411
 30
0
 10
-19.3691
 20
2.42528
 30
0
  0
SPLINE
  5
A9F
330
A02
100
AcDbEntity
  8
Body
100
AcDbSpline
210
0
220
0
230
1
 70
8
 71
1
 72
4
 73
2
 74
0
 40
0
 40
0
 40
6.51824
 40
6.51824
 10
-8.71034
 20
-11.8014
 30
0
 10
-7.18899
 20
-12.6136
 30
0
  0
SPLINE
  5
AA0
330
A02
100
AcDbEntity
  8
Body
100
AcDbSpline
210
0
220
0
230
1
 70
8
 71
3
 72
8
 73
4
 74
0
 40
0
 40
0
 40
0
 40
0
 40
1
 40
1
 40
1
 40
1
 10
-19.3691
 20
2.42528
 30
0
 10
-19.4754
 20
2.40517
 30
0
 10
-19.562
 20
2.30093
 30
0
 10
-19.562
 20
2.19298
 30
0
  0
SPLINE
  5
AA1
330
A02
100
AcDbEntity
  8
Body
100
AcDbSpline
210
0
220
0
230
1
 70
8
 71
3
 72
8
 73
4
 74
0
 40
0
 40
0
 40
0
 40
0
 40
1
 40
1
 40
1
 40
1
 10
-9.04107
 20
-11.8127
 30
0
 10
-8.95217
 20
-11.7519
 30
0
 10
-8.80321
 20
-11.7471
 30
0
 10
-8.71034
 20
-11.8014
 30
0
  0
SPLINE
  5
AA2
330
A02
100
AcDbEntity
  8
Body
100
AcDbSpline
210
0
220
0
230
1
 70
8
 71
1
 72
4
 73
2
 74
0
 40
0
 40
0
 40
16.919
 40
16.919
 10
-19.562
 20
2.19298
 30
0
 10
-19.5617
 20
-2.28351
 30
0
  0
SPLINE
  5
AA3
330
A02
100
AcDbEntity
  8
Body
100
AcDbSpline
210
0
220
0
230
1
 70
8
 71
1
 72
4
 73
2
 74
0
 40
0
 40
0
 40
15.8137
 40
15.8137
 10
-12.4907
 20
-14.1805
 30
0
 10
-9.04107
 20
-11.8127
 30
0
  0
SPLINE
  5
AA4
330
A02
100
AcDbEntity
  8
Body
100
AcDbSpline
210
0
220
0
230
1
 70
8
 71
3
 72
8
 73
4
 74
0
 40
0
 40
0
 40
0
 40
0
 40
1
 40
1
 40
1
 40
1
 10
-19.5617
 20
-2.28351
 30
0
 10
-19.5617
 20
-2.39146
 30
0
 10
-19.4749
 20
-2.4965
 30
0
 10
-19.3688
 20
-2.51581
 30
0
  0
SPLINE
  5
AA5
330
A02
100
AcDbEntity
  8
Body
100
AcDbSpline
210
0
220
0
230
1
 70
8
 71
3
 72
8
 73
4
 74
0
 40
0
 40
0
 40
0
 40
0
 40
1
 40
1
 40
1
 40
1
 10
-12.7913
 20
-14.1527
 30
0
 10
-12.7151
 20
-14.2287
 30
0
 10
-12.5799
 20
-14.2411
 30
0
 10
-12.4907
 20
-14.1805
 30
0
  0
SPLINE
  5
AA6
330
A02
100
AcDbEntity
  8
Body
100
AcDbSpline
210
0
220
0
230
1
 70
8
 71
1
 72
4
 73
2
 74
0
 40
0
 40
0
 40
16.3103
 40
16.3103
 10
-19.3688
 20
-2.51581
 30
0
 10
-15.1262
 20
-3.30533
 30
0
  0
SPLINE
  5
AA7
330
A02
100
AcDbEntity
  8
Body
100
AcDbSpline
210
0
220
0
230
1
 70
8
 71
1
 72
4
 73
2
 74
0
 40
0
 40
0
 40
16.9197
 40
16.9197
 10
-15.957
 20
-10.9875
 30
0
 10
-12.7913
 20
-14.1527
 30
0
  0
SPLINE
  5
AA8
330
A02
100
AcDbEntity
  8
Body
100
AcDbSpline
210
0
220
0
230
1
 70
8
 71
3
 72
8
 73
4
 74
0
 40
0
 40
0
 40
0
 40
0
 40
1
 40
1
 40
1
 40
1
 10
-15.1262
 20
-3.30533
 30
0
 10
-15.0201
 20
-3.32464
 30
0
 10
-14.9066
 20
-3.42545
 30
0
 10
-14.8743
 20
-3.52837
 30
0
  0
SPLINE
  5
AA9
330
A02
100
AcDbEntity
  8
Body
100
AcDbSpline
210
0
220
0
230
1
 70
8
 71
3
 72
8
 73
4
 74
0
 40
0
 40
0
 40
0
 40
0
 40
1
 40
1
 40
1
 40
1
 10
-15.9848
 20
-10.6867
 30
0
 10
-16.0456
 20
-10.7756
 30
0
 10
-16.0332
 20
-10.911
 30
0
 10
-15.957
 20
-10.9875
 30
0
  0
SPLINE
  5
AAA
330
A02
100
AcDbEntity
  8
Body
100
AcDbSpline
210
0
220
0
230
1
 70
8
 71
1
 72
4
 73
2
 74
0
 40
0
 40
0
 40
13.4698
 40
13.4698
 10
-14.8743
 20
-3.52837
 30
0
 10
-13.5498
 20
-6.83699
 30
0
  0
SPLINE
  5
AAB
330
A02
100
AcDbEntity
  8
Body
100
AcDbSpline
210
0
220
0
230
1
 70
8
 71
1
 72
4
 73
2
 74
0
 40
0
 40
0
 40
16.0975
 40
16.0975
 10
-13.575
 20
-7.17486
 30
0
 10
-15.9848
 20
-10.6867
 30
0
  0
SPLINE
  5
AAC
330
A02
100
AcDbEntity
  8
Body
100
AcDbSpline
210
0
220
0
230
1
 70
8
 71
3
 72
8
 73
4
 74
0
 40
0
 40
0
 40
0
 40
0
 40
1
 40
1
 40
1
 40
1
 10
-13.5498
 20
-6.83699
 30
0
 10
-13.5025
 20
-6.93409
 30
0
 10
-13.5136
 20
-7.08596
 30
0
 10
-13.575
 20
-7.17486
 30
0
  0
CIRCLE
  5
AAD
330
A02
100
AcDbEntity
  8
Body
100
AcDbCircle
 10
35
 20
17
 40
5
  0
LINE
  5
AAE
330
A02
100
AcDbEntity
  8
Body
100
AcDbLine
 10
28
 20
34
 30
0
 11
28
 21
48
 31
0
  0
LINE
  5
AAF
330
A02
100
AcDbEntity
  8
Body
100
AcDbLine
 10
42
 20
34
 30
0
 11
28
 21
34
 31
0
  0
LINE
  5
AB0
330
A02
100
AcDbEntity
  8
Body
100
AcDbLine
 10
28
 20
48
 30
0
 11
42
 21
48
 31
0
  0
LINE
  5
AB1
330
A02
100
AcDbEntity
  8
Body
100
AcDbLine
 10
42
 20
48
 30
0
 11
42
 21
34
 31
0
  0
LINE
  5
AB2
330
A02
100
AcDbEntity
  8
Body
100
AcDbLine
 10
-10
 20
40
 30
0
 11
-5
 21
35
 31
0
  0
LINE
  5
AB3
330
A02
100
AcDbEntity
  8
Body
100
AcDbLine
 10
-5
 20
35
 30
0
 11
10
 21
35
 31
0
  0
LINE
  5
AB4
330
A02
100
AcDbEntity
  8
Body
100
AcDbLine
 10
10
 20
35
 30
0
 11
10
 21
55
 31
0
  0
LINE
  5
AB5
330
A02
100
AcDbEntity
  8
Body
100
AcDbLine
 10
10
 20
55
 30
0
 11
5
 21
60
 31
0
  0
LINE
  5
AB6
330
A02
100
AcDbEntity
  8
Body
100
AcDbLine
 10
5
 20
60
 30
0
 11
5
 21
40
 31
0
  0
LINE
  5
AB7
330
A02
100
AcDbEntity
  8
Body
100
AcDbLine
 10
5
 20
40
 30
0
 11
-10
 21
40
 31
0
  0
LINE
  5
AB8
330
A02
100
AcDbEntity
  8
Body
100
AcDbLine
 10
28
 20
54
 30
0
 11
28
 21
68
 31
0
  0
LINE
  5
AB9
330
A02
100
AcDbEntity
  8
Body
100
AcDbLine
 10
42
 20
54
 30
0
 11
28
 21
54
 31
0
  0
LINE
  5
ABA
330
A02
100
AcDbEntity
  8
Body
100
AcDbLine
 10
28
 20
68
 30
0
 11
42
 21
68
 31
0
  0
LINE
  5
ABB
330
A02
100
AcDbEntity
  8
Body
100
AcDbLine
 10
42
 20
68
 30
0
 11
42
 21
54
 31
0
  0
CIRCLE
  5
ABC
330
A02
100
AcDbEntity
  8
Body
100
AcDbCircle
 10
35
 20
85
 40
5
  0
LINE
  5
ABD
330
A02
100
AcDbEntity
  8
Body
100
AcDbLine
 10
-50
 20
100
 30
1.5
 11
50
 21
100
 31
1.5
  0
LINE
  5
ABE
330
A02
100
AcDbEntity
  8
Body
100
AcDbLine
 10
-50
 20
-100
 30
1.5
 11
-50
 21
100
 31
1.5
  0
LINE
  5
ABF
330
A02
100
AcDbEntity
  8
Body
100
AcDbLine
 10
50
 20
100
 30
1.5
 11
50
 21
-100
 31
1.5
  0
LINE
  5
AC0
330
A02
100
AcDbEntity
  8
Body
100
AcDbLine
 10
50
 20
-100
 30
1.5
 11
-50
 21
-100
 31
1.5
  0
LINE
  5
AC1
330
A02
100
AcDbEntity
  8
Body
100
AcDbLine
 10
-40
 20
-90
 30
1.5
 11
-40
 21
-76
 31
1.5
  0
LINE
  5
AC2
330
A02
100
AcDbEntity
  8
Body
100
AcDbLine
 10
-26
 20
-90
 30
1.5
 11
-40
 21
-90
 31
1.5
  0
LINE
  5
AC3
330
A02
100
AcDbEntity
  8
Body
100
AcDbLine
 10
-40
 20
-76
 30
1.5
 11
-26
 21
-76
 31
1.5
  0
LINE
  5
AC4
330
A02
100
AcDbEntity
  8
Body
100
AcDbLine
 10
-26
 20
-76
 30
1.5
 11
-26
 21
-90
 31
1.5
  0
CIRCLE
  5
AC5
330
A02
100
AcDbEntity
  8
Body
100
AcDbCircle
 10
-33
 20
-60
 40
1.5
  0
LINE
  5
AC6
330
A02
100
AcDbEntity
  8
Body
100
AcDbLine
 10
19
 20
-76
 30
1.5
 11
5
 21
-76
 31
1.5
  0
LINE
  5
AC7
330
A02
100
AcDbEntity
  8
Body
100
AcDbLine
 10
19
 20
-90
 30
1.5
 11
19
 21
-76
 31
1.5
  0
LINE
  5
AC8
330
A02
100
AcDbEntity
  8
Body
100
AcDbLine
 10
5
 20
-76
 30
1.5
 11
5
 21
-90
 31
1.5
  0
LINE
  5
AC9
330
A02
100
AcDbEntity
  8
Body
100
AcDbLine
 10
5
 20
-90
 30
1.5
 11
19
 21
-90
 31
1.5
  0
LINE
  5
ACA
330
A02
100
AcDbEntity
  8
Body
100
AcDbLine
 10
19
 20
-56
 30
1.5
 11
5
 21
-56
 31
1.5
  0
LINE
  5
ACB
330
A02
100
AcDbEntity
  8
Body
100
AcDbLine
 10
19
 20
-70
 30
1.5
 11
19
 21
-56
 31
1.5
  0
LINE
  5
ACC
330
A02
100
AcDbEntity
  8
Body
100
AcDbLine
 10
5
 20
-56
 30
1.5
 11
5
 21
-70
 31
1.5
  0
LINE
  5
ACD
330
A02
100
AcDbEntity
  8
Body
100
AcDbLine
 10
5
 20
-70
 30
1.5
 11
19
 21
-70
 31
1.5
  0
LINE
  5
ACE
330
A02
100
AcDbEntity
  8
Body
100
AcDbLine
 10
25
 20
-80
 30
1.5
 11
29.7
 21
-80
 31
1.5
  0
LINE
  5
ACF
330
A02
100
AcDbEntity
  8
Body
100
AcDbLine
 10
25
 20
-80
 30
1.5
 11
25
 21
-66
 31
1.5
  0
LINE
  5
AD0
330
A02
100
AcDbEntity
  8
Body
100
AcDbLine
 10
29.7
 20
-80
 30
1.5
 11
29.7
 21
-81.525
 31
1.5
  0
LINE
  5
AD1
330
A02
100
AcDbEntity
  8
Body
100
AcDbLine
 10
25
 20
-66
 30
1.5
 11
29.7
 21
-66
 31
1.5
  0
LINE
  5
AD2
330
A02
100
AcDbEntity
  8
Body
100
AcDbLine
 10
29.7
 20
-81.525
 30
1.5
 11
26.47
 21
-81.525
 31
1.5
  0
LINE
  5
AD3
330
A02
100
AcDbEntity
  8
Body
100
AcDbLine
 10
29.7
 20
-66
 30
1.5
 11
29.7
 21
-64.475
 31
1.5
  0
LINE
  5
AD4
330
A02
100
AcDbEntity
  8
Body
100
AcDbLine
 10
26.47
 20
-81.525
 30
1.5
 11
26.47
 21
-88.275
 31
1.5
  0
LINE
  5
AD5
330
A02
100
AcDbEntity
  8
Body
100
AcDbLine
 10
29.7
 20
-64.475
 30
1.5
 11
26.47
 21
-64.475
 31
1.5
  0
LINE
  5
AD6
330
A02
100
AcDbEntity
  8
Body
100
AcDbLine
 10
26.47
 20
-88.275
 30
1.5
 11
29.7
 21
-88.275
 31
1.5
  0
LINE
  5
AD7
330
A02
100
AcDbEntity
  8
Body
100
AcDbLine
 10
26.47
 20
-64.475
 30
1.5
 11
26.47
 21
-57.725
 31
1.5
  0
LINE
  5
AD8
330
A02
100
AcDbEntity
  8
Body
100
AcDbLine
 10
29.7
 20
-88.275
 30
1.5
 11
29.7
 21
-89.1
 31
1.5
  0
LINE
  5
AD9
330
A02
100
AcDbEntity
  8
Body
100
AcDbLine
 10
26.47
 20
-57.725
 30
1.5
 11
29.7
 21
-57.725
 31
1.5
  0
LINE
  5
ADA
330
A02
100
AcDbEntity
  8
Body
100
AcDbLine
 10
29.7
 20
-89.1
 30
1.5
 11
32.485
 21
-89.1
 31
1.5
  0
LINE
  5
ADB
330
A02
100
AcDbEntity
  8
Body
100
AcDbLine
 10
29.7
 20
-57.725
 30
1.5
 11
29.7
 21
-56.9
 31
1.5
  0
LINE
  5
ADC
330
A02
100
AcDbEntity
  8
Body
100
AcDbLine
 10
32.485
 20
-89.1
 30
1.5
 11
32.485
 21
-88.275
 31
1.5
  0
LINE
  5
ADD
330
A02
100
AcDbEntity
  8
Body
100
AcDbLine
 10
29.7
 20
-56.9
 30
1.5
 11
32.485
 21
-56.9
 31
1.5
  0
LINE
  5
ADE
330
A02
100
AcDbEntity
  8
Body
100
AcDbLine
 10
32.485
 20
-88.275
 30
1.5
 11
38.77
 21
-88.275
 31
1.5
  0
LINE
  5
ADF
330
A02
100
AcDbEntity
  8
Body
100
AcDbLine
 10
32.485
 20
-56.9
 30
1.5
 11
32.485
 21
-57.725
 31
1.5
  0
LINE
  5
AE0
330
A02
100
AcDbEntity
  8
Body
100
AcDbLine
 10
38.77
 20
-88.275
 30
1.5
 11
38.77
 21
-86.55
 31
1.5
  0
LINE
  5
AE1
330
A02
100
AcDbEntity
  8
Body
100
AcDbLine
 10
32.485
 20
-57.725
 30
1.5
 11
38.77
 21
-57.725
 31
1.5
  0
LINE
  5
AE2
330
A02
100
AcDbEntity
  8
Body
100
AcDbLine
 10
38.77
 20
-86.55
 30
1.5
 11
40.495
 21
-86.55
 31
1.5
  0
LINE
  5
AE3
330
A02
100
AcDbEntity
  8
Body
100
AcDbLine
 10
38.77
 20
-57.725
 30
1.5
 11
38.77
 21
-59.45
 31
1.5
  0
LINE
  5
AE4
330
A02
100
AcDbEntity
  8
Body
100
AcDbLine
 10
40.495
 20
-86.55
 30
1.5
 11
40.495
 21
-83.25
 31
1.5
  0
LINE
  5
AE5
330
A02
100
AcDbEntity
  8
Body
100
AcDbLine
 10
38.77
 20
-59.45
 30
1.5
 11
40.495
 21
-59.45
 31
1.5
  0
LINE
  5
AE6
330
A02
100
AcDbEntity
  8
Body
100
AcDbLine
 10
40.495
 20
-83.25
 30
1.5
 11
38.77
 21
-83.25
 31
1.5
  0
LINE
  5
AE7
330
A02
100
AcDbEntity
  8
Body
100
AcDbLine
 10
40.495
 20
-59.45
 30
1.5
 11
40.495
 21
-62.75
 31
1.5
  0
LINE
  5
AE8
330
A02
100
AcDbEntity
  8
Body
100
AcDbLine
 10
38.77
 20
-83.25
 30
1.5
 11
38.77
 21
-81.525
 31
1.5
  0
LINE
  5
AE9
330
A02
100
AcDbEntity
  8
Body
100
AcDbLine
 10
40.495
 20
-62.75
 30
1.5
 11
38.77
 21
-62.75
 31
1.5
  0
LINE
  5
AEA
330
A02
100
AcDbEntity
  8
Body
100
AcDbLine
 10
38.77
 20
-81.525
 30
1.5
 11
34.07
 21
-81.525
 31
1.5
  0
LINE
  5
AEB
330
A02
100
AcDbEntity
  8
Body
100
AcDbLine
 10
38.77
 20
-62.75
 30
1.5
 11
38.77
 21
-64.475
 31
1.5
  0
LINE
  5
AEC
330
A02
100
AcDbEntity
  8
Body
100
AcDbLine
 10
34.07
 20
-81.525
 30
1.5
 11
34.07
 21
-80
 31
1.5
  0
LINE
  5
AED
330
A02
100
AcDbEntity
  8
Body
100
AcDbLine
 10
38.77
 20
-64.475
 30
1.5
 11
34.07
 21
-64.475
 31
1.5
  0
LINE
  5
AEE
330
A02
100
AcDbEntity
  8
Body
100
AcDbLine
 10
34.07
 20
-80
 30
1.5
 11
38.77
 21
-80
 31
1.5
  0
LINE
  5
AEF
330
A02
100
AcDbEntity
  8
Body
100
AcDbLine
 10
34.07
 20
-64.475
 30
1.5
 11
34.07
 21
-66
 31
1.5
  0
LINE
  5
AF0
330
A02
100
AcDbEntity
  8
Body
100
AcDbLine
 10
38.77
 20
-66
 30
1.5
 11
38.77
 21
-80
 31
1.5
  0
LINE
  5
AF1
330
A02
100
AcDbEntity
  8
Body
100
AcDbLine
 10
34.07
 20
-66
 30
1.5
 11
38.77
 21
-66
 31
1.5
  0
LINE
  5
AF2
330
A02
100
AcDbEntity
  8
Body
100
AcDbLine
 10
19
 20
-36
 30
1.5
 11
5
 21
-36
 31
1.5
  0
LINE
  5
AF3
330
A02
100
AcDbEntity
  8
Body
100
AcDbLine
 10
19
 20
-50
 30
1.5
 11
19
 21
-36
 31
1.5
  0
LINE
  5
AF4
330
A02
100
AcDbEntity
  8
Body
100
AcDbLine
 10
5
 20
-36
 30
1.5
 11
5
 21
-50
 31
1.5
  0
LINE
  5
AF5
330
A02
100
AcDbEntity
  8
Body
100
AcDbLine
 10
5
 20
-50
 30
1.5
 11
19
 21
-50
 31
1.5
  0
LINE
  5
AF6
330
A02
100
AcDbEntity
  8
Body
100
AcDbLine
 10
39
 20
-36
 30
1.5
 11
25
 21
-36
 31
1.5
  0
LINE
  5
AF7
330
A02
100
AcDbEntity
  8
Body
100
AcDbLine
 10
39
 20
-50
 30
1.5
 11
39
 21
-36
 31
1.5
  0
LINE
  5
AF8
330
A02
100
AcDbEntity
  8
Body
100
AcDbLine
 10
25
 20
-36
 30
1.5
 11
25
 21
-50
 31
1.5
  0
LINE
  5
AF9
330
A02
100
AcDbEntity
  8
Body
100
AcDbLine
 10
25
 20
-50
 30
1.5
 11
39
 21
-50
 31
1.5
  0
LINE
  5
AFA
330
A02
100
AcDbEntity
  8
Body
100
AcDbLine
 10
-34
 20
-54
 30
1.5
 11
-34
 21
54
 31
1.5
  0
LINE
  5
AFB
330
A02
100
AcDbEntity
  8
Body
100
AcDbLine
 10
-32
 20
-54
 30
1.5
 11
-34
 21
-54
 31
1.5
  0
LINE
  5
AFC
330
A02
100
AcDbEntity
  8
Body
100
AcDbLine
 10
-34
 20
54
 30
1.5
 11
-32
 21
54
 31
1.5
  0
LINE
  5
AFD
330
A02
100
AcDbEntity
  8
Body
100
AcDbLine
 10
-32
 20
54
 30
1.5
 11
-32
 21
-54
 31
1.5
  0
CIRCLE
  5
AFE
330
A02
100
AcDbEntity
  8
Body
100
AcDbCircle
 10
-33
 20
60
 40
1.5
  0
LINE
  5
AFF
330
A02
100
AcDbEntity
  8
Body
100
AcDbLine
 10
-47
 20
75
 30
1.5
 11
-47
 21
89
 31
1.5
  0
LINE
  5
B00
330
A02
100
AcDbEntity
  8
Body
100
AcDbLine
 10
-19
 20
75
 30
1.5
 11
-47
 21
75
 31
1.5
  0
LINE
  5
B01
330
A02
100
AcDbEntity
  8
Body
100
AcDbLine
 10
-47
 20
89
 30
1.5
 11
-19
 21
89
 31
1.5
  0
LINE
  5
B02
330
A02
100
AcDbEntity
  8
Body
100
AcDbLine
 10
-19
 20
89
 30
1.5
 11
-19
 21
75
 31
1.5
  0
LINE
  5
B03
330
A02
100
AcDbEntity
  8
Body
100
AcDbLine
 10
-20
 20
50
 30
1.5
 11
-20
 21
70
 31
1.5
  0
LINE
  5
B04
330
A02
100
AcDbEntity
  8
Body
100
AcDbLine
 10
-15
 20
45
 30
1.5
 11
-20
 21
50
 31
1.5
  0
LINE
  5
B05
330
A02
100
AcDbEntity
  8
Body
100
AcDbLine
 10
-15
 20
55
 30
1.5
 11
-15
 21
45
 31
1.5
  0
LINE
  5
B06
330
A02
100
AcDbEntity
  8
Body
100
AcDbLine
 10
-5
 20
55
 30
1.5
 11
-15
 21
55
 31
1.5
  0
LINE
  5
B07
330
A02
100
AcDbEntity
  8
Body
100
AcDbLine
 10
-5
 20
45
 30
1.5
 11
-5
 21
55
 31
1.5
  0
LINE
  5
B08
330
A02
100
AcDbEntity
  8
Body
100
AcDbLine
 10
2.6e-16
 20
45
 30
1.5
 11
-5
 21
45
 31
1.5
  0
LINE
  5
B09
330
A02
100
AcDbEntity
  8
Body
100
AcDbLine
 10
2.6e-16
 20
65
 30
1.5
 11
2.6e-16
 21
45
 31
1.5
  0
LINE
  5
B0A
330
A02
100
AcDbEntity
  8
Body
100
AcDbLine
 10
-5
 20
70
 30
1.5
 11
8.88178e-16
 21
65
 31
1.5
  0
LINE
  5
B0B
330
A02
100
AcDbEntity
  8
Body
100
AcDbLine
 10
-5
 20
60
 30
1.5
 11
-5
 21
70
 31
1.5
  0
LINE
  5
B0C
330
A02
100
AcDbEntity
  8
Body
100
AcDbLine
 10
-15
 20
60
 30
1.5
 11
-5
 21
60
 31
1.5
  0
LINE
  5
B0D
330
A02
100
AcDbEntity
  8
Body
100
AcDbLine
 10
-15
 20
70
 30
1.5
 11
-15
 21
60
 31
1.5
  0
LINE
  5
B0E
330
A02
100
AcDbEntity
  8
Body
100
AcDbLine
 10
-20
 20
70
 30
1.5
 11
-15
 21
70
 31
1.5
  0
SPLINE
  5
B0F
330
A02
100
AcDbEntity
  8
Body
100
AcDbSpline
210
0
220
0
230
1
 70
8
 71
1
 72
4
 73
2
 74
0
 40
0
 40
0
 40
16.7208
 40
16.7208
 10
15.6702
 20
2.42528
 30
1.5
 10
11.3207
 20
3.23411
 30
1.5
  0
SPLINE
  5
B10
330
A02
100
AcDbEntity
  8
Body
100
AcDbSpline
210
0
220
0
230
1
 70
8
 71
3
 72
8
 73
4
 74
0
 40
0
 40
0
 40
0
 40
0
 40
1
 40
1
 40
1
 40
1
 10
15.8626
 20
2.19271
 30
1.5
 10
15.8628
 20
2.30093
 30
1.5
 10
15.7761
 20
2.40517
 30
1.5
 10
15.6702
 20
2.42528
 30
1.5
  0
SPLINE
  5
B11
330
A02
100
AcDbEntity
  8
Body
100
AcDbSpline
210
0
220
0
230
1
 70
8
 71
3
 72
8
 73
4
 74
0
 40
0
 40
0
 40
0
 40
0
 40
1
 40
1
 40
1
 40
1
 10
11.3207
 20
3.23411
 30
1.5
 10
11.2149
 20
3.25396
 30
1.5
 10
11.099
 20
3.35344
 30
1.5
 10
11.0633
 20
3.45557
 30
1.5
  0
SPLINE
  5
B12
330
A02
100
AcDbEntity
  8
Body
100
AcDbSpline
210
0
220
0
230
1
 70
8
 71
1
 72
4
 73
2
 74
0
 40
0
 40
0
 40
16.919
 40
16.919
 10
15.862
 20
-2.28377
 30
1.5
 10
15.8626
 20
2.19271
 30
1.5
  0
SPLINE
  5
B13
330
A02
100
AcDbEntity
  8
Body
100
AcDbSpline
210
0
220
0
230
1
 70
8
 71
1
 72
4
 73
2
 74
0
 40
0
 40
0
 40
12.7904
 40
12.7904
 10
11.0633
 20
3.45557
 30
1.5
 10
9.73006
 20
6.56601
 30
1.5
  0
SPLINE
  5
B14
330
A02
100
AcDbEntity
  8
Body
100
AcDbSpline
210
0
220
0
230
1
 70
8
 71
3
 72
8
 73
4
 74
0
 40
0
 40
0
 40
0
 40
0
 40
1
 40
1
 40
1
 40
1
 10
15.6692
 20
-2.51608
 30
1.5
 10
15.775
 20
-2.49676
 30
1.5
 10
15.862
 20
-2.39172
 30
1.5
 10
15.862
 20
-2.28377
 30
1.5
  0
SPLINE
  5
B15
330
A02
100
AcDbEntity
  8
Body
100
AcDbSpline
210
0
220
0
230
1
 70
8
 71
3
 72
8
 73
4
 74
0
 40
0
 40
0
 40
0
 40
0
 40
1
 40
1
 40
1
 40
1
 10
9.73006
 20
6.56601
 30
1.5
 10
9.68032
 20
6.66205
 30
1.5
 10
9.68984
 20
6.81287
 30
1.5
 10
9.75123
 20
6.9023
 30
1.5
  0
SPLINE
  5
B16
330
A02
100
AcDbEntity
  8
Body
100
AcDbSpline
210
0
220
0
230
1
 70
8
 71
1
 72
4
 73
2
 74
0
 40
0
 40
0
 40
16.3103
 40
16.3103
 10
11.4266
 20
-3.30559
 30
1.5
 10
15.6692
 20
-2.51608
 30
1.5
  0
SPLINE
  5
B17
330
A02
100
AcDbEntity
  8
Body
100
AcDbSpline
210
0
220
0
230
1
 70
8
 71
1
 72
4
 73
2
 74
0
 40
0
 40
0
 40
16.9298
 40
16.9298
 10
9.75123
 20
6.9023
 30
1.5
 10
12.2854
 20
10.5959
 30
1.5
  0
SPLINE
  5
B18
330
A02
100
AcDbEntity
  8
Body
100
AcDbSpline
210
0
220
0
230
1
 70
8
 71
3
 72
8
 73
4
 74
0
 40
0
 40
0
 40
0
 40
0
 40
1
 40
1
 40
1
 40
1
 10
11.1749
 20
-3.52864
 30
1.5
 10
11.2075
 20
-3.42572
 30
1.5
 10
11.3202
 20
-3.32491
 30
1.5
 10
11.4266
 20
-3.30559
 30
1.5
  0
SPLINE
  5
B19
330
A02
100
AcDbEntity
  8
Body
100
AcDbSpline
210
0
220
0
230
1
 70
8
 71
3
 72
8
 73
4
 74
0
 40
0
 40
0
 40
0
 40
0
 40
1
 40
1
 40
1
 40
1
 10
12.2854
 20
10.5959
 30
1.5
 10
12.346
 20
10.6848
 30
1.5
 10
12.3341
 20
10.82
 30
1.5
 10
12.2576
 20
10.8964
 30
1.5
  0
SPLINE
  5
B1A
330
A02
100
AcDbEntity
  8
Body
100
AcDbSpline
210
0
220
0
230
1
 70
8
 71
1
 72
4
 73
2
 74
0
 40
0
 40
0
 40
13.4698
 40
13.4698
 10
9.85045
 20
-6.83725
 30
1.5
 10
11.1749
 20
-3.52864
 30
1.5
  0
SPLINE
  5
B1B
330
A02
100
AcDbEntity
  8
Body
100
AcDbSpline
210
0
220
0
230
1
 70
8
 71
1
 72
4
 73
2
 74
0
 40
0
 40
0
 40
16.9182
 40
16.9182
 10
12.2576
 20
10.8964
 30
1.5
 10
9.09241
 20
14.0617
 30
1.5
  0
SPLINE
  5
B1C
330
A02
100
AcDbEntity
  8
Body
100
AcDbSpline
210
0
220
0
230
1
 70
8
 71
3
 72
8
 73
4
 74
0
 40
0
 40
0
 40
0
 40
0
 40
1
 40
1
 40
1
 40
1
 10
9.87532
 20
-7.17513
 30
1.5
 10
9.81446
 20
-7.08623
 30
1.5
 10
9.80309
 20
-6.93435
 30
1.5
 10
9.85045
 20
-6.83725
 30
1.5
  0
SPLINE
  5
B1D
330
A02
100
AcDbEntity
  8
Body
100
AcDbSpline
210
0
220
0
230
1
 70
8
 71
3
 72
8
 73
4
 74
0
 40
0
 40
0
 40
0
 40
0
 40
1
 40
1
 40
1
 40
1
 10
9.09241
 20
14.0617
 30
1.5
 10
9.01595
 20
14.1381
 30
1.5
 10
8.88101
 20
14.1506
 30
1.5
 10
8.79211
 20
14.0894
 30
1.5
  0
SPLINE
  5
B1E
330
A02
100
AcDbEntity
  8
Body
100
AcDbSpline
210
0
220
0
230
1
 70
8
 71
1
 72
4
 73
2
 74
0
 40
0
 40
0
 40
16.098
 40
16.098
 10
12.2854
 20
-10.6869
 30
1.5
 10
9.87532
 20
-7.17513
 30
1.5
  0
SPLINE
  5
B1F
330
A02
100
AcDbEntity
  8
Body
100
AcDbSpline
210
0
220
0
230
1
 70
8
 71
1
 72
4
 73
2
 74
0
 40
0
 40
0
 40
17.228
 40
17.228
 10
8.79211
 20
14.0894
 30
1.5
 10
5.03371
 20
11.5103
 30
1.5
  0
SPLINE
  5
B20
330
A02
100
AcDbEntity
  8
Body
100
AcDbSpline
210
0
220
0
230
1
 70
8
 71
3
 72
8
 73
4
 74
0
 40
0
 40
0
 40
0
 40
0
 40
1
 40
1
 40
1
 40
1
 10
12.2576
 20
-10.9878
 30
1.5
 10
12.3341
 20
-10.9113
 30
1.5
 10
12.3465
 20
-10.7758
 30
1.5
 10
12.2854
 20
-10.6869
 30
1.5
  0
SPLINE
  5
B21
330
A02
100
AcDbEntity
  8
Body
100
AcDbSpline
210
0
220
0
230
1
 70
8
 71
3
 72
8
 73
4
 74
0
 40
0
 40
0
 40
0
 40
0
 40
1
 40
1
 40
1
 40
1
 10
5.03371
 20
11.5103
 30
1.5
 10
4.94481
 20
11.4492
 30
1.5
 10
4.79241
 20
11.4383
 30
1.5
 10
4.69583
 20
11.4859
 30
1.5
  0
SPLINE
  5
B22
330
A02
100
AcDbEntity
  8
Body
100
AcDbSpline
210
0
220
0
230
1
 70
8
 71
1
 72
4
 73
2
 74
0
 40
0
 40
0
 40
16.9197
 40
16.9197
 10
9.09189
 20
-14.153
 30
1.5
 10
12.2576
 20
-10.9878
 30
1.5
  0
SPLINE
  5
B23
330
A02
100
AcDbEntity
  8
Body
100
AcDbSpline
210
0
220
0
230
1
 70
8
 71
1
 72
4
 73
2
 74
0
 40
0
 40
0
 40
12.3139
 40
12.3139
 10
4.69583
 20
11.4859
 30
1.5
 10
1.68064
 20
12.7202
 30
1.5
  0
SPLINE
  5
B24
330
A02
100
AcDbEntity
  8
Body
100
AcDbSpline
210
0
220
0
230
1
 70
8
 71
3
 72
8
 73
4
 74
0
 40
0
 40
0
 40
0
 40
0
 40
1
 40
1
 40
1
 40
1
 10
8.79158
 20
-14.1808
 30
1.5
 10
8.88048
 20
-14.2414
 30
1.5
 10
9.01595
 20
-14.2289
 30
1.5
 10
9.09189
 20
-14.153
 30
1.5
  0
SPLINE
  5
B25
330
A02
100
AcDbEntity
  8
Body
100
AcDbSpline
210
0
220
0
230
1
 70
8
 71
3
 72
8
 73
4
 74
0
 40
0
 40
0
 40
0
 40
0
 40
1
 40
1
 40
1
 40
1
 10
1.68064
 20
12.7202
 30
1.5
 10
1.57825
 20
12.7541
 30
1.5
 10
1.4785
 20
12.8686
 30
1.5
 10
1.45839
 20
12.9747
 30
1.5
  0
SPLINE
  5
B26
330
A02
100
AcDbEntity
  8
Body
100
AcDbSpline
210
0
220
0
230
1
 70
8
 71
1
 72
4
 73
2
 74
0
 40
0
 40
0
 40
15.8146
 40
15.8146
 10
5.34168
 20
-11.813
 30
1.5
 10
8.79158
 20
-14.1808
 30
1.5
  0
SPLINE
  5
B27
330
A02
100
AcDbEntity
  8
Body
100
AcDbSpline
210
0
220
0
230
1
 70
8
 71
1
 72
4
 73
2
 74
0
 40
0
 40
0
 40
17.2951
 40
17.2951
 10
1.45839
 20
12.9747
 30
1.5
 10
0.620985
 20
17.4735
 30
1.5
  0
SPLINE
  5
B28
330
A02
100
AcDbEntity
  8
Body
100
AcDbSpline
210
0
220
0
230
1
 70
8
 71
3
 72
8
 73
4
 74
0
 40
0
 40
0
 40
0
 40
0
 40
1
 40
1
 40
1
 40
1
 10
5.01095
 20
-11.8016
 30
1.5
 10
5.10409
 20
-11.7474
 30
1.5
 10
5.25278
 20
-11.7519
 30
1.5
 10
5.34168
 20
-11.813
 30
1.5
  0
SPLINE
  5
B29
330
A02
100
AcDbEntity
  8
Body
100
AcDbSpline
210
0
220
0
230
1
 70
8
 71
3
 72
8
 73
4
 74
0
 40
0
 40
0
 40
0
 40
0
 40
1
 40
1
 40
1
 40
1
 10
0.620985
 20
17.4735
 30
1.5
 10
0.601406
 20
17.5796
 30
1.5
 10
0.496896
 20
17.6663
 30
1.5
 10
0.388946
 20
17.6663
 30
1.5
  0
SPLINE
  5
B2A
330
A02
100
AcDbEntity
  8
Body
100
AcDbSpline
210
0
220
0
230
1
 70
8
 71
1
 72
4
 73
2
 74
0
 40
0
 40
0
 40
6.51824
 40
6.51824
 10
3.4896
 20
-12.6139
 30
1.5
 10
5.01095
 20
-11.8016
 30
1.5
  0
SPLINE
  5
B2B
330
A02
100
AcDbEntity
  8
Body
100
AcDbSpline
210
0
220
0
230
1
 70
8
 71
1
 72
4
 73
2
 74
0
 40
0
 40
0
 40
16.92
 40
16.92
 10
0.388946
 20
17.6663
 30
1.5
 10
-4.0878
 20
17.6663
 30
1.5
  0
SPLINE
  5
B2C
330
A02
100
AcDbEntity
  8
Body
100
AcDbSpline
210
0
220
0
230
1
 70
8
 71
3
 72
8
 73
4
 74
0
 40
0
 40
0
 40
0
 40
0
 40
1
 40
1
 40
1
 40
1
 10
3.23957
 20
-12.5218
 30
1.5
 10
3.28084
 20
-12.6216
 30
1.5
 10
3.39302
 20
-12.6628
 30
1.5
 10
3.4896
 20
-12.6139
 30
1.5
  0
SPLINE
  5
B2D
330
A02
100
AcDbEntity
  8
Body
100
AcDbSpline
210
0
220
0
230
1
 70
8
 71
3
 72
8
 73
4
 74
0
 40
0
 40
0
 40
0
 40
0
 40
1
 40
1
 40
1
 40
1
 10
-4.0878
 20
17.6663
 30
1.5
 10
-4.19549
 20
17.6663
 30
1.5
 10
-4.3
 20
17.5796
 30
1.5
 10
-4.31958
 20
17.4735
 30
1.5
  0
SPLINE
  5
B2E
330
A02
100
AcDbEntity
  8
Body
100
AcDbSpline
210
0
220
0
230
1
 70
8
 71
1
 72
4
 73
2
 74
0
 40
0
 40
0
 40
31.004
 40
31.004
 10
0.102931
 20
-4.94204
 30
1.5
 10
3.23957
 20
-12.5218
 30
1.5
  0
SPLINE
  5
B2F
330
A02
100
AcDbEntity
  8
Body
100
AcDbSpline
210
0
220
0
230
1
 70
8
 71
1
 72
4
 73
2
 74
0
 40
0
 40
0
 40
17.2949
 40
17.2949
 10
-4.31958
 20
17.4735
 30
1.5
 10
-5.15672
 20
12.9747
 30
1.5
  0
SPLINE
  5
B30
330
A02
100
AcDbEntity
  8
Body
100
AcDbSpline
210
0
220
0
230
1
 70
8
 71
3
 72
8
 73
4
 74
0
 40
0
 40
0
 40
0
 40
0
 40
1
 40
1
 40
1
 40
1
 10
0.195006
 20
-4.65867
 30
1.5
 10
0.10346
 20
-4.71503
 30
1.5
 10
0.0616561
 20
-4.84229
 30
1.5
 10
0.102931
 20
-4.94204
 30
1.5
  0
SPLINE
  5
B31
330
A02
100
AcDbEntity
  8
Body
100
AcDbSpline
210
0
220
0
230
1
 70
8
 71
3
 72
8
 73
4
 74
0
 40
0
 40
0
 40
0
 40
0
 40
1
 40
1
 40
1
 40
1
 10
-5.15672
 20
12.9747
 30
1.5
 10
-5.17683
 20
12.8686
 30
1.5
 10
-5.27631
 20
12.7541
 30
1.5
 10
-5.37897
 20
12.7202
 30
1.5
  0
SPLINE
  5
B32
330
A02
100
AcDbEntity
  8
Body
100
AcDbSpline
210
0
220
0
230
1
 70
8
 71
1
 72
4
 73
2
 74
0
 40
0
 40
0
 40
1.68727
 40
1.68727
 10
0.575742
 20
-4.42558
 30
1.5
 10
0.195006
 20
-4.65867
 30
1.5
  0
SPLINE
  5
B33
330
A02
100
AcDbEntity
  8
Body
100
AcDbSpline
210
0
220
0
230
1
 70
8
 71
1
 72
4
 73
2
 74
0
 40
0
 40
0
 40
12.3148
 40
12.3148
 10
-5.37897
 20
12.7202
 30
1.5
 10
-8.39443
 20
11.4859
 30
1.5
  0
SPLINE
  5
B34
330
A02
100
AcDbEntity
  8
Body
100
AcDbSpline
210
0
220
0
230
1
 70
8
 71
3
 72
8
 73
4
 74
0
 40
0
 40
0
 40
0
 40
0
 40
1
 40
1
 40
1
 40
1
 10
0.815983
 20
-4.24116
 30
1.5
 10
0.741635
 20
-4.30889
 30
1.5
 10
0.645856
 20
-4.38271
 30
1.5
 10
0.575742
 20
-4.42558
 30
1.5
  0
SPLINE
  5
B35
330
A02
100
AcDbEntity
  8
Body
100
AcDbSpline
210
0
220
0
230
1
 70
8
 71
3
 72
8
 73
4
 74
0
 40
0
 40
0
 40
0
 40
0
 40
1
 40
1
 40
1
 40
1
 10
-8.39443
 20
11.4859
 30
1.5
 10
-8.49126
 20
11.4383
 30
1.5
 10
-8.64366
 20
11.4492
 30
1.5
 10
-8.7323
 20
11.5103
 30
1.5
  0
SPLINE
  5
B36
330
A02
100
AcDbEntity
  8
Body
100
AcDbSpline
210
0
220
0
230
1
 70
8
 71
3
 72
8
 73
4
 74
0
 40
0
 40
0
 40
0
 40
0
 40
1
 40
1
 40
1
 40
1
 10
3.10066
 20
-0.0710631
 30
1.5
 10
3.10066
 20
-1.82313
 30
1.5
 10
2.1897
 20
-3.36169
 30
1.5
 10
0.815983
 20
-4.24116
 30
1.5
  0
SPLINE
  5
B37
330
A02
100
AcDbEntity
  8
Body
100
AcDbSpline
210
0
220
0
230
1
 70
8
 71
1
 72
4
 73
2
 74
0
 40
0
 40
0
 40
17.2272
 40
17.2272
 10
-8.7323
 20
11.5103
 30
1.5
 10
-12.4904
 20
14.0894
 30
1.5
  0
SPLINE
  5
B38
330
A02
100
AcDbEntity
  8
Body
100
AcDbSpline
210
0
220
0
230
1
 70
8
 71
3
 72
8
 73
4
 74
0
 40
0
 40
0
 40
0
 40
0
 40
1
 40
1
 40
1
 40
1
 10
-1.84969
 20
4.87956
 30
1.5
 10
0.884246
 20
4.87956
 30
1.5
 10
3.10066
 20
2.66314
 30
1.5
 10
3.10066
 20
-0.0710631
 30
1.5
  0
SPLINE
  5
B39
330
A02
100
AcDbEntity
  8
Body
100
AcDbSpline
210
0
220
0
230
1
 70
8
 71
3
 72
8
 73
4
 74
0
 40
0
 40
0
 40
0
 40
0
 40
1
 40
1
 40
1
 40
1
 10
-12.4904
 20
14.0894
 30
1.5
 10
-12.5796
 20
14.1506
 30
1.5
 10
-12.7148
 20
14.1381
 30
1.5
 10
-12.791
 20
14.0617
 30
1.5
  0
SPLINE
  5
B3A
330
A02
100
AcDbEntity
  8
Body
100
AcDbSpline
210
0
220
0
230
1
 70
8
 71
3
 72
8
 73
4
 74
0
 40
0
 40
0
 40
0
 40
0
 40
1
 40
1
 40
1
 40
1
 10
-6.80031
 20
-0.0710631
 30
1.5
 10
-6.80031
 20
2.66314
 30
1.5
 10
-4.58363
 20
4.87956
 30
1.5
 10
-1.84969
 20
4.87956
 30
1.5
  0
SPLINE
  5
B3B
330
A02
100
AcDbEntity
  8
Body
100
AcDbSpline
210
0
220
0
230
1
 70
8
 71
1
 72
4
 73
2
 74
0
 40
0
 40
0
 40
16.9189
 40
16.9189
 10
-12.791
 20
14.0617
 30
1.5
 10
-15.9565
 20
10.8964
 30
1.5
  0
SPLINE
  5
B3C
330
A02
100
AcDbEntity
  8
Body
100
AcDbSpline
210
0
220
0
230
1
 70
8
 71
3
 72
8
 73
4
 74
0
 40
0
 40
0
 40
0
 40
0
 40
1
 40
1
 40
1
 40
1
 10
-4.51564
 20
-4.24116
 30
1.5
 10
-5.88909
 20
-3.36169
 30
1.5
 10
-6.80031
 20
-1.82313
 30
1.5
 10
-6.80031
 20
-0.0710631
 30
1.5
  0
SPLINE
  5
B3D
330
A02
100
AcDbEntity
  8
Body
100
AcDbSpline
210
0
220
0
230
1
 70
8
 71
3
 72
8
 73
4
 74
0
 40
0
 40
0
 40
0
 40
0
 40
1
 40
1
 40
1
 40
1
 10
-15.9565
 20
10.8964
 30
1.5
 10
-16.0327
 20
10.82
 30
1.5
 10
-16.0454
 20
10.6848
 30
1.5
 10
-15.9843
 20
10.5959
 30
1.5
  0
SPLINE
  5
B3E
330
A02
100
AcDbEntity
  8
Body
100
AcDbSpline
210
0
220
0
230
1
 70
8
 71
3
 72
8
 73
4
 74
0
 40
0
 40
0
 40
0
 40
0
 40
1
 40
1
 40
1
 40
1
 10
-4.27486
 20
-4.42558
 30
1.5
 10
-4.34524
 20
-4.38271
 30
1.5
 10
-4.44076
 20
-4.30889
 30
1.5
 10
-4.51564
 20
-4.24116
 30
1.5
  0
SPLINE
  5
B3F
330
A02
100
AcDbEntity
  8
Body
100
AcDbSpline
210
0
220
0
230
1
 70
8
 71
1
 72
4
 73
2
 74
0
 40
0
 40
0
 40
16.9304
 40
16.9304
 10
-15.9843
 20
10.5959
 30
1.5
 10
-13.4498
 20
6.9023
 30
1.5
  0
SPLINE
  5
B40
330
A02
100
AcDbEntity
  8
Body
100
AcDbSpline
210
0
220
0
230
1
 70
8
 71
1
 72
4
 73
2
 74
0
 40
0
 40
0
 40
1.68727
 40
1.68727
 10
-3.89413
 20
-4.65867
 30
1.5
 10
-4.27486
 20
-4.42558
 30
1.5
  0
SPLINE
  5
B41
330
A02
100
AcDbEntity
  8
Body
100
AcDbSpline
210
0
220
0
230
1
 70
8
 71
3
 72
8
 73
4
 74
0
 40
0
 40
0
 40
0
 40
0
 40
1
 40
1
 40
1
 40
1
 10
-13.4498
 20
6.9023
 30
1.5
 10
-13.389
 20
6.81287
 30
1.5
 10
-13.3794
 20
6.66205
 30
1.5
 10
-13.4289
 20
6.56601
 30
1.5
  0
SPLINE
  5
B42
330
A02
100
AcDbEntity
  8
Body
100
AcDbSpline
210
0
220
0
230
1
 70
8
 71
3
 72
8
 73
4
 74
0
 40
0
 40
0
 40
0
 40
0
 40
1
 40
1
 40
1
 40
1
 10
-3.80205
 20
-4.94204
 30
1.5
 10
-3.76051
 20
-4.84229
 30
1.5
 10
-3.80205
 20
-4.71503
 30
1.5
 10
-3.89413
 20
-4.65867
 30
1.5
  0
SPLINE
  5
B43
330
A02
100
AcDbEntity
  8
Body
100
AcDbSpline
210
0
220
0
230
1
 70
8
 71
1
 72
4
 73
2
 74
0
 40
0
 40
0
 40
12.7908
 40
12.7908
 10
-13.4289
 20
6.56601
 30
1.5
 10
-14.7624
 20
3.45557
 30
1.5
  0
SPLINE
  5
B44
330
A02
100
AcDbEntity
  8
Body
100
AcDbSpline
210
0
220
0
230
1
 70
8
 71
1
 72
4
 73
2
 74
0
 40
0
 40
0
 40
31.0035
 40
31.0035
 10
-6.93895
 20
-12.5216
 30
1.5
 10
-3.80205
 20
-4.94204
 30
1.5
  0
SPLINE
  5
B45
330
A02
100
AcDbEntity
  8
Body
100
AcDbSpline
210
0
220
0
230
1
 70
8
 71
3
 72
8
 73
4
 74
0
 40
0
 40
0
 40
0
 40
0
 40
1
 40
1
 40
1
 40
1
 10
-14.7624
 20
3.45557
 30
1.5
 10
-14.7979
 20
3.35344
 30
1.5
 10
-14.9135
 20
3.25396
 30
1.5
 10
-15.0199
 20
3.23411
 30
1.5
  0
SPLINE
  5
B46
330
A02
100
AcDbEntity
  8
Body
100
AcDbSpline
210
0
220
0
230
1
 70
8
 71
3
 72
8
 73
4
 74
0
 40
0
 40
0
 40
0
 40
0
 40
1
 40
1
 40
1
 40
1
 10
-7.18899
 20
-12.6136
 30
1.5
 10
-7.09268
 20
-12.6628
 30
1.5
 10
-6.98023
 20
-12.6213
 30
1.5
 10
-6.93895
 20
-12.5216
 30
1.5
  0
SPLINE
  5
B47
330
A02
100
AcDbEntity
  8
Body
100
AcDbSpline
210
0
220
0
230
1
 70
8
 71
1
 72
4
 73
2
 74
0
 40
0
 40
0
 40
16.7198
 40
16.7198
 10
-15.0199
 20
3.23411
 30
1.5
 10
-19.3691
 20
2.42528
 30
1.5
  0
SPLINE
  5
B48
330
A02
100
AcDbEntity
  8
Body
100
AcDbSpline
210
0
220
0
230
1
 70
8
 71
1
 72
4
 73
2
 74
0
 40
0
 40
0
 40
6.51824
 40
6.51824
 10
-8.71034
 20
-11.8014
 30
1.5
 10
-7.18899
 20
-12.6136
 30
1.5
  0
SPLINE
  5
B49
330
A02
100
AcDbEntity
  8
Body
100
AcDbSpline
210
0
220
0
230
1
 70
8
 71
3
 72
8
 73
4
 74
0
 40
0
 40
0
 40
0
 40
0
 40
1
 40
1
 40
1
 40
1
 10
-19.3691
 20
2.42528
 30
1.5
 10
-19.4754
 20
2.40517
 30
1.5
 10
-19.562
 20
2.30093
 30
1.5
 10
-19.562
 20
2.19298
 30
1.5
  0
SPLINE
  5
B4A
330
A02
100
AcDbEntity
  8
Body
100
AcDbSpline
210
0
220
0
230
1
 70
8
 71
3
 72
8
 73
4
 74
0
 40
0
 40
0
 40
0
 40
0
 40
1
 40
1
 40
1
 40
1
 10
-9.04107
 20
-11.8127
 30
1.5
 10
-8.95217
 20
-11.7519
 30
1.5
 10
-8.80321
 20
-11.7471
 30
1.5
 10
-8.71034
 20
-11.8014
 30
1.5
  0
SPLINE
  5
B4B
330
A02
100
AcDbEntity
  8
Body
100
AcDbSpline
210
0
220
0
230
1
 70
8
 71
1
 72
4
 73
2
 74
0
 40
0
 40
0
 40
16.919
 40
16.919
 10
-19.562
 20
2.19298
 30
1.5
 10
-19.5617
 20
-2.28351
 30
1.5
  0
SPLINE
  5
B4C
330
A02
100
AcDbEntity
  8
Body
100
AcDbSpline
210
0
220
0
230
1
 70
8
 71
1
 72
4
 73
2
 74
0
 40
0
 40
0
 40
15.8137
 40
15.8137
 10
-12.4907
 20
-14.1805
 30
1.5
 10
-9.04107
 20
-11.8127
 30
1.5
  0
SPLINE
  5
B4D
330
A02
100
AcDbEntity
  8
Body
100
AcDbSpline
210
0
220
0
230
1
 70
8
 71
3
 72
8
 73
4
 74
0
 40
0
 40
0
 40
0
 40
0
 40
1
 40
1
 40
1
 40
1
 10
-19.5617
 20
-2.28351
 30
1.5
 10
-19.5617
 20
-2.39146
 30
1.5
 10
-19.4749
 20
-2.4965
 30
1.5
 10
-19.3688
 20
-2.51581
 30
1.5
  0
SPLINE
  5
B4E
330
A02
100
AcDbEntity
  8
Body
100
AcDbSpline
210
0
220
0
230
1
 70
8
 71
3
 72
8
 73
4
 74
0
 40
0
 40
0
 40
0
 40
0
 40
1
 40
1
 40
1
 40
1
 10
-12.7913
 20
-14.1527
 30
1.5
 10
-12.7151
 20
-14.2287
 30
1.5
 10
-12.5799
 20
-14.2411
 30
1.5
 10
-12.4907
 20
-14.1805
 30
1.5
  0
SPLINE
  5
B4F
330
A02
100
AcDbEntity
  8
Body
100
AcDbSpline
210
0
220
0
230
1
 70
8
 71
1
 72
4
 73
2
 74
0
 40
0
 40
0
 40
16.3103
 40
16.3103
 10
-19.3688
 20
-2.51581
 30
1.5
 10
-15.1262
 20
-3.30533
 30
1.5
  0
SPLINE
  5
B50
330
A02
100
AcDbEntity
  8
Body
100
AcDbSpline
210
0
220
0
230
1
 70
8
 71
1
 72
4
 73
2
 74
0
 40
0
 40
0
 40
16.9197
 40
16.9197
 10
-15.957
 20
-10.9875
 30
1.5
 10
-12.7913
 20
-14.1527
 30
1.5
  0
SPLINE
  5
B51
330
A02
100
AcDbEntity
  8
Body
100
AcDbSpline
210
0
220
0
230
1
 70
8
 71
3
 72
8
 73
4
 74
0
 40
0
 40
0
 40
0
 40
0
 40
1
 40
1
 40
1
 40
1
 10
-15.1262
 20
-3.30533
 30
1.5
 10
-15.0201
 20
-3.32464
 30
1.5
 10
-14.9066
 20
-3.42545
 30
1.5
 10
-14.8743
 20
-3.52837
 30
1.5
  0
SPLINE
  5
B52
330
A02
100
AcDbEntity
  8
Body
100
AcDbSpline
210
0
220
0
230
1
 70
8
 71
3
 72
8
 73
4
 74
0
 40
0
 40
0
 40
0
 40
0
 40
1
 40
1
 40
1
 40
1
 10
-15.9848
 20
-10.6867
 30
1.5
 10
-16.0456
 20
-10.7756
 30
1.5
 10
-16.0332
 20
-10.911
 30
1.5
 10
-15.957
 20
-10.9875
 30
1.5
  0
SPLINE
  5
B53
330
A02
100
AcDbEntity
  8
Body
100
AcDbSpline
210
0
220
0
230
1
 70
8
 71
1
 72
4
 73
2
 74
0
 40
0
 40
0
 40
13.4698
 40
13.4698
 10
-14.8743
 20
-3.52837
 30
1.5
 10
-13.5498
 20
-6.83699
 30
1.5
  0
SPLINE
  5
B54
330
A02
100
AcDbEntity
  8
Body
100
AcDbSpline
210
0
220
0
230
1
 70
8
 71
1
 72
4
 73
2
 74
0
 40
0
 40
0
 40
16.0975
 40
16.0975
 10
-13.575
 20
-7.17486
 30
1.5
 10
-15.9848
 20
-10.6867
 30
1.5
  0
SPLINE
  5
B55
330
A02
100
AcDbEntity
  8
Body
100
AcDbSpline
210
0
220
0
230
1
 70
8
 71
3
 72
8
 73
4
 74
0
 40
0
 40
0
 40
0
 40
0
 40
1
 40
1
 40
1
 40
1
 10
-13.5498
 20
-6.83699
 30
1.5
 10
-13.5025
 20
-6.93409
 30
1.5
 10
-13.5136
 20
-7.08596
 30
1.5
 10
-13.575
 20
-7.17486
 30
1.5
  0
CIRCLE
  5
B56
330
A02
100
AcDbEntity
  8
Body
100
AcDbCircle
 10
35
 20
17
 40
5
  0
LINE
  5
B57
330
A02
100
AcDbEntity
  8
Body
100
AcDbLine
 10
28
 20
34
 30
1.5
 11
28
 21
48
 31
1.5
  0
LINE
  5
B58
330
A02
100
AcDbEntity
  8
Body
100
AcDbLine
 10
42
 20
34
 30
1.5
 11
28
 21
34
 31
1.5
  0
LINE
  5
B59
330
A02
100
AcDbEntity
  8
Body
100
AcDbLine
 10
28
 20
48
 30
1.5
 11
42
 21
48
 31
1.5
  0
LINE
  5
B5A
330
A02
100
AcDbEntity
  8
Body
100
AcDbLine
 10
42
 20
48
 30
1.5
 11
42
 21
34
 31
1.5
  0
LINE
  5
B5B
330
A02
100
AcDbEntity
  8
Body
100
AcDbLine
 10
-10
 20
40
 30
1.5
 11
-5
 21
35
 31
1.5
  0
LINE
  5
B5C
330
A02
100
AcDbEntity
  8
Body
100
AcDbLine
 10
-5
 20
35
 30
1.5
 11
10
 21
35
 31
1.5
  0
LINE
  5
B5D
330
A02
100
AcDbEntity
  8
Body
100
AcDbLine
 10
10
 20
35
 30
1.5
 11
10
 21
55
 31
1.5
  0
LINE
  5
B5E
330
A02
100
AcDbEntity
  8
Body
100
AcDbLine
 10
10
 20
55
 30
1.5
 11
5
 21
60
 31
1.5
  0
LINE
  5
B5F
330
A02
100
AcDbEntity
  8
Body
100
AcDbLine
 10
5
 20
60
 30
1.5
 11
5
 21
40
 31
1.5
  0
LINE
  5
B60
330
A02
100
AcDbEntity
  8
Body
100
AcDbLine
 10
5
 20
40
 30
1.5
 11
-10
 21
40
 31
1.5
  0
LINE
  5
B61
330
A02
100
AcDbEntity
  8
Body
100
AcDbLine
 10
28
 20
54
 30
1.5
 11
28
 21
68
 31
1.5
  0
LINE
  5
B62
330
A02
100
AcDbEntity
  8
Body
100
AcDbLine
 10
42
 20
54
 30
1.5
 11
28
 21
54
 31
1.5
  0
LINE
  5
B63
330
A02
100
AcDbEntity
  8
Body
100
AcDbLine
 10
28
 20
68
 30
1.5
 11
42
 21
68
 31
1.5
  0
LINE
  5
B64
330
A02
100
AcDbEntity
  8
Body
100
AcDbLine
 10
42
 20
68
 30
1.5
 11
42
 21
54
 31
1.5
  0
CIRCLE
  5
B65
330
A02
100
AcDbEntity
  8
Body
100
AcDbCircle
 10
35
 20
85
 40
5
  0
LINE
  5
B66
330
A02
100
AcDbEntity
  8
Body
100
AcDbLine
 10
50
 20
-100
 30
0
 11
50
 21
-100
 31
1.5
  0
LINE
  5
B67
330
A02
100
AcDbEntity
  8
Body
100
AcDbLine
 10
-50
 20
-100
 30
0
 11
-50
 21
-100
 31
1.5
  0
LINE
  5
B68
330
A02
100
AcDbEntity
  8
Body
100
AcDbLine
 10
50
 20
-100
 30
0
 11
-50
 21
-100
 31
0
  0
LINE
  5
B69
330
A02
100
AcDbEntity
  8
Body
100
AcDbLine
 10
50
 20
-100
 30
1.5
 11
-50
 21
-100
 31
1.5
  0
LINE
  5
B6A
330
A02
100
AcDbEntity
  8
Body
100
AcDbLine
 10
-40
 20
-90
 30
1.5
 11
-40
 21
-90
 31
0
  0
LINE
  5
B6B
330
A02
100
AcDbEntity
  8
Body
100
AcDbLine
 10
-40
 20
-76
 30
1.5
 11
-40
 21
-76
 31
0
  0
LINE
  5
B6C
330
A02
100
AcDbEntity
  8
Body
100
AcDbLine
 10
-40
 20
-90
 30
1.5
 11
-40
 21
-76
 31
1.5
  0
LINE
  5
B6D
330
A02
100
AcDbEntity
  8
Body
100
AcDbLine
 10
-40
 20
-90
 30
0
 11
-40
 21
-76
 31
0
  0
LINE
  5
B6E
330
A02
100
AcDbEntity
  8
Body
100
AcDbLine
 10
-26
 20
-90
 30
1.5
 11
-26
 21
-90
 31
0
  0
LINE
  5
B6F
330
A02
100
AcDbEntity
  8
Body
100
AcDbLine
 10
-40
 20
-90
 30
1.5
 11
-40
 21
-90
 31
0
  0
LINE
  5
B70
330
A02
100
AcDbEntity
  8
Body
100
AcDbLine
 10
-26
 20
-90
 30
1.5
 11
-40
 21
-90
 31
1.5
  0
LINE
  5
B71
330
A02
100
AcDbEntity
  8
Body
100
AcDbLine
 10
-26
 20
-90
 30
0
 11
-40
 21
-90
 31
0
  0
LINE
  5
B72
330
A02
100
AcDbEntity
  8
Body
100
AcDbLine
 10
-40
 20
-76
 30
1.5
 11
-40
 21
-76
 31
0
  0
LINE
  5
B73
330
A02
100
AcDbEntity
  8
Body
100
AcDbLine
 10
-26
 20
-76
 30
1.5
 11
-26
 21
-76
 31
0
  0
LINE
  5
B74
330
A02
100
AcDbEntity
  8
Body
100
AcDbLine
 10
-40
 20
-76
 30
1.5
 11
-26
 21
-76
 31
1.5
  0
LINE
  5
B75
330
A02
100
AcDbEntity
  8
Body
100
AcDbLine
 10
-40
 20
-76
 30
0
 11
-26
 21
-76
 31
0
  0
LINE
  5
B76
330
A02
100
AcDbEntity
  8
Body
100
AcDbLine
 10
-26
 20
-76
 30
1.5
 11
-26
 21
-76
 31
0
  0
LINE
  5
B77
330
A02
100
AcDbEntity
  8
Body
100
AcDbLine
 10
-26
 20
-90
 30
1.5
 11
-26
 21
-90
 31
0
  0
LINE
  5
B78
330
A02
100
AcDbEntity
  8
Body
100
AcDbLine
 10
-26
 20
-76
 30
1.5
 11
-26
 21
-90
 31
1.5
  0
LINE
  5
B79
330
A02
100
AcDbEntity
  8
Body
100
AcDbLine
 10
-26
 20
-76
 30
0
 11
-26
 21
-90
 31
0
  0
LINE
  5
B7A
330
A02
100
AcDbEntity
  8
Body
100
AcDbLine
 10
-31.5
 20
-60
 30
1.5
 11
-31.5
 21
-60
 31
0
  0
LINE
  5
B7B
330
A02
100
AcDbEntity
  8
Body
100
AcDbLine
 10
-31.5
 20
-60
 30
1.5
 11
-31.5
 21
-60
 31
0
  0
CIRCLE
  5
B7C
330
A02
100
AcDbEntity
  8
Body
100
AcDbCircle
 10
-33
 20
-60
 40
1.5
  0
CIRCLE
  5
B7D
330
A02
100
AcDbEntity
  8
Body
100
AcDbCircle
 10
-33
 20
-60
 40
1.5
  0
LINE
  5
B7E
330
A02
100
AcDbEntity
  8
Body
100
AcDbLine
 10
19
 20
-76
 30
1.5
 11
19
 21
-76
 31
0
  0
LINE
  5
B7F
330
A02
100
AcDbEntity
  8
Body
100
AcDbLine
 10
5
 20
-76
 30
1.5
 11
5
 21
-76
 31
0
  0
LINE
  5
B80
330
A02
100
AcDbEntity
  8
Body
100
AcDbLine
 10
19
 20
-76
 30
1.5
 11
5
 21
-76
 31
1.5
  0
LINE
  5
B81
330
A02
100
AcDbEntity
  8
Body
100
AcDbLine
 10
19
 20
-76
 30
0
 11
5
 21
-76
 31
0
  0
LINE
  5
B82
330
A02
100
AcDbEntity
  8
Body
100
AcDbLine
 10
19
 20
-90
 30
1.5
 11
19
 21
-90
 31
0
  0
LINE
  5
B83
330
A02
100
AcDbEntity
  8
Body
100
AcDbLine
 10
19
 20
-76
 30
1.5
 11
19
 21
-76
 31
0
  0
LINE
  5
B84
330
A02
100
AcDbEntity
  8
Body
100
AcDbLine
 10
19
 20
-90
 30
1.5
 11
19
 21
-76
 31
1.5
  0
LINE
  5
B85
330
A02
100
AcDbEntity
  8
Body
100
AcDbLine
 10
19
 20
-90
 30
0
 11
19
 21
-76
 31
0
  0
LINE
  5
B86
330
A02
100
AcDbEntity
  8
Body
100
AcDbLine
 10
5
 20
-76
 30
1.5
 11
5
 21
-76
 31
0
  0
LINE
  5
B87
330
A02
100
AcDbEntity
  8
Body
100
AcDbLine
 10
5
 20
-90
 30
1.5
 11
5
 21
-90
 31
0
  0
LINE
  5
B88
330
A02
100
AcDbEntity
  8
Body
100
AcDbLine
 10
5
 20
-76
 30
1.5
 11
5
 21
-90
 31
1.5
  0
LINE
  5
B89
330
A02
100
AcDbEntity
  8
Body
100
AcDbLine
 10
5
 20
-76
 30
0
 11
5
 21
-90
 31
0
  0
LINE
  5
B8A
330
A02
100
AcDbEntity
  8
Body
100
AcDbLine
 10
5
 20
-90
 30
1.5
 11
5
 21
-90
 31
0
  0
LINE
  5
B8B
330
A02
100
AcDbEntity
  8
Body
100
AcDbLine
 10
19
 20
-90
 30
1.5
 11
19
 21
-90
 31
0
  0
LINE
  5
B8C
330
A02
100
AcDbEntity
  8
Body
100
AcDbLine
 10
5
 20
-90
 30
1.5
 11
19
 21
-90
 31
1.5
  0
LINE
  5
B8D
330
A02
100
AcDbEntity
  8
Body
100
AcDbLine
 10
5
 20
-90
 30
0
 11
19
 21
-90
 31
0
  0
LINE
  5
B8E
330
A02
100
AcDbEntity
  8
Body
100
AcDbLine
 10
19
 20
-56
 30
1.5
 11
19
 21
-56
 31
0
  0
LINE
  5
B8F
330
A02
100
AcDbEntity
  8
Body
100
AcDbLine
 10
5
 20
-56
 30
1.5
 11
5
 21
-56
 31
0
  0
LINE
  5
B90
330
A02
100
AcDbEntity
  8
Body
100
AcDbLine
 10
19
 20
-56
 30
1.5
 11
5
 21
-56
 31
1.5
  0
LINE
  5
B91
330
A02
100
AcDbEntity
  8
Body
100
AcDbLine
 10
19
 20
-56
 30
0
 11
5
 21
-56
 31
0
  0
LINE
  5
B92
330
A02
100
AcDbEntity
  8
Body
100
AcDbLine
 10
19
 20
-70
 30
1.5
 11
19
 21
-70
 31
0
  0
LINE
  5
B93
330
A02
100
AcDbEntity
  8
Body
100
AcDbLine
 10
19
 20
-56
 30
1.5
 11
19
 21
-56
 31
0
  0
LINE
  5
B94
330
A02
100
AcDbEntity
  8
Body
100
AcDbLine
 10
19
 20
-70
 30
1.5
 11
19
 21
-56
 31
1.5
  0
LINE
  5
B95
330
A02
100
AcDbEntity
  8
Body
100
AcDbLine
 10
19
 20
-70
 30
0
 11
19
 21
-56
 31
0
  0
LINE
  5
B96
330
A02
100
AcDbEntity
  8
Body
100
AcDbLine
 10
5
 20
-56
 30
1.5
 11
5
 21
-56
 31
0
  0
LINE
  5
B97
330
A02
100
AcDbEntity
  8
Body
100
AcDbLine
 10
5
 20
-70
 30
1.5
 11
5
 21
-70
 31
0
  0
LINE
  5
B98
330
A02
100
AcDbEntity
  8
Body
100
AcDbLine
 10
5
 20
-56
 30
1.5
 11
5
 21
-70
 31
1.5
  0
LINE
  5
B99
330
A02
100
AcDbEntity
  8
Body
100
AcDbLine
 10
5
 20
-56
 30
0
 11
5
 21
-70
 31
0
  0
LINE
  5
B9A
330
A02
100
AcDbEntity
  8
Body
100
AcDbLine
 10
5
 20
-70
 30
1.5
 11
5
 21
-70
 31
0
  0
LINE
  5
B9B
330
A02
100
AcDbEntity
  8
Body
100
AcDbLine
 10
19
 20
-70
 30
1.5
 11
19
 21
-70
 31
0
  0
LINE
  5
B9C
330
A02
100
AcDbEntity
  8
Body
100
AcDbLine
 10
5
 20
-70
 30
1.5
 11
19
 21
-70
 31
1.5
  0
LINE
  5
B9D
330
A02
100
AcDbEntity
  8
Body
100
AcDbLine
 10
5
 20
-70
 30
0
 11
19
 21
-70
 31
0
  0
LINE
  5
B9E
330
A02
100
AcDbEntity
  8
Body
100
AcDbLine
 10
25
 20
-80
 30
1.5
 11
25
 21
-80
 31
0
  0
LINE
  5
B9F
330
A02
100
AcDbEntity
  8
Body
100
AcDbLine
 10
29.7
 20
-80
 30
1.5
 11
29.7
 21
-80
 31
0
  0
LINE
  5
BA0
330
A02
100
AcDbEntity
  8
Body
100
AcDbLine
 10
25
 20
-80
 30
1.5
 11
29.7
 21
-80
 31
1.5
  0
LINE
  5
BA1
330
A02
100
AcDbEntity
  8
Body
100
AcDbLine
 10
25
 20
-80
 30
0
 11
29.7
 21
-80
 31
0
  0
LINE
  5
BA2
330
A02
100
AcDbEntity
  8
Body
100
AcDbLine
 10
25
 20
-80
 30
1.5
 11
25
 21
-80
 31
0
  0
LINE
  5
BA3
330
A02
100
AcDbEntity
  8
Body
100
AcDbLine
 10
25
 20
-66
 30
1.5
 11
25
 21
-66
 31
0
  0
LINE
  5
BA4
330
A02
100
AcDbEntity
  8
Body
100
AcDbLine
 10
25
 20
-80
 30
1.5
 11
25
 21
-66
 31
1.5
  0
LINE
  5
BA5
330
A02
100
AcDbEntity
  8
Body
100
AcDbLine
 10
25
 20
-80
 30
0
 11
25
 21
-66
 31
0
  0
LINE
  5
BA6
330
A02
100
AcDbEntity
  8
Body
100
AcDbLine
 10
29.7
 20
-80
 30
1.5
 11
29.7
 21
-80
 31
0
  0
LINE
  5
BA7
330
A02
100
AcDbEntity
  8
Body
100
AcDbLine
 10
29.7
 20
-81.525
 30
1.5
 11
29.7
 21
-81.525
 31
0
  0
LINE
  5
BA8
330
A02
100
AcDbEntity
  8
Body
100
AcDbLine
 10
29.7
 20
-80
 30
1.5
 11
29.7
 21
-81.525
 31
1.5
  0
LINE
  5
BA9
330
A02
100
AcDbEntity
  8
Body
100
AcDbLine
 10
29.7
 20
-80
 30
0
 11
29.7
 21
-81.525
 31
0
  0
LINE
  5
BAA
330
A02
100
AcDbEntity
  8
Body
100
AcDbLine
 10
25
 20
-66
 30
1.5
 11
25
 21
-66
 31
0
  0
LINE
  5
BAB
330
A02
100
AcDbEntity
  8
Body
100
AcDbLine
 10
29.7
 20
-66
 30
1.5
 11
29.7
 21
-66
 31
0
  0
LINE
  5
BAC
330
A02
100
AcDbEntity
  8
Body
100
AcDbLine
 10
25
 20
-66
 30
1.5
 11
29.7
 21
-66
 31
1.5
  0
LINE
  5
BAD
330
A02
100
AcDbEntity
  8
Body
100
AcDbLine
 10
25
 20
-66
 30
0
 11
29.7
 21
-66
 31
0
  0
LINE
  5
BAE
330
A02
100
AcDbEntity
  8
Body
100
AcDbLine
 10
29.7
 20
-81.525
 30
1.5
 11
29.7
 21
-81.525
 31
0
  0
LINE
  5
BAF
330
A02
100
AcDbEntity
  8
Body
100
AcDbLine
 10
26.47
 20
-81.525
 30
1.5
 11
26.47
 21
-81.525
 31
0
  0
LINE
  5
BB0
330
A02
100
AcDbEntity
  8
Body
100
AcDbLine
 10
29.7
 20
-81.525
 30
1.5
 11
26.47
 21
-81.525
 31
1.5
  0
LINE
  5
BB1
330
A02
100
AcDbEntity
  8
Body
100
AcDbLine
 10
29.7
 20
-81.525
 30
0
 11
26.47
 21
-81.525
 31
0
  0
LINE
  5
BB2
330
A02
100
AcDbEntity
  8
Body
100
AcDbLine
 10
29.7
 20
-66
 30
1.5
 11
29.7
 21
-66
 31
0
  0
LINE
  5
BB3
330
A02
100
AcDbEntity
  8
Body
100
AcDbLine
 10
29.7
 20
-64.475
 30
1.5
 11
29.7
 21
-64.475
 31
0
  0
LINE
  5
BB4
330
A02
100
AcDbEntity
  8
Body
100
AcDbLine
 10
29.7
 20
-66
 30
1.5
 11
29.7
 21
-64.475
 31
1.5
  0
LINE
  5
BB5
330
A02
100
AcDbEntity
  8
Body
100
AcDbLine
 10
29.7
 20
-66
 30
0
 11
29.7
 21
-64.475
 31
0
  0
LINE
  5
BB6
330
A02
100
AcDbEntity
  8
Body
100
AcDbLine
 10
26.47
 20
-81.525
 30
1.5
 11
26.47
 21
-81.525
 31
0
  0
LINE
  5
BB7
330
A02
100
AcDbEntity
  8
Body
100
AcDbLine
 10
26.47
 20
-88.275
 30
1.5
 11
26.47
 21
-88.275
 31
0
  0
LINE
  5
BB8
330
A02
100
AcDbEntity
  8
Body
100
AcDbLine
 10
26.47
 20
-81.525
 30
1.5
 11
26.47
 21
-88.275
 31
1.5
  0
LINE
  5
BB9
330
A02
100
AcDbEntity
  8
Body
100
AcDbLine
 10
26.47
 20
-81.525
 30
0
 11
26.47
 21
-88.275
 31
0
  0
LINE
  5
BBA
330
A02
100
AcDbEntity
  8
Body
100
AcDbLine
 10
29.7
 20
-64.475
 30
1.5
 11
29.7
 21
-64.475
 31
0
  0
LINE
  5
BBB
330
A02
100
AcDbEntity
  8
Body
100
AcDbLine
 10
26.47
 20
-64.475
 30
1.5
 11
26.47
 21
-64.475
 31
0
  0
LINE
  5
BBC
330
A02
100
AcDbEntity
  8
Body
100
AcDbLine
 10
29.7
 20
-64.475
 30
1.5
 11
26.47
 21
-64.475
 31
1.5
  0
LINE
  5
BBD
330
A02
100
AcDbEntity
  8
Body
100
AcDbLine
 10
29.7
 20
-64.475
 30
0
 11
26.47
 21
-64.475
 31
0
  0
LINE
  5
BBE
330
A02
100
AcDbEntity
  8
Body
100
AcDbLine
 10
26.47
 20
-88.275
 30
1.5
 11
26.47
 21
-88.275
 31
0
  0
LINE
  5
BBF
330
A02
100
AcDbEntity
  8
Body
100
AcDbLine
 10
29.7
 20
-88.275
 30
1.5
 11
29.7
 21
-88.275
 31
0
  0
LINE
  5
BC0
330
A02
100
AcDbEntity
  8
Body
100
AcDbLine
 10
26.47
 20
-88.275
 30
1.5
 11
29.7
 21
-88.275
 31
1.5
  0
LINE
  5
BC1
330
A02
100
AcDbEntity
  8
Body
100
AcDbLine
 10
26.47
 20
-88.275
 30
0
 11
29.7
 21
-88.275
 31
0
  0
LINE
  5
BC2
330
A02
100
AcDbEntity
  8
Body
100
AcDbLine
 10
26.47
 20
-64.475
 30
1.5
 11
26.47
 21
-64.475
 31
0
  0
LINE
  5
BC3
330
A02
100
AcDbEntity
  8
Body
100
AcDbLine
 10
26.47
 20
-57.725
 30
1.5
 11
26.47
 21
-57.725
 31
0
  0
LINE
  5
BC4
330
A02
100
AcDbEntity
  8
Body
100
AcDbLine
 10
26.47
 20
-64.475
 30
1.5
 11
26.47
 21
-57.725
 31
1.5
  0
LINE
  5
BC5
330
A02
100
AcDbEntity
  8
Body
100
AcDbLine
 10
26.47
 20
-64.475
 30
0
 11
26.47
 21
-57.725
 31
0
  0
LINE
  5
BC6
330
A02
100
AcDbEntity
  8
Body
100
AcDbLine
 10
29.7
 20
-88.275
 30
1.5
 11
29.7
 21
-88.275
 31
0
  0
LINE
  5
BC7
330
A02
100
AcDbEntity
  8
Body
100
AcDbLine
 10
29.7
 20
-89.1
 30
1.5
 11
29.7
 21
-89.1
 31
0
  0
LINE
  5
BC8
330
A02
100
AcDbEntity
  8
Body
100
AcDbLine
 10
29.7
 20
-88.275
 30
1.5
 11
29.7
 21
-89.1
 31
1.5
  0
LINE
  5
BC9
330
A02
100
AcDbEntity
  8
Body
100
AcDbLine
 10
29.7
 20
-88.275
 30
0
 11
29.7
 21
-89.1
 31
0
  0
LINE
  5
BCA
330
A02
100
AcDbEntity
  8
Body
100
AcDbLine
 10
26.47
 20
-57.725
 30
1.5
 11
26.47
 21
-57.725
 31
0
  0
LINE
  5
BCB
330
A02
100
AcDbEntity
  8
Body
100
AcDbLine
 10
29.7
 20
-57.725
 30
1.5
 11
29.7
 21
-57.725
 31
0
  0
LINE
  5
BCC
330
A02
100
AcDbEntity
  8
Body
100
AcDbLine
 10
26.47
 20
-57.725
 30
1.5
 11
29.7
 21
-57.725
 31
1.5
  0
LINE
  5
BCD
330
A02
100
AcDbEntity
  8
Body
100
AcDbLine
 10
26.47
 20
-57.725
 30
0
 11
29.7
 21
-57.725
 31
0
  0
LINE
  5
BCE
330
A02
100
AcDbEntity
  8
Body
100
AcDbLine
 10
29.7
 20
-89.1
 30
1.5
 11
29.7
 21
-89.1
 31
0
  0
LINE
  5
BCF
330
A02
100
AcDbEntity
  8
Body
100
AcDbLine
 10
32.485
 20
-89.1
 30
1.5
 11
32.485
 21
-89.1
 31
0
  0
LINE
  5
BD0
330
A02
100
AcDbEntity
  8
Body
100
AcDbLine
 10
29.7
 20
-89.1
 30
1.5
 11
32.485
 21
-89.1
 31
1.5
  0
LINE
  5
BD1
330
A02
100
AcDbEntity
  8
Body
100
AcDbLine
 10
29.7
 20
-89.1
 30
0
 11
32.485
 21
-89.1
 31
0
  0
LINE
  5
BD2
330
A02
100
AcDbEntity
  8
Body
100
AcDbLine
 10
29.7
 20
-57.725
 30
1.5
 11
29.7
 21
-57.725
 31
0
  0
LINE
  5
BD3
330
A02
100
AcDbEntity
  8
Body
100
AcDbLine
 10
29.7
 20
-56.9
 30
1.5
 11
29.7
 21
-56.9
 31
0
  0
LINE
  5
BD4
330
A02
100
AcDbEntity
  8
Body
100
AcDbLine
 10
29.7
 20
-57.725
 30
1.5
 11
29.7
 21
-56.9
 31
1.5
  0
LINE
  5
BD5
330
A02
100
AcDbEntity
  8
Body
100
AcDbLine
 10
29.7
 20
-57.725
 30
0
 11
29.7
 21
-56.9
 31
0
  0
LINE
  5
BD6
330
A02
100
AcDbEntity
  8
Body
100
AcDbLine
 10
32.485
 20
-89.1
 30
1.5
 11
32.485
 21
-89.1
 31
0
  0
LINE
  5
BD7
330
A02
100
AcDbEntity
  8
Body
100
AcDbLine
 10
32.485
 20
-88.275
 30
1.5
 11
32.485
 21
-88.275
 31
0
  0
LINE
  5
BD8
330
A02
100
AcDbEntity
  8
Body
100
AcDbLine
 10
32.485
 20
-89.1
 30
1.5
 11
32.485
 21
-88.275
 31
1.5
  0
LINE
  5
BD9
330
A02
100
AcDbEntity
  8
Body
100
AcDbLine
 10
32.485
 20
-89.1
 30
0
 11
32.485
 21
-88.275
 31
0
  0
LINE
  5
BDA
330
A02
100
AcDbEntity
  8
Body
100
AcDbLine
 10
29.7
 20
-56.9
 30
1.5
 11
29.7
 21
-56.9
 31
0
  0
LINE
  5
BDB
330
A02
100
AcDbEntity
  8
Body
100
AcDbLine
 10
32.485
 20
-56.9
 30
1.5
 11
32.485
 21
-56.9
 31
0
  0
LINE
  5
BDC
330
A02
100
AcDbEntity
  8
Body
100
AcDbLine
 10
29.7
 20
-56.9
 30
1.5
 11
32.485
 21
-56.9
 31
1.5
  0
LINE
  5
BDD
330
A02
100
AcDbEntity
  8
Body
100
AcDbLine
 10
29.7
 20
-56.9
 30
0
 11
32.485
 21
-56.9
 31
0
  0
LINE
  5
BDE
330
A02
100
AcDbEntity
  8
Body
100
AcDbLine
 10
32.485
 20
-88.275
 30
1.5
 11
32.485
 21
-88.275
 31
0
  0
LINE
  5
BDF
330
A02
100
AcDbEntity
  8
Body
100
AcDbLine
 10
38.77
 20
-88.275
 30
1.5
 11
38.77
 21
-88.275
 31
0
  0
LINE
  5
BE0
330
A02
100
AcDbEntity
  8
Body
100
AcDbLine
 10
32.485
 20
-88.275
 30
1.5
 11
38.77
 21
-88.275
 31
1.5
  0
LINE
  5
BE1
330
A02
100
AcDbEntity
  8
Body
100
AcDbLine
 10
32.485
 20
-88.275
 30
0
 11
38.77
 21
-88.275
 31
0
  0
LINE
  5
BE2
330
A02
100
AcDbEntity
  8
Body
100
AcDbLine
 10
32.485
 20
-56.9
 30
1.5
 11
32.485
 21
-56.9
 31
0
  0
LINE
  5
BE3
330
A02
100
AcDbEntity
  8
Body
100
AcDbLine
 10
32.485
 20
-57.725
 30
1.5
 11
32.485
 21
-57.725
 31
0
  0
LINE
  5
BE4
330
A02
100
AcDbEntity
  8
Body
100
AcDbLine
 10
32.485
 20
-56.9
 30
1.5
 11
32.485
 21
-57.725
 31
1.5
  0
LINE
  5
BE5
330
A02
100
AcDbEntity
  8
Body
100
AcDbLine
 10
32.485
 20
-56.9
 30
0
 11
32.485
 21
-57.725
 31
0
  0
LINE
  5
BE6
330
A02
100
AcDbEntity
  8
Body
100
AcDbLine
 10
38.77
 20
-88.275
 30
1.5
 11
38.77
 21
-88.275
 31
0
  0
LINE
  5
BE7
330
A02
100
AcDbEntity
  8
Body
100
AcDbLine
 10
38.77
 20
-86.55
 30
1.5
 11
38.77
 21
-86.55
 31
0
  0
LINE
  5
BE8
330
A02
100
AcDbEntity
  8
Body
100
AcDbLine
 10
38.77
 20
-88.275
 30
1.5
 11
38.77
 21
-86.55
 31
1.5
  0
LINE
  5
BE9
330
A02
100
AcDbEntity
  8
Body
100
AcDbLine
 10
38.77
 20
-88.275
 30
0
 11
38.77
 21
-86.55
 31
0
  0
LINE
  5
BEA
330
A02
100
AcDbEntity
  8
Body
100
AcDbLine
 10
32.485
 20
-57.725
 30
1.5
 11
32.485
 21
-57.725
 31
0
  0
LINE
  5
BEB
330
A02
100
AcDbEntity
  8
Body
100
AcDbLine
 10
38.77
 20
-57.725
 30
1.5
 11
38.77
 21
-57.725
 31
0
  0
LINE
  5
BEC
330
A02
100
AcDbEntity
  8
Body
100
AcDbLine
 10
32.485
 20
-57.725
 30
1.5
 11
38.77
 21
-57.725
 31
1.5
  0
LINE
  5
BED
330
A02
100
AcDbEntity
  8
Body
100
AcDbLine
 10
32.485
 20
-57.725
 30
0
 11
38.77
 21
-57.725
 31
0
  0
LINE
  5
BEE
330
A02
100
AcDbEntity
  8
Body
100
AcDbLine
 10
38.77
 20
-86.55
 30
1.5
 11
38.77
 21
-86.55
 31
0
  0
LINE
  5
BEF
330
A02
100
AcDbEntity
  8
Body
100
AcDbLine
 10
40.495
 20
-86.55
 30
1.5
 11
40.495
 21
-86.55
 31
0
  0
LINE
  5
BF0
330
A02
100
AcDbEntity
  8
Body
100
AcDbLine
 10
38.77
 20
-86.55
 30
1.5
 11
40.495
 21
-86.55
 31
1.5
  0
LINE
  5
BF1
330
A02
100
AcDbEntity
  8
Body
100
AcDbLine
 10
38.77
 20
-86.55
 30
0
 11
40.495
 21
-86.55
 31
0
  0
LINE
  5
BF2
330
A02
100
AcDbEntity
  8
Body
100
AcDbLine
 10
38.77
 20
-57.725
 30
1.5
 11
38.77
 21
-57.725
 31
0
  0
LINE
  5
BF3
330
A02
100
AcDbEntity
  8
Body
100
AcDbLine
 10
38.77
 20
-59.45
 30
1.5
 11
38.77
 21
-59.45
 31
0
  0
LINE
  5
BF4
330
A02
100
AcDbEntity
  8
Body
100
AcDbLine
 10
38.77
 20
-57.725
 30
1.5
 11
38.77
 21
-59.45
 31
1.5
  0
LINE
  5
BF5
330
A02
100
AcDbEntity
  8
Body
100
AcDbLine
 10
38.77
 20
-57.725
 30
0
 11
38.77
 21
-59.45
 31
0
  0
LINE
  5
BF6
330
A02
100
AcDbEntity
  8
Body
100
AcDbLine
 10
40.495
 20
-86.55
 30
1.5
 11
40.495
 21
-86.55
 31
0
  0
LINE
  5
BF7
330
A02
100
AcDbEntity
  8
Body
100
AcDbLine
 10
40.495
 20
-83.25
 30
1.5
 11
40.495
 21
-83.25
 31
0
  0
LINE
  5
BF8
330
A02
100
AcDbEntity
  8
Body
100
AcDbLine
 10
40.495
 20
-86.55
 30
1.5
 11
40.495
 21
-83.25
 31
1.5
  0
LINE
  5
BF9
330
A02
100
AcDbEntity
  8
Body
100
AcDbLine
 10
40.495
 20
-86.55
 30
0
 11
40.495
 21
-83.25
 31
0
  0
LINE
  5
BFA
330
A02
100
AcDbEntity
  8
Body
100
AcDbLine
 10
38.77
 20
-59.45
 30
1.5
 11
38.77
 21
-59.45
 31
0
  0
LINE
  5
BFB
330
A02
100
AcDbEntity
  8
Body
100
AcDbLine
 10
40.495
 20
-59.45
 30
1.5
 11
40.495
 21
-59.45
 31
0
  0
LINE
  5
BFC
330
A02
100
AcDbEntity
  8
Body
100
AcDbLine
 10
38.77
 20
-59.45
 30
1.5
 11
40.495
 21
-59.45
 31
1.5
  0
LINE
  5
BFD
330
A02
100
AcDbEntity
  8
Body
100
AcDbLine
 10
38.77
 20
-59.45
 30
0
 11
40.495
 21
-59.45
 31
0
  0
LINE
  5
BFE
330
A02
100
AcDbEntity
  8
Body
100
AcDbLine
 10
40.495
 20
-83.25
 30
1.5
 11
40.495
 21
-83.25
 31
0
  0
LINE
  5
BFF
330
A02
100
AcDbEntity
  8
Body
100
AcDbLine
 10
38.77
 20
-83.25
 30
1.5
 11
38.77
 21
-83.25
 31
0
  0
LINE
  5
C00
330
A02
100
AcDbEntity
  8
Body
100
AcDbLine
 10
40.495
 20
-83.25
 30
1.5
 11
38.77
 21
-83.25
 31
1.5
  0
LINE
  5
C01
330
A02
100
AcDbEntity
  8
Body
100
AcDbLine
 10
40.495
 20
-83.25
 30
0
 11
38.77
 21
-83.25
 31
0
  0
LINE
  5
C02
330
A02
100
AcDbEntity
  8
Body
100
AcDbLine
 10
40.495
 20
-59.45
 30
1.5
 11
40.495
 21
-59.45
 31
0
  0
LINE
  5
C03
330
A02
100
AcDbEntity
  8
Body
100
AcDbLine
 10
40.495
 20
-62.75
 30
1.5
 11
40.495
 21
-62.75
 31
0
  0
LINE
  5
C04
330
A02
100
AcDbEntity
  8
Body
100
AcDbLine
 10
40.495
 20
-59.45
 30
1.5
 11
40.495
 21
-62.75
 31
1.5
  0
LINE
  5
C05
330
A02
100
AcDbEntity
  8
Body
100
AcDbLine
 10
40.495
 20
-59.45
 30
0
 11
40.495
 21
-62.75
 31
0
  0
LINE
  5
C06
330
A02
100
AcDbEntity
  8
Body
100
AcDbLine
 10
38.77
 20
-83.25
 30
1.5
 11
38.77
 21
-83.25
 31
0
  0
LINE
  5
C07
330
A02
100
AcDbEntity
  8
Body
100
AcDbLine
 10
38.77
 20
-81.525
 30
1.5
 11
38.77
 21
-81.525
 31
0
  0
LINE
  5
C08
330
A02
100
AcDbEntity
  8
Body
100
AcDbLine
 10
38.77
 20
-83.25
 30
1.5
 11
38.77
 21
-81.525
 31
1.5
  0
LINE
  5
C09
330
A02
100
AcDbEntity
  8
Body
100
AcDbLine
 10
38.77
 20
-83.25
 30
0
 11
38.77
 21
-81.525
 31
0
  0
LINE
  5
C0A
330
A02
100
AcDbEntity
  8
Body
100
AcDbLine
 10
40.495
 20
-62.75
 30
1.5
 11
40.495
 21
-62.75
 31
0
  0
LINE
  5
C0B
330
A02
100
AcDbEntity
  8
Body
100
AcDbLine
 10
38.77
 20
-62.75
 30
1.5
 11
38.77
 21
-62.75
 31
0
  0
LINE
  5
C0C
330
A02
100
AcDbEntity
  8
Body
100
AcDbLine
 10
40.495
 20
-62.75
 30
1.5
 11
38.77
 21
-62.75
 31
1.5
  0
LINE
  5
C0D
330
A02
100
AcDbEntity
  8
Body
100
AcDbLine
 10
40.495
 20
-62.75
 30
0
 11
38.77
 21
-62.75
 31
0
  0
LINE
  5
C0E
330
A02
100
AcDbEntity
  8
Body
100
AcDbLine
 10
38.77
 20
-81.525
 30
1.5
 11
38.77
 21
-81.525
 31
0
  0
LINE
  5
C0F
330
A02
100
AcDbEntity
  8
Body
100
AcDbLine
 10
34.07
 20
-81.525
 30
1.5
 11
34.07
 21
-81.525
 31
0
  0
LINE
  5
C10
330
A02
100
AcDbEntity
  8
Body
100
AcDbLine
 10
38.77
 20
-81.525
 30
1.5
 11
34.07
 21
-81.525
 31
1.5
  0
LINE
  5
C11
330
A02
100
AcDbEntity
  8
Body
100
AcDbLine
 10
38.77
 20
-81.525
 30
0
 11
34.07
 21
-81.525
 31
0
  0
LINE
  5
C12
330
A02
100
AcDbEntity
  8
Body
100
AcDbLine
 10
38.77
 20
-62.75
 30
1.5
 11
38.77
 21
-62.75
 31
0
  0
LINE
  5
C13
330
A02
100
AcDbEntity
  8
Body
100
AcDbLine
 10
38.77
 20
-64.475
 30
1.5
 11
38.77
 21
-64.475
 31
0
  0
LINE
  5
C14
330
A02
100
AcDbEntity
  8
Body
100
AcDbLine
 10
38.77
 20
-62.75
 30
1.5
 11
38.77
 21
-64.475
 31
1.5
  0
LINE
  5
C15
330
A02
100
AcDbEntity
  8
Body
100
AcDbLine
 10
38.77
 20
-62.75
 30
0
 11
38.77
 21
-64.475
 31
0
  0
LINE
  5
C16
330
A02
100
AcDbEntity
  8
Body
100
AcDbLine
 10
34.07
 20
-81.525
 30
1.5
 11
34.07
 21
-81.525
 31
0
  0
LINE
  5
C17
330
A02
100
AcDbEntity
  8
Body
100
AcDbLine
 10
34.07
 20
-80
 30
1.5
 11
34.07
 21
-80
 31
0
  0
LINE
  5
C18
330
A02
100
AcDbEntity
  8
Body
100
AcDbLine
 10
34.07
 20
-81.525
 30
1.5
 11
34.07
 21
-80
 31
1.5
  0
LINE
  5
C19
330
A02
100
AcDbEntity
  8
Body
100
AcDbLine
 10
34.07
 20
-81.525
 30
0
 11
34.07
 21
-80
 31
0
  0
LINE
  5
C1A
330
A02
100
AcDbEntity
  8
Body
100
AcDbLine
 10
38.77
 20
-64.475
 30
1.5
 11
38.77
 21
-64.475
 31
0
  0
LINE
  5
C1B
330
A02
100
AcDbEntity
  8
Body
100
AcDbLine
 10
34.07
 20
-64.475
 30
1.5
 11
34.07
 21
-64.475
 31
0
  0
LINE
  5
C1C
330
A02
100
AcDbEntity
  8
Body
100
AcDbLine
 10
38.77
 20
-64.475
 30
1.5
 11
34.07
 21
-64.475
 31
1.5
  0
LINE
  5
C1D
330
A02
100
AcDbEntity
  8
Body
100
AcDbLine
 10
38.77
 20
-64.475
 30
0
 11
34.07
 21
-64.475
 31
0
  0
LINE
  5
C1E
330
A02
100
AcDbEntity
  8
Body
100
AcDbLine
 10
34.07
 20
-80
 30
1.5
 11
34.07
 21
-80
 31
0
  0
LINE
  5
C1F
330
A02
100
AcDbEntity
  8
Body
100
AcDbLine
 10
38.77
 20
-80
 30
1.5
 11
38.77
 21
-80
 31
0
  0
LINE
  5
C20
330
A02
100
AcDbEntity
  8
Body
100
AcDbLine
 10
34.07
 20
-80
 30
1.5
 11
38.77
 21
-80
 31
1.5
  0
LINE
  5
C21
330
A02
100
AcDbEntity
  8
Body
100
AcDbLine
 10
34.07
 20
-80
 30
0
 11
38.77
 21
-80
 31
0
  0
LINE
  5
C22
330
A02
100
AcDbEntity
  8
Body
100
AcDbLine
 10
34.07
 20
-64.475
 30
1.5
 11
34.07
 21
-64.475
 31
0
  0
LINE
  5
C23
330
A02
100
AcDbEntity
  8
Body
100
AcDbLine
 10
34.07
 20
-66
 30
1.5
 11
34.07
 21
-66
 31
0
  0
LINE
  5
C24
330
A02
100
AcDbEntity
  8
Body
100
AcDbLine
 10
34.07
 20
-64.475
 30
1.5
 11
34.07
 21
-66
 31
1.5
  0
LINE
  5
C25
330
A02
100
AcDbEntity
  8
Body
100
AcDbLine
 10
34.07
 20
-64.475
 30
0
 11
34.07
 21
-66
 31
0
  0
LINE
  5
C26
330
A02
100
AcDbEntity
  8
Body
100
AcDbLine
 10
38.77
 20
-66
 30
1.5
 11
38.77
 21
-66
 31
0
  0
LINE
  5
C27
330
A02
100
AcDbEntity
  8
Body
100
AcDbLine
 10
38.77
 20
-80
 30
1.5
 11
38.77
 21
-80
 31
0
  0
LINE
  5
C28
330
A02
100
AcDbEntity
  8
Body
100
AcDbLine
 10
38.77
 20
-66
 30
1.5
 11
38.77
 21
-80
 31
1.5
  0
LINE
  5
C29
330
A02
100
AcDbEntity
  8
Body
100
AcDbLine
 10
38.77
 20
-66
 30
0
 11
38.77
 21
-80
 31
0
  0
LINE
  5
C2A
330
A02
100
AcDbEntity
  8
Body
100
AcDbLine
 10
34.07
 20
-66
 30
1.5
 11
34.07
 21
-66
 31
0
  0
LINE
  5
C2B
330
A02
100
AcDbEntity
  8
Body
100
AcDbLine
 10
38.77
 20
-66
 30
1.5
 11
38.77
 21
-66
 31
0
  0
LINE
  5
C2C
330
A02
100
AcDbEntity
  8
Body
100
AcDbLine
 10
34.07
 20
-66
 30
1.5
 11
38.77
 21
-66
 31
1.5
  0
LINE
  5
C2D
330
A02
100
AcDbEntity
  8
Body
100
AcDbLine
 10
34.07
 20
-66
 30
0
 11
38.77
 21
-66
 31
0
  0
LINE
  5
C2E
330
A02
100
AcDbEntity
  8
Body
100
AcDbLine
 10
19
 20
-36
 30
1.5
 11
19
 21
-36
 31
0
  0
LINE
  5
C2F
330
A02
100
AcDbEntity
  8
Body
100
AcDbLine
 10
5
 20
-36
 30
1.5
 11
5
 21
-36
 31
0
  0
LINE
  5
C30
330
A02
100
AcDbEntity
  8
Body
100
AcDbLine
 10
19
 20
-36
 30
1.5
 11
5
 21
-36
 31
1.5
  0
LINE
  5
C31
330
A02
100
AcDbEntity
  8
Body
100
AcDbLine
 10
19
 20
-36
 30
0
 11
5
 21
-36
 31
0
  0
LINE
  5
C32
330
A02
100
AcDbEntity
  8
Body
100
AcDbLine
 10
19
 20
-50
 30
1.5
 11
19
 21
-50
 31
0
  0
LINE
  5
C33
330
A02
100
AcDbEntity
  8
Body
100
AcDbLine
 10
19
 20
-36
 30
1.5
 11
19
 21
-36
 31
0
  0
LINE
  5
C34
330
A02
100
AcDbEntity
  8
Body
100
AcDbLine
 10
19
 20
-50
 30
1.5
 11
19
 21
-36
 31
1.5
  0
LINE
  5
C35
330
A02
100
AcDbEntity
  8
Body
100
AcDbLine
 10
19
 20
-50
 30
0
 11
19
 21
-36
 31
0
  0
LINE
  5
C36
330
A02
100
AcDbEntity
  8
Body
100
AcDbLine
 10
5
 20
-36
 30
1.5
 11
5
 21
-36
 31
0
  0
LINE
  5
C37
330
A02
100
AcDbEntity
  8
Body
100
AcDbLine
 10
5
 20
-50
 30
1.5
 11
5
 21
-50
 31
0
  0
LINE
  5
C38
330
A02
100
AcDbEntity
  8
Body
100
AcDbLine
 10
5
 20
-36
 30
1.5
 11
5
 21
-50
 31
1.5
  0
LINE
  5
C39
330
A02
100
AcDbEntity
  8
Body
100
AcDbLine
 10
5
 20
-36
 30
0
 11
5
 21
-50
 31
0
  0
LINE
  5
C3A
330
A02
100
AcDbEntity
  8
Body
100
AcDbLine
 10
5
 20
-50
 30
1.5
 11
5
 21
-50
 31
0
  0
LINE
  5
C3B
330
A02
100
AcDbEntity
  8
Body
100
AcDbLine
 10
19
 20
-50
 30
1.5
 11
19
 21
-50
 31
0
  0
LINE
  5
C3C
330
A02
100
AcDbEntity
  8
Body
100
AcDbLine
 10
5
 20
-50
 30
1.5
 11
19
 21
-50
 31
1.5
  0
LINE
  5
C3D
330
A02
100
AcDbEntity
  8
Body
100
AcDbLine
 10
5
 20
-50
 30
0
 11
19
 21
-50
 31
0
  0
LINE
  5
C3E
330
A02
100
AcDbEntity
  8
Body
100
AcDbLine
 10
39
 20
-36
 30
1.5
 11
39
 21
-36
 31
0
  0
LINE
  5
C3F
330
A02
100
AcDbEntity
  8
Body
100
AcDbLine
 10
25
 20
-36
 30
1.5
 11
25
 21
-36
 31
0
  0
LINE
  5
C40
330
A02
100
AcDbEntity
  8
Body
100
AcDbLine
 10
39
 20
-36
 30
1.5
 11
25
 21
-36
 31
1.5
  0
LINE
  5
C41
330
A02
100
AcDbEntity
  8
Body
100
AcDbLine
 10
39
 20
-36
 30
0
 11
25
 21
-36
 31
0
  0
LINE
  5
C42
330
A02
100
AcDbEntity
  8
Body
100
AcDbLine
 10
39
 20
-50
 30
1.5
 11
39
 21
-50
 31
0
  0
LINE
  5
C43
330
A02
100
AcDbEntity
  8
Body
100
AcDbLine
 10
39
 20
-36
 30
1.5
 11
39
 21
-36
 31
0
  0
LINE
  5
C44
330
A02
100
AcDbEntity
  8
Body
100
AcDbLine
 10
39
 20
-50
 30
1.5
 11
39
 21
-36
 31
1.5
  0
LINE
  5
C45
330
A02
100
AcDbEntity
  8
Body
100
AcDbLine
 10
39
 20
-50
 30
0
 11
39
 21
-36
 31
0
  0
LINE
  5
C46
330
A02
100
AcDbEntity
  8
Body
100
AcDbLine
 10
25
 20
-36
 30
1.5
 11
25
 21
-36
 31
0
  0
LINE
  5
C47
330
A02
100
AcDbEntity
  8
Body
100
AcDbLine
 10
25
 20
-50
 30
1.5
 11
25
 21
-50
 31
0
  0
LINE
  5
C48
330
A02
100
AcDbEntity
  8
Body
100
AcDbLine
 10
25
 20
-36
 30
1.5
 11
25
 21
-50
 31
1.5
  0
LINE
  5
C49
330
A02
100
AcDbEntity
  8
Body
100
AcDbLine
 10
25
 20
-36
 30
0
 11
25
 21
-50
 31
0
  0
LINE
  5
C4A
330
A02
100
AcDbEntity
  8
Body
100
AcDbLine
 10
25
 20
-50
 30
1.5
 11
25
 21
-50
 31
0
  0
LINE
  5
C4B
330
A02
100
AcDbEntity
  8
Body
100
AcDbLine
 10
39
 20
-50
 30
1.5
 11
39
 21
-50
 31
0
  0
LINE
  5
C4C
330
A02
100
AcDbEntity
  8
Body
100
AcDbLine
 10
25
 20
-50
 30
1.5
 11
39
 21
-50
 31
1.5
  0
LINE
  5
C4D
330
A02
100
AcDbEntity
  8
Body
100
AcDbLine
 10
25
 20
-50
 30
0
 11
39
 21
-50
 31
0
  0
LINE
  5
C4E
330
A02
100
AcDbEntity
  8
Body
100
AcDbLine
 10
-34
 20
-54
 30
1.5
 11
-34
 21
-54
 31
0
  0
LINE
  5
C4F
330
A02
100
AcDbEntity
  8
Body
100
AcDbLine
 10
-34
 20
54
 30
1.5
 11
-34
 21
54
 31
0
  0
LINE
  5
C50
330
A02
100
AcDbEntity
  8
Body
100
AcDbLine
 10
-34
 20
-54
 30
1.5
 11
-34
 21
54
 31
1.5
  0
LINE
  5
C51
330
A02
100
AcDbEntity
  8
Body
100
AcDbLine
 10
-34
 20
-54
 30
0
 11
-34
 21
54
 31
0
  0
LINE
  5
C52
330
A02
100
AcDbEntity
  8
Body
100
AcDbLine
 10
-32
 20
-54
 30
1.5
 11
-32
 21
-54
 31
0
  0
LINE
  5
C53
330
A02
100
AcDbEntity
  8
Body
100
AcDbLine
 10
-34
 20
-54
 30
1.5
 11
-34
 21
-54
 31
0
  0
LINE
  5
C54
330
A02
100
AcDbEntity
  8
Body
100
AcDbLine
 10
-32
 20
-54
 30
1.5
 11
-34
 21
-54
 31
1.5
  0
LINE
  5
C55
330
A02
100
AcDbEntity
  8
Body
100
AcDbLine
 10
-32
 20
-54
 30
0
 11
-34
 21
-54
 31
0
  0
LINE
  5
C56
330
A02
100
AcDbEntity
  8
Body
100
AcDbLine
 10
-34
 20
54
 30
1.5
 11
-34
 21
54
 31
0
  0
LINE
  5
C57
330
A02
100
AcDbEntity
  8
Body
100
AcDbLine
 10
-32
 20
54
 30
1.5
 11
-32
 21
54
 31
0
  0
LINE
  5
C58
330
A02
100
AcDbEntity
  8
Body
100
AcDbLine
 10
-34
 20
54
 30
1.5
 11
-32
 21
54
 31
1.5
  0
LINE
  5
C59
330
A02
100
AcDbEntity
  8
Body
100
AcDbLine
 10
-34
 20
54
 30
0
 11
-32
 21
54
 31
0
  0
LINE
  5
C5A
330
A02
100
AcDbEntity
  8
Body
100
AcDbLine
 10
-32
 20
54
 30
1.5
 11
-32
 21
54
 31
0
  0
LINE
  5
C5B
330
A02
100
AcDbEntity
  8
Body
100
AcDbLine
 10
-32
 20
-54
 30
1.5
 11
-32
 21
-54
 31
0
  0
LINE
  5
C5C
330
A02
100
AcDbEntity
  8
Body
100
AcDbLine
 10
-32
 20
54
 30
1.5
 11
-32
 21
-54
 31
1.5
  0
LINE
  5
C5D
330
A02
100
AcDbEntity
  8
Body
100
AcDbLine
 10
-32
 20
54
 30
0
 11
-32
 21
-54
 31
0
  0
LINE
  5
C5E
330
A02
100
AcDbEntity
  8
Body
100
AcDbLine
 10
-31.5
 20
60
 30
1.5
 11
-31.5
 21
60
 31
0
  0
LINE
  5
C5F
330
A02
100
AcDbEntity
  8
Body
100
AcDbLine
 10
-31.5
 20
60
 30
1.5
 11
-31.5
 21
60
 31
0
  0
CIRCLE
  5
C60
330
A02
100
AcDbEntity
  8
Body
100
AcDbCircle
 10
-33
 20
60
 40
1.5
  0
CIRCLE
  5
C61
330
A02
100
AcDbEntity
  8
Body
100
AcDbCircle
 10
-33
 20
60
 40
1.5
  0
LINE
  5
C62
330
A02
100
AcDbEntity
  8
Body
100
AcDbLine
 10
-47
 20
75
 30
1.5
 11
-47
 21
75
 31
0
  0
LINE
  5
C63
330
A02
100
AcDbEntity
  8
Body
100
AcDbLine
 10
-47
 20
89
 30
1.5
 11
-47
 21
89
 31
0
  0
LINE
  5
C64
330
A02
100
AcDbEntity
  8
Body
100
AcDbLine
 10
-47
 20
75
 30
1.5
 11
-47
 21
89
 31
1.5
  0
LINE
  5
C65
330
A02
100
AcDbEntity
  8
Body
100
AcDbLine
 10
-47
 20
75
 30
0
 11
-47
 21
89
 31
0
  0
LINE
  5
C66
330
A02
100
AcDbEntity
  8
Body
100
AcDbLine
 10
-19
 20
75
 30
1.5
 11
-19
 21
75
 31
0
  0
LINE
  5
C67
330
A02
100
AcDbEntity
  8
Body
100
AcDbLine
 10
-47
 20
75
 30
1.5
 11
-47
 21
75
 31
0
  0
LINE
  5
C68
330
A02
100
AcDbEntity
  8
Body
100
AcDbLine
 10
-19
 20
75
 30
1.5
 11
-47
 21
75
 31
1.5
  0
LINE
  5
C69
330
A02
100
AcDbEntity
  8
Body
100
AcDbLine
 10
-19
 20
75
 30
0
 11
-47
 21
75
 31
0
  0
LINE
  5
C6A
330
A02
100
AcDbEntity
  8
Body
100
AcDbLine
 10
-47
 20
89
 30
1.5
 11
-47
 21
89
 31
0
  0
LINE
  5
C6B
330
A02
100
AcDbEntity
  8
Body
100
AcDbLine
 10
-19
 20
89
 30
1.5
 11
-19
 21
89
 31
0
  0
LINE
  5
C6C
330
A02
100
AcDbEntity
  8
Body
100
AcDbLine
 10
-47
 20
89
 30
1.5
 11
-19
 21
89
 31
1.5
  0
LINE
  5
C6D
330
A02
100
AcDbEntity
  8
Body
100
AcDbLine
 10
-47
 20
89
 30
0
 11
-19
 21
89
 31
0
  0
LINE
  5
C6E
330
A02
100
AcDbEntity
  8
Body
100
AcDbLine
 10
-19
 20
89
 30
1.5
 11
-19
 21
89
 31
0
  0
LINE
  5
C6F
330
A02
100
AcDbEntity
  8
Body
100
AcDbLine
 10
-19
 20
75
 30
1.5
 11
-19
 21
75
 31
0
  0
LINE
  5
C70
330
A02
100
AcDbEntity
  8
Body
100
AcDbLine
 10
-19
 20
89
 30
1.5
 11
-19
 21
75
 31
1.5
  0
LINE
  5
C71
330
A02
100
AcDbEntity
  8
Body
100
AcDbLine
 10
-19
 20
89
 30
0
 11
-19
 21
75
 31
0
  0
LINE
  5
C72
330
A02
100
AcDbEntity
  8
Body
100
AcDbLine
 10
-20
 20
50
 30
1.5
 11
-20
 21
50
 31
0
  0
LINE
  5
C73
330
A02
100
AcDbEntity
  8
Body
100
AcDbLine
 10
-20
 20
70
 30
1.5
 11
-20
 21
70
 31
0
  0
LINE
  5
C74
330
A02
100
AcDbEntity
  8
Body
100
AcDbLine
 10
-20
 20
50
 30
1.5
 11
-20
 21
70
 31
1.5
  0
LINE
  5
C75
330
A02
100
AcDbEntity
  8
Body
100
AcDbLine
 10
-20
 20
50
 30
0
 11
-20
 21
70
 31
0
  0
LINE
  5
C76
330
A02
100
AcDbEntity
  8
Body
100
AcDbLine
 10
-15
 20
45
 30
1.5
 11
-15
 21
45
 31
0
  0
LINE
  5
C77
330
A02
100
AcDbEntity
  8
Body
100
AcDbLine
 10
-20
 20
50
 30
1.5
 11
-20
 21
50
 31
0
  0
LINE
  5
C78
330
A02
100
AcDbEntity
  8
Body
100
AcDbLine
 10
-15
 20
45
 30
1.5
 11
-20
 21
50
 31
1.5
  0
LINE
  5
C79
330
A02
100
AcDbEntity
  8
Body
100
AcDbLine
 10
-15
 20
45
 30
0
 11
-20
 21
50
 31
0
  0
LINE
  5
C7A
330
A02
100
AcDbEntity
  8
Body
100
AcDbLine
 10
-15
 20
55
 30
1.5
 11
-15
 21
55
 31
0
  0
LINE
  5
C7B
330
A02
100
AcDbEntity
  8
Body
100
AcDbLine
 10
-15
 20
45
 30
1.5
 11
-15
 21
45
 31
0
  0
LINE
  5
C7C
330
A02
100
AcDbEntity
  8
Body
100
AcDbLine
 10
-15
 20
55
 30
1.5
 11
-15
 21
45
 31
1.5
  0
LINE
  5
C7D
330
A02
100
AcDbEntity
  8
Body
100
AcDbLine
 10
-15
 20
55
 30
0
 11
-15
 21
45
 31
0
  0
LINE
  5
C7E
330
A02
100
AcDbEntity
  8
Body
100
AcDbLine
 10
-5
 20
55
 30
1.5
 11
-5
 21
55
 31
0
  0
LINE
  5
C7F
330
A02
100
AcDbEntity
  8
Body
100
AcDbLine
 10
-15
 20
55
 30
1.5
 11
-15
 21
55
 31
0
  0
LINE
  5
C80
330
A02
100
AcDbEntity
  8
Body
100
AcDbLine
 10
-5
 20
55
 30
1.5
 11
-15
 21
55
 31
1.5
  0
LINE
  5
C81
330
A02
100
AcDbEntity
  8
Body
100
AcDbLine
 10
-5
 20
55
 30
0
 11
-15
 21
55
 31
0
  0
LINE
  5
C82
330
A02
100
AcDbEntity
  8
Body
100
AcDbLine
 10
-5
 20
45
 30
1.5
 11
-5
 21
45
 31
0
  0
LINE
  5
C83
330
A02
100
AcDbEntity
  8
Body
100
AcDbLine
 10
-5
 20
55
 30
1.5
 11
-5
 21
55
 31
0
  0
LINE
  5
C84
330
A02
100
AcDbEntity
  8
Body
100
AcDbLine
 10
-5
 20
45
 30
1.5
 11
-5
 21
55
 31
1.5
  0
LINE
  5
C85
330
A02
100
AcDbEntity
  8
Body
100
AcDbLine
 10
-5
 20
45
 30
0
 11
-5
 21
55
 31
0
  0
LINE
  5
C86
330
A02
100
AcDbEntity
  8
Body
100
AcDbLine
 10
2.6e-16
 20
45
 30
1.5
 11
2.6e-16
 21
45
 31
0
  0
LINE
  5
C87
330
A02
100
AcDbEntity
  8
Body
100
AcDbLine
 10
-5
 20
45
 30
1.5
 11
-5
 21
45
 31
0
  0
LINE
  5
C88
330
A02
100
AcDbEntity
  8
Body
100
AcDbLine
 10
2.6e-16
 20
45
 30
1.5
 11
-5
 21
45
 31
1.5
  0
LINE
  5
C89
330
A02
100
AcDbEntity
  8
Body
100
AcDbLine
 10
2.6e-16
 20
45
 30
0
 11
-5
 21
45
 31
0
  0
LINE
  5
C8A
330
A02
100
AcDbEntity
  8
Body
100
AcDbLine
 10
1.3e-16
 20
65
 30
1.5
 11
1.3e-16
 21
65
 31
0
  0
LINE
  5
C8B
330
A02
100
AcDbEntity
  8
Body
100
AcDbLine
 10
2.6e-16
 20
45
 30
1.5
 11
2.6e-16
 21
45
 31
0
  0
LINE
  5
C8C
330
A02
100
AcDbEntity
  8
Body
100
AcDbLine
 10
2.6e-16
 20
65
 30
1.5
 11
2.6e-16
 21
45
 31
1.5
  0
LINE
  5
C8D
330
A02
100
AcDbEntity
  8
Body
100
AcDbLine
 10
2.6e-16
 20
65
 30
0
 11
2.6e-16
 21
45
 31
0
  0
LINE
  5
C8E
330
A02
100
AcDbEntity
  8
Body
100
AcDbLine
 10
-5
 20
70
 30
1.5
 11
-5
 21
70
 31
0
  0
LINE
  5
C8F
330
A02
100
AcDbEntity
  8
Body
100
AcDbLine
 10
1.3e-16
 20
65
 30
1.5
 11
1.3e-16
 21
65
 31
0
  0
LINE
  5
C90
330
A02
100
AcDbEntity
  8
Body
100
AcDbLine
 10
-5
 20
70
 30
1.5
 11
8.88178e-16
 21
65
 31
1.5
  0
LINE
  5
C91
330
A02
100
AcDbEntity
  8
Body
100
AcDbLine
 10
-5
 20
70
 30
0
 11
8.88178e-16
 21
65
 31
0
  0
LINE
  5
C92
330
A02
100
AcDbEntity
  8
Body
100
AcDbLine
 10
-5
 20
60
 30
1.5
 11
-5
 21
60
 31
0
  0
LINE
  5
C93
330
A02
100
AcDbEntity
  8
Body
100
AcDbLine
 10
-5
 20
70
 30
1.5
 11
-5
 21
70
 31
0
  0
LINE
  5
C94
330
A02
100
AcDbEntity
  8
Body
100
AcDbLine
 10
-5
 20
60
 30
1.5
 11
-5
 21
70
 31
1.5
  0
LINE
  5
C95
330
A02
100
AcDbEntity
  8
Body
100
AcDbLine
 10
-5
 20
60
 30
0
 11
-5
 21
70
 31
0
  0
LINE
  5
C96
330
A02
100
AcDbEntity
  8
Body
100
AcDbLine
 10
-15
 20
60
 30
1.5
 11
-15
 21
60
 31
0
  0
LINE
  5
C97
330
A02
100
AcDbEntity
  8
Body
100
AcDbLine
 10
-5
 20
60
 30
1.5
 11
-5
 21
60
 31
0
  0
LINE
  5
C98
330
A02
100
AcDbEntity
  8
Body
100
AcDbLine
 10
-15
 20
60
 30
1.5
 11
-5
 21
60
 31
1.5
  0
LINE
  5
C99
330
A02
100
AcDbEntity
  8
Body
100
AcDbLine
 10
-15
 20
60
 30
0
 11
-5
 21
60
 31
0
  0
LINE
  5
C9A
330
A02
100
AcDbEntity
  8
Body
100
AcDbLine
 10
-15
 20
70
 30
1.5
 11
-15
 21
70
 31
0
  0
LINE
  5
C9B
330
A02
100
AcDbEntity
  8
Body
100
AcDbLine
 10
-15
 20
60
 30
1.5
 11
-15
 21
60
 31
0
  0
LINE
  5
C9C
330
A02
100
AcDbEntity
  8
Body
100
AcDbLine
 10
-15
 20
70
 30
1.5
 11
-15
 21
60
 31
1.5
  0
LINE
  5
C9D
330
A02
100
AcDbEntity
  8
Body
100
AcDbLine
 10
-15
 20
70
 30
0
 11
-15
 21
60
 31
0
  0
LINE
  5
C9E
330
A02
100
AcDbEntity
  8
Body
100
AcDbLine
 10
-20
 20
70
 30
1.5
 11
-20
 21
70
 31
0
  0
LINE
  5
C9F
330
A02
100
AcDbEntity
  8
Body
100
AcDbLine
 10
-15
 20
70
 30
1.5
 11
-15
 21
70
 31
0
  0
LINE
  5
CA0
330
A02
100
AcDbEntity
  8
Body
100
AcDbLine
 10
-20
 20
70
 30
1.5
 11
-15
 21
70
 31
1.5
  0
LINE
  5
CA1
330
A02
100
AcDbEntity
  8
Body
100
AcDbLine
 10
-20
 20
70
 30
0
 11
-15
 21
70
 31
0
  0
LINE
  5
CA2
330
A02
100
AcDbEntity
  8
Body
100
AcDbLine
 10
15.6702
 20
2.42528
 30
1.5
 11
15.6702
 21
2.42528
 31
0
  0
LINE
  5
CA3
330
A02
100
AcDbEntity
  8
Body
100
AcDbLine
 10
11.3207
 20
3.23411
 30
1.5
 11
11.3207
 21
3.23411
 31
0
  0
SPLINE
  5
CA4
330
A02
100
AcDbEntity
  8
Body
100
AcDbSpline
210
0
220
0
230
1
 70
8
 71
1
 72
4
 73
2
 74
0
 40
0
 40
0
 40
16.7208
 40
16.7208
 10
15.6702
 20
2.42528
 30
1.5
 10
11.3207
 20
3.23411
 30
1.5
  0
SPLINE
  5
CA5
330
A02
100
AcDbEntity
  8
Body
100
AcDbSpline
210
0
220
0
230
1
 70
8
 71
1
 72
4
 73
2
 74
0
 40
0
 40
0
 40
16.7208
 40
16.7208
 10
15.6702
 20
2.42528
 30
0
 10
11.3207
 20
3.23411
 30
0
  0
LINE
  5
CA6
330
A02
100
AcDbEntity
  8
Body
100
AcDbLine
 10
15.8626
 20
2.19271
 30
1.5
 11
15.8626
 21
2.19271
 31
0
  0
LINE
  5
CA7
330
A02
100
AcDbEntity
  8
Body
100
AcDbLine
 10
15.6702
 20
2.42528
 30
1.5
 11
15.6702
 21
2.42528
 31
0
  0
SPLINE
  5
CA8
330
A02
100
AcDbEntity
  8
Body
100
AcDbSpline
210
0
220
0
230
1
 70
8
 71
3
 72
8
 73
4
 74
0
 40
0
 40
0
 40
0
 40
0
 40
1
 40
1
 40
1
 40
1
 10
15.8626
 20
2.19271
 30
1.5
 10
15.8628
 20
2.30093
 30
1.5
 10
15.7761
 20
2.40517
 30
1.5
 10
15.6702
 20
2.42528
 30
1.5
  0
SPLINE
  5
CA9
330
A02
100
AcDbEntity
  8
Body
100
AcDbSpline
210
0
220
0
230
1
 70
8
 71
3
 72
8
 73
4
 74
0
 40
0
 40
0
 40
0
 40
0
 40
1
 40
1
 40
1
 40
1
 10
15.8626
 20
2.19271
 30
0
 10
15.8628
 20
2.30093
 30
0
 10
15.7761
 20
2.40517
 30
0
 10
15.6702
 20
2.42528
 30
0
  0
LINE
  5
CAA
330
A02
100
AcDbEntity
  8
Body
100
AcDbLine
 10
11.3207
 20
3.23411
 30
1.5
 11
11.3207
 21
3.23411
 31
0
  0
LINE
  5
CAB
330
A02
100
AcDbEntity
  8
Body
100
AcDbLine
 10
11.0633
 20
3.45557
 30
1.5
 11
11.0633
 21
3.45557
 31
0
  0
SPLINE
  5
CAC
330
A02
100
AcDbEntity
  8
Body
100
AcDbSpline
210
0
220
0
230
1
 70
8
 71
3
 72
8
 73
4
 74
0
 40
0
 40
0
 40
0
 40
0
 40
1
 40
1
 40
1
 40
1
 10
11.3207
 20
3.23411
 30
1.5
 10
11.2149
 20
3.25396
 30
1.5
 10
11.099
 20
3.35344
 30
1.5
 10
11.0633
 20
3.45557
 30
1.5
  0
SPLINE
  5
CAD
330
A02
100
AcDbEntity
  8
Body
100
AcDbSpline
210
0
220
0
230
1
 70
8
 71
3
 72
8
 73
4
 74
0
 40
0
 40
0
 40
0
 40
0
 40
1
 40
1
 40
1
 40
1
 10
11.3207
 20
3.23411
 30
0
 10
11.2149
 20
3.25396
 30
0
 10
11.099
 20
3.35344
 30
0
 10
11.0633
 20
3.45557
 30
0
  0
LINE
  5
CAE
330
A02
100
AcDbEntity
  8
Body
100
AcDbLine
 10
15.862
 20
-2.28377
 30
1.5
 11
15.862
 21
-2.28377
 31
0
  0
LINE
  5
CAF
330
A02
100
AcDbEntity
  8
Body
100
AcDbLine
 10
15.8626
 20
2.19271
 30
1.5
 11
15.8626
 21
2.19271
 31
0
  0
SPLINE
  5
CB0
330
A02
100
AcDbEntity
  8
Body
100
AcDbSpline
210
0
220
0
230
1
 70
8
 71
1
 72
4
 73
2
 74
0
 40
0
 40
0
 40
16.919
 40
16.919
 10
15.862
 20
-2.28377
 30
1.5
 10
15.8626
 20
2.19271
 30
1.5
  0
SPLINE
  5
CB1
330
A02
100
AcDbEntity
  8
Body
100
AcDbSpline
210
0
220
0
230
1
 70
8
 71
1
 72
4
 73
2
 74
0
 40
0
 40
0
 40
16.919
 40
16.919
 10
15.862
 20
-2.28377
 30
0
 10
15.8626
 20
2.19271
 30
0
  0
LINE
  5
CB2
330
A02
100
AcDbEntity
  8
Body
100
AcDbLine
 10
11.0633
 20
3.45557
 30
1.5
 11
11.0633
 21
3.45557
 31
0
  0
LINE
  5
CB3
330
A02
100
AcDbEntity
  8
Body
100
AcDbLine
 10
9.73006
 20
6.56601
 30
1.5
 11
9.73006
 21
6.56601
 31
0
  0
SPLINE
  5
CB4
330
A02
100
AcDbEntity
  8
Body
100
AcDbSpline
210
0
220
0
230
1
 70
8
 71
1
 72
4
 73
2
 74
0
 40
0
 40
0
 40
12.7904
 40
12.7904
 10
11.0633
 20
3.45557
 30
1.5
 10
9.73006
 20
6.56601
 30
1.5
  0
SPLINE
  5
CB5
330
A02
100
AcDbEntity
  8
Body
100
AcDbSpline
210
0
220
0
230
1
 70
8
 71
1
 72
4
 73
2
 74
0
 40
0
 40
0
 40
12.7904
 40
12.7904
 10
11.0633
 20
3.45557
 30
0
 10
9.73006
 20
6.56601
 30
0
  0
LINE
  5
CB6
330
A02
100
AcDbEntity
  8
Body
100
AcDbLine
 10
15.6692
 20
-2.51608
 30
1.5
 11
15.6692
 21
-2.51608
 31
0
  0
LINE
  5
CB7
330
A02
100
AcDbEntity
  8
Body
100
AcDbLine
 10
15.862
 20
-2.28377
 30
1.5
 11
15.862
 21
-2.28377
 31
0
  0
SPLINE
  5
CB8
330
A02
100
AcDbEntity
  8
Body
100
AcDbSpline
210
0
220
0
230
1
 70
8
 71
3
 72
8
 73
4
 74
0
 40
0
 40
0
 40
0
 40
0
 40
1
 40
1
 40
1
 40
1
 10
15.6692
 20
-2.51608
 30
1.5
 10
15.775
 20
-2.49676
 30
1.5
 10
15.862
 20
-2.39172
 30
1.5
 10
15.862
 20
-2.28377
 30
1.5
  0
SPLINE
  5
CB9
330
A02
100
AcDbEntity
  8
Body
100
AcDbSpline
210
0
220
0
230
1
 70
8
 71
3
 72
8
 73
4
 74
0
 40
0
 40
0
 40
0
 40
0
 40
1
 40
1
 40
1
 40
1
 10
15.6692
 20
-2.51608
 30
0
 10
15.775
 20
-2.49676
 30
0
 10
15.862
 20
-2.39172
 30
0
 10
15.862
 20
-2.28377
 30
0
  0
LINE
  5
CBA
330
A02
100
AcDbEntity
  8
Body
100
AcDbLine
 10
9.73006
 20
6.56601
 30
1.5
 11
9.73006
 21
6.56601
 31
0
  0
LINE
  5
CBB
330
A02
100
AcDbEntity
  8
Body
100
AcDbLine
 10
9.75123
 20
6.9023
 30
1.5
 11
9.75123
 21
6.9023
 31
0
  0
SPLINE
  5
CBC
330
A02
100
AcDbEntity
  8
Body
100
AcDbSpline
210
0
220
0
230
1
 70
8
 71
3
 72
8
 73
4
 74
0
 40
0
 40
0
 40
0
 40
0
 40
1
 40
1
 40
1
 40
1
 10
9.73006
 20
6.56601
 30
1.5
 10
9.68032
 20
6.66205
 30
1.5
 10
9.68984
 20
6.81287
 30
1.5
 10
9.75123
 20
6.9023
 30
1.5
  0
SPLINE
  5
CBD
330
A02
100
AcDbEntity
  8
Body
100
AcDbSpline
210
0
220
0
230
1
 70
8
 71
3
 72
8
 73
4
 74
0
 40
0
 40
0
 40
0
 40
0
 40
1
 40
1
 40
1
 40
1
 10
9.73006
 20
6.56601
 30
0
 10
9.68032
 20
6.66205
 30
0
 10
9.68984
 20
6.81287
 30
0
 10
9.75123
 20
6.9023
 30
0
  0
LINE
  5
CBE
330
A02
100
AcDbEntity
  8
Body
100
AcDbLine
 10
11.4266
 20
-3.30559
 30
1.5
 11
11.4266
 21
-3.30559
 31
0
  0
LINE
  5
CBF
330
A02
100
AcDbEntity
  8
Body
100
AcDbLine
 10
15.6692
 20
-2.51608
 30
1.5
 11
15.6692
 21
-2.51608
 31
0
  0
SPLINE
  5
CC0
330
A02
100
AcDbEntity
  8
Body
100
AcDbSpline
210
0
220
0
230
1
 70
8
 71
1
 72
4
 73
2
 74
0
 40
0
 40
0
 40
16.3103
 40
16.3103
 10
11.4266
 20
-3.30559
 30
1.5
 10
15.6692
 20
-2.51608
 30
1.5
  0
SPLINE
  5
CC1
330
A02
100
AcDbEntity
  8
Body
100
AcDbSpline
210
0
220
0
230
1
 70
8
 71
1
 72
4
 73
2
 74
0
 40
0
 40
0
 40
16.3103
 40
16.3103
 10
11.4266
 20
-3.30559
 30
0
 10
15.6692
 20
-2.51608
 30
0
  0
LINE
  5
CC2
330
A02
100
AcDbEntity
  8
Body
100
AcDbLine
 10
9.75123
 20
6.9023
 30
1.5
 11
9.75123
 21
6.9023
 31
0
  0
LINE
  5
CC3
330
A02
100
AcDbEntity
  8
Body
100
AcDbLine
 10
12.2854
 20
10.5959
 30
1.5
 11
12.2854
 21
10.5959
 31
0
  0
SPLINE
  5
CC4
330
A02
100
AcDbEntity
  8
Body
100
AcDbSpline
210
0
220
0
230
1
 70
8
 71
1
 72
4
 73
2
 74
0
 40
0
 40
0
 40
16.9298
 40
16.9298
 10
9.75123
 20
6.9023
 30
1.5
 10
12.2854
 20
10.5959
 30
1.5
  0
SPLINE
  5
CC5
330
A02
100
AcDbEntity
  8
Body
100
AcDbSpline
210
0
220
0
230
1
 70
8
 71
1
 72
4
 73
2
 74
0
 40
0
 40
0
 40
16.9298
 40
16.9298
 10
9.75123
 20
6.9023
 30
0
 10
12.2854
 20
10.5959
 30
0
  0
LINE
  5
CC6
330
A02
100
AcDbEntity
  8
Body
100
AcDbLine
 10
11.1749
 20
-3.52864
 30
1.5
 11
11.1749
 21
-3.52864
 31
0
  0
LINE
  5
CC7
330
A02
100
AcDbEntity
  8
Body
100
AcDbLine
 10
11.4266
 20
-3.30559
 30
1.5
 11
11.4266
 21
-3.30559
 31
0
  0
SPLINE
  5
CC8
330
A02
100
AcDbEntity
  8
Body
100
AcDbSpline
210
0
220
0
230
1
 70
8
 71
3
 72
8
 73
4
 74
0
 40
0
 40
0
 40
0
 40
0
 40
1
 40
1
 40
1
 40
1
 10
11.1749
 20
-3.52864
 30
1.5
 10
11.2075
 20
-3.42572
 30
1.5
 10
11.3202
 20
-3.32491
 30
1.5
 10
11.4266
 20
-3.30559
 30
1.5
  0
SPLINE
  5
CC9
330
A02
100
AcDbEntity
  8
Body
100
AcDbSpline
210
0
220
0
230
1
 70
8
 71
3
 72
8
 73
4
 74
0
 40
0
 40
0
 40
0
 40
0
 40
1
 40
1
 40
1
 40
1
 10
11.1749
 20
-3.52864
 30
0
 10
11.2075
 20
-3.42572
 30
0
 10
11.3202
 20
-3.32491
 30
0
 10
11.4266
 20
-3.30559
 30
0
  0
LINE
  5
CCA
330
A02
100
AcDbEntity
  8
Body
100
AcDbLine
 10
12.2854
 20
10.5959
 30
1.5
 11
12.2854
 21
10.5959
 31
0
  0
LINE
  5
CCB
330
A02
100
AcDbEntity
  8
Body
100
AcDbLine
 10
12.2576
 20
10.8964
 30
1.5
 11
12.2576
 21
10.8964
 31
0
  0
SPLINE
  5
CCC
330
A02
100
AcDbEntity
  8
Body
100
AcDbSpline
210
0
220
0
230
1
 70
8
 71
3
 72
8
 73
4
 74
0
 40
0
 40
0
 40
0
 40
0
 40
1
 40
1
 40
1
 40
1
 10
12.2854
 20
10.5959
 30
1.5
 10
12.346
 20
10.6848
 30
1.5
 10
12.3341
 20
10.82
 30
1.5
 10
12.2576
 20
10.8964
 30
1.5
  0
SPLINE
  5
CCD
330
A02
100
AcDbEntity
  8
Body
100
AcDbSpline
210
0
220
0
230
1
 70
8
 71
3
 72
8
 73
4
 74
0
 40
0
 40
0
 40
0
 40
0
 40
1
 40
1
 40
1
 40
1
 10
12.2854
 20
10.5959
 30
0
 10
12.346
 20
10.6848
 30
0
 10
12.3341
 20
10.82
 30
0
 10
12.2576
 20
10.8964
 30
0
  0
LINE
  5
CCE
330
A02
100
AcDbEntity
  8
Body
100
AcDbLine
 10
9.85045
 20
-6.83725
 30
1.5
 11
9.85045
 21
-6.83725
 31
0
  0
LINE
  5
CCF
330
A02
100
AcDbEntity
  8
Body
100
AcDbLine
 10
11.1749
 20
-3.52864
 30
1.5
 11
11.1749
 21
-3.52864
 31
0
  0
SPLINE
  5
CD0
330
A02
100
AcDbEntity
  8
Body
100
AcDbSpline
210
0
220
0
230
1
 70
8
 71
1
 72
4
 73
2
 74
0
 40
0
 40
0
 40
13.4698
 40
13.4698
 10
9.85045
 20
-6.83725
 30
1.5
 10
11.1749
 20
-3.52864
 30
1.5
  0
SPLINE
  5
CD1
330
A02
100
AcDbEntity
  8
Body
100
AcDbSpline
210
0
220
0
230
1
 70
8
 71
1
 72
4
 73
2
 74
0
 40
0
 40
0
 40
13.4698
 40
13.4698
 10
9.85045
 20
-6.83725
 30
0
 10
11.1749
 20
-3.52864
 30
0
  0
LINE
  5
CD2
330
A02
100
AcDbEntity
  8
Body
100
AcDbLine
 10
12.2576
 20
10.8964
 30
1.5
 11
12.2576
 21
10.8964
 31
0
  0
LINE
  5
CD3
330
A02
100
AcDbEntity
  8
Body
100
AcDbLine
 10
9.09241
 20
14.0617
 30
1.5
 11
9.09241
 21
14.0617
 31
0
  0
SPLINE
  5
CD4
330
A02
100
AcDbEntity
  8
Body
100
AcDbSpline
210
0
220
0
230
1
 70
8
 71
1
 72
4
 73
2
 74
0
 40
0
 40
0
 40
16.9182
 40
16.9182
 10
12.2576
 20
10.8964
 30
1.5
 10
9.09241
 20
14.0617
 30
1.5
  0
SPLINE
  5
CD5
330
A02
100
AcDbEntity
  8
Body
100
AcDbSpline
210
0
220
0
230
1
 70
8
 71
1
 72
4
 73
2
 74
0
 40
0
 40
0
 40
16.9182
 40
16.9182
 10
12.2576
 20
10.8964
 30
0
 10
9.09241
 20
14.0617
 30
0
  0
LINE
  5
CD6
330
A02
100
AcDbEntity
  8
Body
100
AcDbLine
 10
9.87532
 20
-7.17513
 30
1.5
 11
9.87532
 21
-7.17513
 31
0
  0
LINE
  5
CD7
330
A02
100
AcDbEntity
  8
Body
100
AcDbLine
 10
9.85045
 20
-6.83725
 30
1.5
 11
9.85045
 21
-6.83725
 31
0
  0
SPLINE
  5
CD8
330
A02
100
AcDbEntity
  8
Body
100
AcDbSpline
210
0
220
0
230
1
 70
8
 71
3
 72
8
 73
4
 74
0
 40
0
 40
0
 40
0
 40
0
 40
1
 40
1
 40
1
 40
1
 10
9.87532
 20
-7.17513
 30
1.5
 10
9.81446
 20
-7.08623
 30
1.5
 10
9.80309
 20
-6.93435
 30
1.5
 10
9.85045
 20
-6.83725
 30
1.5
  0
SPLINE
  5
CD9
330
A02
100
AcDbEntity
  8
Body
100
AcDbSpline
210
0
220
0
230
1
 70
8
 71
3
 72
8
 73
4
 74
0
 40
0
 40
0
 40
0
 40
0
 40
1
 40
1
 40
1
 40
1
 10
9.87532
 20
-7.17513
 30
0
 10
9.81446
 20
-7.08623
 30
0
 10
9.80309
 20
-6.93435
 30
0
 10
9.85045
 20
-6.83725
 30
0
  0
LINE
  5
CDA
330
A02
100
AcDbEntity
  8
Body
100
AcDbLine
 10
9.09241
 20
14.0617
 30
1.5
 11
9.09241
 21
14.0617
 31
0
  0
LINE
  5
CDB
330
A02
100
AcDbEntity
  8
Body
100
AcDbLine
 10
8.79211
 20
14.0894
 30
1.5
 11
8.79211
 21
14.0894
 31
0
  0
SPLINE
  5
CDC
330
A02
100
AcDbEntity
  8
Body
100
AcDbSpline
210
0
220
0
230
1
 70
8
 71
3
 72
8
 73
4
 74
0
 40
0
 40
0
 40
0
 40
0
 40
1
 40
1
 40
1
 40
1
 10
9.09241
 20
14.0617
 30
1.5
 10
9.01595
 20
14.1381
 30
1.5
 10
8.88101
 20
14.1506
 30
1.5
 10
8.79211
 20
14.0894
 30
1.5
  0
SPLINE
  5
CDD
330
A02
100
AcDbEntity
  8
Body
100
AcDbSpline
210
0
220
0
230
1
 70
8
 71
3
 72
8
 73
4
 74
0
 40
0
 40
0
 40
0
 40
0
 40
1
 40
1
 40
1
 40
1
 10
9.09241
 20
14.0617
 30
0
 10
9.01595
 20
14.1381
 30
0
 10
8.88101
 20
14.1506
 30
0
 10
8.79211
 20
14.0894
 30
0
  0
LINE
  5
CDE
330
A02
100
AcDbEntity
  8
Body
100
AcDbLine
 10
12.2854
 20
-10.6869
 30
1.5
 11
12.2854
 21
-10.6869
 31
0
  0
LINE
  5
CDF
330
A02
100
AcDbEntity
  8
Body
100
AcDbLine
 10
9.87532
 20
-7.17513
 30
1.5
 11
9.87532
 21
-7.17513
 31
0
  0
SPLINE
  5
CE0
330
A02
100
AcDbEntity
  8
Body
100
AcDbSpline
210
0
220
0
230
1
 70
8
 71
1
 72
4
 73
2
 74
0
 40
0
 40
0
 40
16.098
 40
16.098
 10
12.2854
 20
-10.6869
 30
1.5
 10
9.87532
 20
-7.17513
 30
1.5
  0
SPLINE
  5
CE1
330
A02
100
AcDbEntity
  8
Body
100
AcDbSpline
210
0
220
0
230
1
 70
8
 71
1
 72
4
 73
2
 74
0
 40
0
 40
0
 40
16.098
 40
16.098
 10
12.2854
 20
-10.6869
 30
0
 10
9.87532
 20
-7.17513
 30
0
  0
LINE
  5
CE2
330
A02
100
AcDbEntity
  8
Body
100
AcDbLine
 10
8.79211
 20
14.0894
 30
1.5
 11
8.79211
 21
14.0894
 31
0
  0
LINE
  5
CE3
330
A02
100
AcDbEntity
  8
Body
100
AcDbLine
 10
5.03371
 20
11.5103
 30
1.5
 11
5.03371
 21
11.5103
 31
0
  0
SPLINE
  5
CE4
330
A02
100
AcDbEntity
  8
Body
100
AcDbSpline
210
0
220
0
230
1
 70
8
 71
1
 72
4
 73
2
 74
0
 40
0
 40
0
 40
17.228
 40
17.228
 10
8.79211
 20
14.0894
 30
1.5
 10
5.03371
 20
11.5103
 30
1.5
  0
SPLINE
  5
CE5
330
A02
100
AcDbEntity
  8
Body
100
AcDbSpline
210
0
220
0
230
1
 70
8
 71
1
 72
4
 73
2
 74
0
 40
0
 40
0
 40
17.228
 40
17.228
 10
8.79211
 20
14.0894
 30
0
 10
5.03371
 20
11.5103
 30
0
  0
LINE
  5
CE6
330
A02
100
AcDbEntity
  8
Body
100
AcDbLine
 10
12.2576
 20
-10.9878
 30
1.5
 11
12.2576
 21
-10.9878
 31
0
  0
LINE
  5
CE7
330
A02
100
AcDbEntity
  8
Body
100
AcDbLine
 10
12.2854
 20
-10.6869
 30
1.5
 11
12.2854
 21
-10.6869
 31
0
  0
SPLINE
  5
CE8
330
A02
100
AcDbEntity
  8
Body
100
AcDbSpline
210
0
220
0
230
1
 70
8
 71
3
 72
8
 73
4
 74
0
 40
0
 40
0
 40
0
 40
0
 40
1
 40
1
 40
1
 40
1
 10
12.2576
 20
-10.9878
 30
1.5
 10
12.3341
 20
-10.9113
 30
1.5
 10
12.3465
 20
-10.7758
 30
1.5
 10
12.2854
 20
-10.6869
 30
1.5
  0
SPLINE
  5
CE9
330
A02
100
AcDbEntity
  8
Body
100
AcDbSpline
210
0
220
0
230
1
 70
8
 71
3
 72
8
 73
4
 74
0
 40
0
 40
0
 40
0
 40
0
 40
1
 40
1
 40
1
 40
1
 10
12.2576
 20
-10.9878
 30
0
 10
12.3341
 20
-10.9113
 30
0
 10
12.3465
 20
-10.7758
 30
0
 10
12.2854
 20
-10.6869
 30
0
  0
LINE
  5
CEA
330
A02
100
AcDbEntity
  8
Body
100
AcDbLine
 10
5.03371
 20
11.5103
 30
1.5
 11
5.03371
 21
11.5103
 31
0
  0
LINE
  5
CEB
330
A02
100
AcDbEntity
  8
Body
100
AcDbLine
 10
4.69583
 20
11.4859
 30
1.5
 11
4.69583
 21
11.4859
 31
0
  0
SPLINE
  5
CEC
330
A02
100
AcDbEntity
  8
Body
100
AcDbSpline
210
0
220
0
230
1
 70
8
 71
3
 72
8
 73
4
 74
0
 40
0
 40
0
 40
0
 40
0
 40
1
 40
1
 40
1
 40
1
 10
5.03371
 20
11.5103
 30
1.5
 10
4.94481
 20
11.4492
 30
1.5
 10
4.79241
 20
11.4383
 30
1.5
 10
4.69583
 20
11.4859
 30
1.5
  0
SPLINE
  5
CED
330
A02
100
AcDbEntity
  8
Body
100
AcDbSpline
210
0
220
0
230
1
 70
8
 71
3
 72
8
 73
4
 74
0
 40
0
 40
0
 40
0
 40
0
 40
1
 40
1
 40
1
 40
1
 10
5.03371
 20
11.5103
 30
0
 10
4.94481
 20
11.4492
 30
0
 10
4.79241
 20
11.4383
 30
0
 10
4.69583
 20
11.4859
 30
0
  0
LINE
  5
CEE
330
A02
100
AcDbEntity
  8
Body
100
AcDbLine
 10
9.09189
 20
-14.153
 30
1.5
 11
9.09189
 21
-14.153
 31
0
  0
LINE
  5
CEF
330
A02
100
AcDbEntity
  8
Body
100
AcDbLine
 10
12.2576
 20
-10.9878
 30
1.5
 11
12.2576
 21
-10.9878
 31
0
  0
SPLINE
  5
CF0
330
A02
100
AcDbEntity
  8
Body
100
AcDbSpline
210
0
220
0
230
1
 70
8
 71
1
 72
4
 73
2
 74
0
 40
0
 40
0
 40
16.9197
 40
16.9197
 10
9.09189
 20
-14.153
 30
1.5
 10
12.2576
 20
-10.9878
 30
1.5
  0
SPLINE
  5
CF1
330
A02
100
AcDbEntity
  8
Body
100
AcDbSpline
210
0
220
0
230
1
 70
8
 71
1
 72
4
 73
2
 74
0
 40
0
 40
0
 40
16.9197
 40
16.9197
 10
9.09189
 20
-14.153
 30
0
 10
12.2576
 20
-10.9878
 30
0
  0
LINE
  5
CF2
330
A02
100
AcDbEntity
  8
Body
100
AcDbLine
 10
4.69583
 20
11.4859
 30
1.5
 11
4.69583
 21
11.4859
 31
0
  0
LINE
  5
CF3
330
A02
100
AcDbEntity
  8
Body
100
AcDbLine
 10
1.68064
 20
12.7202
 30
1.5
 11
1.68064
 21
12.7202
 31
0
  0
SPLINE
  5
CF4
330
A02
100
AcDbEntity
  8
Body
100
AcDbSpline
210
0
220
0
230
1
 70
8
 71
1
 72
4
 73
2
 74
0
 40
0
 40
0
 40
12.3139
 40
12.3139
 10
4.69583
 20
11.4859
 30
1.5
 10
1.68064
 20
12.7202
 30
1.5
  0
SPLINE
  5
CF5
330
A02
100
AcDbEntity
  8
Body
100
AcDbSpline
210
0
220
0
230
1
 70
8
 71
1
 72
4
 73
2
 74
0
 40
0
 40
0
 40
12.3139
 40
12.3139
 10
4.69583
 20
11.4859
 30
0
 10
1.68064
 20
12.7202
 30
0
  0
LINE
  5
CF6
330
A02
100
AcDbEntity
  8
Body
100
AcDbLine
 10
8.79158
 20
-14.1808
 30
1.5
 11
8.79158
 21
-14.1808
 31
0
  0
LINE
  5
CF7
330
A02
100
AcDbEntity
  8
Body
100
AcDbLine
 10
9.09189
 20
-14.153
 30
1.5
 11
9.09189
 21
-14.153
 31
0
  0
SPLINE
  5
CF8
330
A02
100
AcDbEntity
  8
Body
100
AcDbSpline
210
0
220
0
230
1
 70
8
 71
3
 72
8
 73
4
 74
0
 40
0
 40
0
 40
0
 40
0
 40
1
 40
1
 40
1
 40
1
 10
8.79158
 20
-14.1808
 30
1.5
 10
8.88048
 20
-14.2414
 30
1.5
 10
9.01595
 20
-14.2289
 30
1.5
 10
9.09189
 20
-14.153
 30
1.5
  0
SPLINE
  5
CF9
330
A02
100
AcDbEntity
  8
Body
100
AcDbSpline
210
0
220
0
230
1
 70
8
 71
3
 72
8
 73
4
 74
0
 40
0
 40
0
 40
0
 40
0
 40
1
 40
1
 40
1
 40
1
 10
8.79158
 20
-14.1808
 30
0
 10
8.88048
 20
-14.2414
 30
0
 10
9.01595
 20
-14.2289
 30
0
 10
9.09189
 20
-14.153
 30
0
  0
LINE
  5
CFA
330
A02
100
AcDbEntity
  8
Body
100
AcDbLine
 10
1.68064
 20
12.7202
 30
1.5
 11
1.68064
 21
12.7202
 31
0
  0
LINE
  5
CFB
330
A02
100
AcDbEntity
  8
Body
100
AcDbLine
 10
1.45839
 20
12.9747
 30
1.5
 11
1.45839
 21
12.9747
 31
0
  0
SPLINE
  5
CFC
330
A02
100
AcDbEntity
  8
Body
100
AcDbSpline
210
0
220
0
230
1
 70
8
 71
3
 72
8
 73
4
 74
0
 40
0
 40
0
 40
0
 40
0
 40
1
 40
1
 40
1
 40
1
 10
1.68064
 20
12.7202
 30
1.5
 10
1.57825
 20
12.7541
 30
1.5
 10
1.4785
 20
12.8686
 30
1.5
 10
1.45839
 20
12.9747
 30
1.5
  0
SPLINE
  5
CFD
330
A02
100
AcDbEntity
  8
Body
100
AcDbSpline
210
0
220
0
230
1
 70
8
 71
3
 72
8
 73
4
 74
0
 40
0
 40
0
 40
0
 40
0
 40
1
 40
1
 40
1
 40
1
 10
1.68064
 20
12.7202
 30
0
 10
1.57825
 20
12.7541
 30
0
 10
1.4785
 20
12.8686
 30
0
 10
1.45839
 20
12.9747
 30
0
  0
LINE
  5
CFE
330
A02
100
AcDbEntity
  8
Body
100
AcDbLine
 10
5.34168
 20
-11.813
 30
1.5
 11
5.34168
 21
-11.813
 31
0
  0
LINE
  5
CFF
330
A02
100
AcDbEntity
  8
Body
100
AcDbLine
 10
8.79158
 20
-14.1808
 30
1.5
 11
8.79158
 21
-14.1808
 31
0
  0
SPLINE
  5
D00
330
A02
100
AcDbEntity
  8
Body
100
AcDbSpline
210
0
220
0
230
1
 70
8
 71
1
 72
4
 73
2
 74
0
 40
0
 40
0
 40
15.8146
 40
15.8146
 10
5.34168
 20
-11.813
 30
1.5
 10
8.79158
 20
-14.1808
 30
1.5
  0
SPLINE
  5
D01
330
A02
100
AcDbEntity
  8
Body
100
AcDbSpline
210
0
220
0
230
1
 70
8
 71
1
 72
4
 73
2
 74
0
 40
0
 40
0
 40
15.8146
 40
15.8146
 10
5.34168
 20
-11.813
 30
0
 10
8.79158
 20
-14.1808
 30
0
  0
LINE
  5
D02
330
A02
100
AcDbEntity
  8
Body
100
AcDbLine
 10
1.45839
 20
12.9747
 30
1.5
 11
1.45839
 21
12.9747
 31
0
  0
LINE
  5
D03
330
A02
100
AcDbEntity
  8
Body
100
AcDbLine
 10
0.620985
 20
17.4735
 30
1.5
 11
0.620985
 21
17.4735
 31
0
  0
SPLINE
  5
D04
330
A02
100
AcDbEntity
  8
Body
100
AcDbSpline
210
0
220
0
230
1
 70
8
 71
1
 72
4
 73
2
 74
0
 40
0
 40
0
 40
17.2951
 40
17.2951
 10
1.45839
 20
12.9747
 30
1.5
 10
0.620985
 20
17.4735
 30
1.5
  0
SPLINE
  5
D05
330
A02
100
AcDbEntity
  8
Body
100
AcDbSpline
210
0
220
0
230
1
 70
8
 71
1
 72
4
 73
2
 74
0
 40
0
 40
0
 40
17.2951
 40
17.2951
 10
1.45839
 20
12.9747
 30
0
 10
0.620985
 20
17.4735
 30
0
  0
LINE
  5
D06
330
A02
100
AcDbEntity
  8
Body
100
AcDbLine
 10
5.01095
 20
-11.8016
 30
1.5
 11
5.01095
 21
-11.8016
 31
0
  0
LINE
  5
D07
330
A02
100
AcDbEntity
  8
Body
100
AcDbLine
 10
5.34168
 20
-11.813
 30
1.5
 11
5.34168
 21
-11.813
 31
0
  0
SPLINE
  5
D08
330
A02
100
AcDbEntity
  8
Body
100
AcDbSpline
210
0
220
0
230
1
 70
8
 71
3
 72
8
 73
4
 74
0
 40
0
 40
0
 40
0
 40
0
 40
1
 40
1
 40
1
 40
1
 10
5.01095
 20
-11.8016
 30
1.5
 10
5.10409
 20
-11.7474
 30
1.5
 10
5.25278
 20
-11.7519
 30
1.5
 10
5.34168
 20
-11.813
 30
1.5
  0
SPLINE
  5
D09
330
A02
100
AcDbEntity
  8
Body
100
AcDbSpline
210
0
220
0
230
1
 70
8
 71
3
 72
8
 73
4
 74
0
 40
0
 40
0
 40
0
 40
0
 40
1
 40
1
 40
1
 40
1
 10
5.01095
 20
-11.8016
 30
0
 10
5.10409
 20
-11.7474
 30
0
 10
5.25278
 20
-11.7519
 30
0
 10
5.34168
 20
-11.813
 30
0
  0
LINE
  5
D0A
330
A02
100
AcDbEntity
  8
Body
100
AcDbLine
 10
0.620985
 20
17.4735
 30
1.5
 11
0.620985
 21
17.4735
 31
0
  0
LINE
  5
D0B
330
A02
100
AcDbEntity
  8
Body
100
AcDbLine
 10
0.388946
 20
17.6663
 30
1.5
 11
0.388946
 21
17.6663
 31
0
  0
SPLINE
  5
D0C
330
A02
100
AcDbEntity
  8
Body
100
AcDbSpline
210
0
220
0
230
1
 70
8
 71
3
 72
8
 73
4
 74
0
 40
0
 40
0
 40
0
 40
0
 40
1
 40
1
 40
1
 40
1
 10
0.620985
 20
17.4735
 30
1.5
 10
0.601406
 20
17.5796
 30
1.5
 10
0.496896
 20
17.6663
 30
1.5
 10
0.388946
 20
17.6663
 30
1.5
  0
SPLINE
  5
D0D
330
A02
100
AcDbEntity
  8
Body
100
AcDbSpline
210
0
220
0
230
1
 70
8
 71
3
 72
8
 73
4
 74
0
 40
0
 40
0
 40
0
 40
0
 40
1
 40
1
 40
1
 40
1
 10
0.620985
 20
17.4735
 30
0
 10
0.601406
 20
17.5796
 30
0
 10
0.496896
 20
17.6663
 30
0
 10
0.388946
 20
17.6663
 30
0
  0
LINE
  5
D0E
330
A02
100
AcDbEntity
  8
Body
100
AcDbLine
 10
3.4896
 20
-12.6139
 30
1.5
 11
3.4896
 21
-12.6139
 31
0
  0
LINE
  5
D0F
330
A02
100
AcDbEntity
  8
Body
100
AcDbLine
 10
5.01095
 20
-11.8016
 30
1.5
 11
5.01095
 21
-11.8016
 31
0
  0
SPLINE
  5
D10
330
A02
100
AcDbEntity
  8
Body
100
AcDbSpline
210
0
220
0
230
1
 70
8
 71
1
 72
4
 73
2
 74
0
 40
0
 40
0
 40
6.51824
 40
6.51824
 10
3.4896
 20
-12.6139
 30
1.5
 10
5.01095
 20
-11.8016
 30
1.5
  0
SPLINE
  5
D11
330
A02
100
AcDbEntity
  8
Body
100
AcDbSpline
210
0
220
0
230
1
 70
8
 71
1
 72
4
 73
2
 74
0
 40
0
 40
0
 40
6.51824
 40
6.51824
 10
3.4896
 20
-12.6139
 30
0
 10
5.01095
 20
-11.8016
 30
0
  0
LINE
  5
D12
330
A02
100
AcDbEntity
  8
Body
100
AcDbLine
 10
0.388946
 20
17.6663
 30
1.5
 11
0.388946
 21
17.6663
 31
0
  0
LINE
  5
D13
330
A02
100
AcDbEntity
  8
Body
100
AcDbLine
 10
-4.0878
 20
17.6663
 30
1.5
 11
-4.0878
 21
17.6663
 31
0
  0
SPLINE
  5
D14
330
A02
100
AcDbEntity
  8
Body
100
AcDbSpline
210
0
220
0
230
1
 70
8
 71
1
 72
4
 73
2
 74
0
 40
0
 40
0
 40
16.92
 40
16.92
 10
0.388946
 20
17.6663
 30
1.5
 10
-4.0878
 20
17.6663
 30
1.5
  0
SPLINE
  5
D15
330
A02
100
AcDbEntity
  8
Body
100
AcDbSpline
210
0
220
0
230
1
 70
8
 71
1
 72
4
 73
2
 74
0
 40
0
 40
0
 40
16.92
 40
16.92
 10
0.388946
 20
17.6663
 30
0
 10
-4.0878
 20
17.6663
 30
0
  0
LINE
  5
D16
330
A02
100
AcDbEntity
  8
Body
100
AcDbLine
 10
3.23957
 20
-12.5218
 30
1.5
 11
3.23957
 21
-12.5218
 31
0
  0
LINE
  5
D17
330
A02
100
AcDbEntity
  8
Body
100
AcDbLine
 10
3.4896
 20
-12.6139
 30
1.5
 11
3.4896
 21
-12.6139
 31
0
  0
SPLINE
  5
D18
330
A02
100
AcDbEntity
  8
Body
100
AcDbSpline
210
0
220
0
230
1
 70
8
 71
3
 72
8
 73
4
 74
0
 40
0
 40
0
 40
0
 40
0
 40
1
 40
1
 40
1
 40
1
 10
3.23957
 20
-12.5218
 30
1.5
 10
3.28084
 20
-12.6216
 30
1.5
 10
3.39302
 20
-12.6628
 30
1.5
 10
3.4896
 20
-12.6139
 30
1.5
  0
SPLINE
  5
D19
330
A02
100
AcDbEntity
  8
Body
100
AcDbSpline
210
0
220
0
230
1
 70
8
 71
3
 72
8
 73
4
 74
0
 40
0
 40
0
 40
0
 40
0
 40
1
 40
1
 40
1
 40
1
 10
3.23957
 20
-12.5218
 30
0
 10
3.28084
 20
-12.6216
 30
0
 10
3.39302
 20
-12.6628
 30
0
 10
3.4896
 20
-12.6139
 30
0
  0
LINE
  5
D1A
330
A02
100
AcDbEntity
  8
Body
100
AcDbLine
 10
-4.0878
 20
17.6663
 30
1.5
 11
-4.0878
 21
17.6663
 31
0
  0
LINE
  5
D1B
330
A02
100
AcDbEntity
  8
Body
100
AcDbLine
 10
-4.31958
 20
17.4735
 30
1.5
 11
-4.31958
 21
17.4735
 31
0
  0
SPLINE
  5
D1C
330
A02
100
AcDbEntity
  8
Body
100
AcDbSpline
210
0
220
0
230
1
 70
8
 71
3
 72
8
 73
4
 74
0
 40
0
 40
0
 40
0
 40
0
 40
1
 40
1
 40
1
 40
1
 10
-4.0878
 20
17.6663
 30
1.5
 10
-4.19549
 20
17.6663
 30
1.5
 10
-4.3
 20
17.5796
 30
1.5
 10
-4.31958
 20
17.4735
 30
1.5
  0
SPLINE
  5
D1D
330
A02
100
AcDbEntity
  8
Body
100
AcDbSpline
210
0
220
0
230
1
 70
8
 71
3
 72
8
 73
4
 74
0
 40
0
 40
0
 40
0
 40
0
 40
1
 40
1
 40
1
 40
1
 10
-4.0878
 20
17.6663
 30
0
 10
-4.19549
 20
17.6663
 30
0
 10
-4.3
 20
17.5796
 30
0
 10
-4.31958
 20
17.4735
 30
0
  0
LINE
  5
D1E
330
A02
100
AcDbEntity
  8
Body
100
AcDbLine
 10
0.102931
 20
-4.94204
 30
1.5
 11
0.102931
 21
-4.94204
 31
0
  0
LINE
  5
D1F
330
A02
100
AcDbEntity
  8
Body
100
AcDbLine
 10
3.23957
 20
-12.5218
 30
1.5
 11
3.23957
 21
-12.5218
 31
0
  0
SPLINE
  5
D20
330
A02
100
AcDbEntity
  8
Body
100
AcDbSpline
210
0
220
0
230
1
 70
8
 71
1
 72
4
 73
2
 74
0
 40
0
 40
0
 40
31.004
 40
31.004
 10
0.102931
 20
-4.94204
 30
1.5
 10
3.23957
 20
-12.5218
 30
1.5
  0
SPLINE
  5
D21
330
A02
100
AcDbEntity
  8
Body
100
AcDbSpline
210
0
220
0
230
1
 70
8
 71
1
 72
4
 73
2
 74
0
 40
0
 40
0
 40
31.004
 40
31.004
 10
0.102931
 20
-4.94204
 30
0
 10
3.23957
 20
-12.5218
 30
0
  0
LINE
  5
D22
330
A02
100
AcDbEntity
  8
Body
100
AcDbLine
 10
-4.31958
 20
17.4735
 30
1.5
 11
-4.31958
 21
17.4735
 31
0
  0
LINE
  5
D23
330
A02
100
AcDbEntity
  8
Body
100
AcDbLine
 10
-5.15672
 20
12.9747
 30
1.5
 11
-5.15672
 21
12.9747
 31
0
  0
SPLINE
  5
D24
330
A02
100
AcDbEntity
  8
Body
100
AcDbSpline
210
0
220
0
230
1
 70
8
 71
1
 72
4
 73
2
 74
0
 40
0
 40
0
 40
17.2949
 40
17.2949
 10
-4.31958
 20
17.4735
 30
1.5
 10
-5.15672
 20
12.9747
 30
1.5
  0
SPLINE
  5
D25
330
A02
100
AcDbEntity
  8
Body
100
AcDbSpline
210
0
220
0
230
1
 70
8
 71
1
 72
4
 73
2
 74
0
 40
0
 40
0
 40
17.2949
 40
17.2949
 10
-4.31958
 20
17.4735
 30
0
 10
-5.15672
 20
12.9747
 30
0
  0
LINE
  5
D26
330
A02
100
AcDbEntity
  8
Body
100
AcDbLine
 10
0.195006
 20
-4.65867
 30
1.5
 11
0.195006
 21
-4.65867
 31
0
  0
LINE
  5
D27
330
A02
100
AcDbEntity
  8
Body
100
AcDbLine
 10
0.102931
 20
-4.94204
 30
1.5
 11
0.102931
 21
-4.94204
 31
0
  0
SPLINE
  5
D28
330
A02
100
AcDbEntity
  8
Body
100
AcDbSpline
210
0
220
0
230
1
 70
8
 71
3
 72
8
 73
4
 74
0
 40
0
 40
0
 40
0
 40
0
 40
1
 40
1
 40
1
 40
1
 10
0.195006
 20
-4.65867
 30
1.5
 10
0.10346
 20
-4.71503
 30
1.5
 10
0.0616561
 20
-4.84229
 30
1.5
 10
0.102931
 20
-4.94204
 30
1.5
  0
SPLINE
  5
D29
330
A02
100
AcDbEntity
  8
Body
100
AcDbSpline
210
0
220
0
230
1
 70
8
 71
3
 72
8
 73
4
 74
0
 40
0
 40
0
 40
0
 40
0
 40
1
 40
1
 40
1
 40
1
 10
0.195006
 20
-4.65867
 30
0
 10
0.10346
 20
-4.71503
 30
0
 10
0.0616561
 20
-4.84229
 30
0
 10
0.102931
 20
-4.94204
 30
0
  0
LINE
  5
D2A
330
A02
100
AcDbEntity
  8
Body
100
AcDbLine
 10
-5.15672
 20
12.9747
 30
1.5
 11
-5.15672
 21
12.9747
 31
0
  0
LINE
  5
D2B
330
A02
100
AcDbEntity
  8
Body
100
AcDbLine
 10
-5.37897
 20
12.7202
 30
1.5
 11
-5.37897
 21
12.7202
 31
0
  0
SPLINE
  5
D2C
330
A02
100
AcDbEntity
  8
Body
100
AcDbSpline
210
0
220
0
230
1
 70
8
 71
3
 72
8
 73
4
 74
0
 40
0
 40
0
 40
0
 40
0
 40
1
 40
1
 40
1
 40
1
 10
-5.15672
 20
12.9747
 30
1.5
 10
-5.17683
 20
12.8686
 30
1.5
 10
-5.27631
 20
12.7541
 30
1.5
 10
-5.37897
 20
12.7202
 30
1.5
  0
SPLINE
  5
D2D
330
A02
100
AcDbEntity
  8
Body
100
AcDbSpline
210
0
220
0
230
1
 70
8
 71
3
 72
8
 73
4
 74
0
 40
0
 40
0
 40
0
 40
0
 40
1
 40
1
 40
1
 40
1
 10
-5.15672
 20
12.9747
 30
0
 10
-5.17683
 20
12.8686
 30
0
 10
-5.27631
 20
12.7541
 30
0
 10
-5.37897
 20
12.7202
 30
0
  0
LINE
  5
D2E
330
A02
100
AcDbEntity
  8
Body
100
AcDbLine
 10
0.575742
 20
-4.42558
 30
1.5
 11
0.575742
 21
-4.42558
 31
0
  0
LINE
  5
D2F
330
A02
100
AcDbEntity
  8
Body
100
AcDbLine
 10
0.195006
 20
-4.65867
 30
1.5
 11
0.195006
 21
-4.65867
 31
0
  0
SPLINE
  5
D30
330
A02
100
AcDbEntity
  8
Body
100
AcDbSpline
210
0
220
0
230
1
 70
8
 71
1
 72
4
 73
2
 74
0
 40
0
 40
0
 40
1.68727
 40
1.68727
 10
0.575742
 20
-4.42558
 30
1.5
 10
0.195006
 20
-4.65867
 30
1.5
  0
SPLINE
  5
D31
330
A02
100
AcDbEntity
  8
Body
100
AcDbSpline
210
0
220
0
230
1
 70
8
 71
1
 72
4
 73
2
 74
0
 40
0
 40
0
 40
1.68727
 40
1.68727
 10
0.575742
 20
-4.42558
 30
0
 10
0.195006
 20
-4.65867
 30
0
  0
LINE
  5
D32
330
A02
100
AcDbEntity
  8
Body
100
AcDbLine
 10
-5.37897
 20
12.7202
 30
1.5
 11
-5.37897
 21
12.7202
 31
0
  0
LINE
  5
D33
330
A02
100
AcDbEntity
  8
Body
100
AcDbLine
 10
-8.39443
 20
11.4859
 30
1.5
 11
-8.39443
 21
11.4859
 31
0
  0
SPLINE
  5
D34
330
A02
100
AcDbEntity
  8
Body
100
AcDbSpline
210
0
220
0
230
1
 70
8
 71
1
 72
4
 73
2
 74
0
 40
0
 40
0
 40
12.3148
 40
12.3148
 10
-5.37897
 20
12.7202
 30
1.5
 10
-8.39443
 20
11.4859
 30
1.5
  0
SPLINE
  5
D35
330
A02
100
AcDbEntity
  8
Body
100
AcDbSpline
210
0
220
0
230
1
 70
8
 71
1
 72
4
 73
2
 74
0
 40
0
 40
0
 40
12.3148
 40
12.3148
 10
-5.37897
 20
12.7202
 30
0
 10
-8.39443
 20
11.4859
 30
0
  0
LINE
  5
D36
330
A02
100
AcDbEntity
  8
Body
100
AcDbLine
 10
0.815983
 20
-4.24116
 30
1.5
 11
0.815983
 21
-4.24116
 31
0
  0
LINE
  5
D37
330
A02
100
AcDbEntity
  8
Body
100
AcDbLine
 10
0.575742
 20
-4.42558
 30
1.5
 11
0.575742
 21
-4.42558
 31
0
  0
SPLINE
  5
D38
330
A02
100
AcDbEntity
  8
Body
100
AcDbSpline
210
0
220
0
230
1
 70
8
 71
3
 72
8
 73
4
 74
0
 40
0
 40
0
 40
0
 40
0
 40
1
 40
1
 40
1
 40
1
 10
0.815983
 20
-4.24116
 30
1.5
 10
0.741635
 20
-4.30889
 30
1.5
 10
0.645856
 20
-4.38271
 30
1.5
 10
0.575742
 20
-4.42558
 30
1.5
  0
SPLINE
  5
D39
330
A02
100
AcDbEntity
  8
Body
100
AcDbSpline
210
0
220
0
230
1
 70
8
 71
3
 72
8
 73
4
 74
0
 40
0
 40
0
 40
0
 40
0
 40
1
 40
1
 40
1
 40
1
 10
0.815983
 20
-4.24116
 30
0
 10
0.741635
 20
-4.30889
 30
0
 10
0.645856
 20
-4.38271
 30
0
 10
0.575742
 20
-4.42558
 30
0
  0
LINE
  5
D3A
330
A02
100
AcDbEntity
  8
Body
100
AcDbLine
 10
-8.39443
 20
11.4859
 30
1.5
 11
-8.39443
 21
11.4859
 31
0
  0
LINE
  5
D3B
330
A02
100
AcDbEntity
  8
Body
100
AcDbLine
 10
-8.7323
 20
11.5103
 30
1.5
 11
-8.7323
 21
11.5103
 31
0
  0
SPLINE
  5
D3C
330
A02
100
AcDbEntity
  8
Body
100
AcDbSpline
210
0
220
0
230
1
 70
8
 71
3
 72
8
 73
4
 74
0
 40
0
 40
0
 40
0
 40
0
 40
1
 40
1
 40
1
 40
1
 10
-8.39443
 20
11.4859
 30
1.5
 10
-8.49126
 20
11.4383
 30
1.5
 10
-8.64366
 20
11.4492
 30
1.5
 10
-8.7323
 20
11.5103
 30
1.5
  0
SPLINE
  5
D3D
330
A02
100
AcDbEntity
  8
Body
100
AcDbSpline
210
0
220
0
230
1
 70
8
 71
3
 72
8
 73
4
 74
0
 40
0
 40
0
 40
0
 40
0
 40
1
 40
1
 40
1
 40
1
 10
-8.39443
 20
11.4859
 30
0
 10
-8.49126
 20
11.4383
 30
0
 10
-8.64366
 20
11.4492
 30
0
 10
-8.7323
 20
11.5103
 30
0
  0
LINE
  5
D3E
330
A02
100
AcDbEntity
  8
Body
100
AcDbLine
 10
3.10066
 20
-0.0710631
 30
1.5
 11
3.10066
 21
-0.0710631
 31
0
  0
LINE
  5
D3F
330
A02
100
AcDbEntity
  8
Body
100
AcDbLine
 10
0.815983
 20
-4.24116
 30
1.5
 11
0.815983
 21
-4.24116
 31
0
  0
SPLINE
  5
D40
330
A02
100
AcDbEntity
  8
Body
100
AcDbSpline
210
0
220
0
230
1
 70
8
 71
3
 72
8
 73
4
 74
0
 40
0
 40
0
 40
0
 40
0
 40
1
 40
1
 40
1
 40
1
 10
3.10066
 20
-0.0710631
 30
1.5
 10
3.10066
 20
-1.82313
 30
1.5
 10
2.1897
 20
-3.36169
 30
1.5
 10
0.815983
 20
-4.24116
 30
1.5
  0
SPLINE
  5
D41
330
A02
100
AcDbEntity
  8
Body
100
AcDbSpline
210
0
220
0
230
1
 70
8
 71
3
 72
8
 73
4
 74
0
 40
0
 40
0
 40
0
 40
0
 40
1
 40
1
 40
1
 40
1
 10
3.10066
 20
-0.0710631
 30
0
 10
3.10066
 20
-1.82313
 30
0
 10
2.1897
 20
-3.36169
 30
0
 10
0.815983
 20
-4.24116
 30
0
  0
LINE
  5
D42
330
A02
100
AcDbEntity
  8
Body
100
AcDbLine
 10
-8.7323
 20
11.5103
 30
1.5
 11
-8.7323
 21
11.5103
 31
0
  0
LINE
  5
D43
330
A02
100
AcDbEntity
  8
Body
100
AcDbLine
 10
-12.4904
 20
14.0894
 30
1.5
 11
-12.4904
 21
14.0894
 31
0
  0
SPLINE
  5
D44
330
A02
100
AcDbEntity
  8
Body
100
AcDbSpline
210
0
220
0
230
1
 70
8
 71
1
 72
4
 73
2
 74
0
 40
0
 40
0
 40
17.2272
 40
17.2272
 10
-8.7323
 20
11.5103
 30
1.5
 10
-12.4904
 20
14.0894
 30
1.5
  0
SPLINE
  5
D45
330
A02
100
AcDbEntity
  8
Body
100
AcDbSpline
210
0
220
0
230
1
 70
8
 71
1
 72
4
 73
2
 74
0
 40
0
 40
0
 40
17.2272
 40
17.2272
 10
-8.7323
 20
11.5103
 30
0
 10
-12.4904
 20
14.0894
 30
0
  0
LINE
  5
D46
330
A02
100
AcDbEntity
  8
Body
100
AcDbLine
 10
-1.84969
 20
4.87956
 30
1.5
 11
-1.84969
 21
4.87956
 31
0
  0
LINE
  5
D47
330
A02
100
AcDbEntity
  8
Body
100
AcDbLine
 10
3.10066
 20
-0.0710631
 30
1.5
 11
3.10066
 21
-0.0710631
 31
0
  0
SPLINE
  5
D48
330
A02
100
AcDbEntity
  8
Body
100
AcDbSpline
210
0
220
0
230
1
 70
8
 71
3
 72
8
 73
4
 74
0
 40
0
 40
0
 40
0
 40
0
 40
1
 40
1
 40
1
 40
1
 10
-1.84969
 20
4.87956
 30
1.5
 10
0.884246
 20
4.87956
 30
1.5
 10
3.10066
 20
2.66314
 30
1.5
 10
3.10066
 20
-0.0710631
 30
1.5
  0
SPLINE
  5
D49
330
A02
100
AcDbEntity
  8
Body
100
AcDbSpline
210
0
220
0
230
1
 70
8
 71
3
 72
8
 73
4
 74
0
 40
0
 40
0
 40
0
 40
0
 40
1
 40
1
 40
1
 40
1
 10
-1.84969
 20
4.87956
 30
0
 10
0.884246
 20
4.87956
 30
0
 10
3.10066
 20
2.66314
 30
0
 10
3.10066
 20
-0.0710631
 30
0
  0
LINE
  5
D4A
330
A02
100
AcDbEntity
  8
Body
100
AcDbLine
 10
-12.4904
 20
14.0894
 30
1.5
 11
-12.4904
 21
14.0894
 31
0
  0
LINE
  5
D4B
330
A02
100
AcDbEntity
  8
Body
100
AcDbLine
 10
-12.791
 20
14.0617
 30
1.5
 11
-12.791
 21
14.0617
 31
0
  0
SPLINE
  5
D4C
330
A02
100
AcDbEntity
  8
Body
100
AcDbSpline
210
0
220
0
230
1
 70
8
 71
3
 72
8
 73
4
 74
0
 40
0
 40
0
 40
0
 40
0
 40
1
 40
1
 40
1
 40
1
 10
-12.4904
 20
14.0894
 30
1.5
 10
-12.5796
 20
14.1506
 30
1.5
 10
-12.7148
 20
14.1381
 30
1.5
 10
-12.791
 20
14.0617
 30
1.5
  0
SPLINE
  5
D4D
330
A02
100
AcDbEntity
  8
Body
100
AcDbSpline
210
0
220
0
230
1
 70
8
 71
3
 72
8
 73
4
 74
0
 40
0
 40
0
 40
0
 40
0
 40
1
 40
1
 40
1
 40
1
 10
-12.4904
 20
14.0894
 30
0
 10
-12.5796
 20
14.1506
 30
0
 10
-12.7148
 20
14.1381
 30
0
 10
-12.791
 20
14.0617
 30
0
  0
LINE
  5
D4E
330
A02
100
AcDbEntity
  8
Body
100
AcDbLine
 10
-6.80031
 20
-0.0710631
 30
1.5
 11
-6.80031
 21
-0.0710631
 31
0
  0
LINE
  5
D4F
330
A02
100
AcDbEntity
  8
Body
100
AcDbLine
 10
-1.84969
 20
4.87956
 30
1.5
 11
-1.84969
 21
4.87956
 31
0
  0
SPLINE
  5
D50
330
A02
100
AcDbEntity
  8
Body
100
AcDbSpline
210
0
220
0
230
1
 70
8
 71
3
 72
8
 73
4
 74
0
 40
0
 40
0
 40
0
 40
0
 40
1
 40
1
 40
1
 40
1
 10
-6.80031
 20
-0.0710631
 30
1.5
 10
-6.80031
 20
2.66314
 30
1.5
 10
-4.58363
 20
4.87956
 30
1.5
 10
-1.84969
 20
4.87956
 30
1.5
  0
SPLINE
  5
D51
330
A02
100
AcDbEntity
  8
Body
100
AcDbSpline
210
0
220
0
230
1
 70
8
 71
3
 72
8
 73
4
 74
0
 40
0
 40
0
 40
0
 40
0
 40
1
 40
1
 40
1
 40
1
 10
-6.80031
 20
-0.0710631
 30
0
 10
-6.80031
 20
2.66314
 30
0
 10
-4.58363
 20
4.87956
 30
0
 10
-1.84969
 20
4.87956
 30
0
  0
LINE
  5
D52
330
A02
100
AcDbEntity
  8
Body
100
AcDbLine
 10
-12.791
 20
14.0617
 30
1.5
 11
-12.791
 21
14.0617
 31
0
  0
LINE
  5
D53
330
A02
100
AcDbEntity
  8
Body
100
AcDbLine
 10
-15.9565
 20
10.8964
 30
1.5
 11
-15.9565
 21
10.8964
 31
0
  0
SPLINE
  5
D54
330
A02
100
AcDbEntity
  8
Body
100
AcDbSpline
210
0
220
0
230
1
 70
8
 71
1
 72
4
 73
2
 74
0
 40
0
 40
0
 40
16.9189
 40
16.9189
 10
-12.791
 20
14.0617
 30
1.5
 10
-15.9565
 20
10.8964
 30
1.5
  0
SPLINE
  5
D55
330
A02
100
AcDbEntity
  8
Body
100
AcDbSpline
210
0
220
0
230
1
 70
8
 71
1
 72
4
 73
2
 74
0
 40
0
 40
0
 40
16.9189
 40
16.9189
 10
-12.791
 20
14.0617
 30
0
 10
-15.9565
 20
10.8964
 30
0
  0
LINE
  5
D56
330
A02
100
AcDbEntity
  8
Body
100
AcDbLine
 10
-4.51564
 20
-4.24116
 30
1.5
 11
-4.51564
 21
-4.24116
 31
0
  0
LINE
  5
D57
330
A02
100
AcDbEntity
  8
Body
100
AcDbLine
 10
-6.80031
 20
-0.0710631
 30
1.5
 11
-6.80031
 21
-0.0710631
 31
0
  0
SPLINE
  5
D58
330
A02
100
AcDbEntity
  8
Body
100
AcDbSpline
210
0
220
0
230
1
 70
8
 71
3
 72
8
 73
4
 74
0
 40
0
 40
0
 40
0
 40
0
 40
1
 40
1
 40
1
 40
1
 10
-4.51564
 20
-4.24116
 30
1.5
 10
-5.88909
 20
-3.36169
 30
1.5
 10
-6.80031
 20
-1.82313
 30
1.5
 10
-6.80031
 20
-0.0710631
 30
1.5
  0
SPLINE
  5
D59
330
A02
100
AcDbEntity
  8
Body
100
AcDbSpline
210
0
220
0
230
1
 70
8
 71
3
 72
8
 73
4
 74
0
 40
0
 40
0
 40
0
 40
0
 40
1
 40
1
 40
1
 40
1
 10
-4.51564
 20
-4.24116
 30
0
 10
-5.88909
 20
-3.36169
 30
0
 10
-6.80031
 20
-1.82313
 30
0
 10
-6.80031
 20
-0.0710631
 30
0
  0
LINE
  5
D5A
330
A02
100
AcDbEntity
  8
Body
100
AcDbLine
 10
-15.9565
 20
10.8964
 30
1.5
 11
-15.9565
 21
10.8964
 31
0
  0
LINE
  5
D5B
330
A02
100
AcDbEntity
  8
Body
100
AcDbLine
 10
-15.9843
 20
10.5959
 30
1.5
 11
-15.9843
 21
10.5959
 31
0
  0
SPLINE
  5
D5C
330
A02
100
AcDbEntity
  8
Body
100
AcDbSpline
210
0
220
0
230
1
 70
8
 71
3
 72
8
 73
4
 74
0
 40
0
 40
0
 40
0
 40
0
 40
1
 40
1
 40
1
 40
1
 10
-15.9565
 20
10.8964
 30
1.5
 10
-16.0327
 20
10.82
 30
1.5
 10
-16.0454
 20
10.6848
 30
1.5
 10
-15.9843
 20
10.5959
 30
1.5
  0
SPLINE
  5
D5D
330
A02
100
AcDbEntity
  8
Body
100
AcDbSpline
210
0
220
0
230
1
 70
8
 71
3
 72
8
 73
4
 74
0
 40
0
 40
0
 40
0
 40
0
 40
1
 40
1
 40
1
 40
1
 10
-15.9565
 20
10.8964
 30
0
 10
-16.0327
 20
10.82
 30
0
 10
-16.0454
 20
10.6848
 30
0
 10
-15.9843
 20
10.5959
 30
0
  0
LINE
  5
D5E
330
A02
100
AcDbEntity
  8
Body
100
AcDbLine
 10
-4.27486
 20
-4.42558
 30
1.5
 11
-4.27486
 21
-4.42558
 31
0
  0
LINE
  5
D5F
330
A02
100
AcDbEntity
  8
Body
100
AcDbLine
 10
-4.51564
 20
-4.24116
 30
1.5
 11
-4.51564
 21
-4.24116
 31
0
  0
SPLINE
  5
D60
330
A02
100
AcDbEntity
  8
Body
100
AcDbSpline
210
0
220
0
230
1
 70
8
 71
3
 72
8
 73
4
 74
0
 40
0
 40
0
 40
0
 40
0
 40
1
 40
1
 40
1
 40
1
 10
-4.27486
 20
-4.42558
 30
1.5
 10
-4.34524
 20
-4.38271
 30
1.5
 10
-4.44076
 20
-4.30889
 30
1.5
 10
-4.51564
 20
-4.24116
 30
1.5
  0
SPLINE
  5
D61
330
A02
100
AcDbEntity
  8
Body
100
AcDbSpline
210
0
220
0
230
1
 70
8
 71
3
 72
8
 73
4
 74
0
 40
0
 40
0
 40
0
 40
0
 40
1
 40
1
 40
1
 40
1
 10
-4.27486
 20
-4.42558
 30
0
 10
-4.34524
 20
-4.38271
 30
0
 10
-4.44076
 20
-4.30889
 30
0
 10
-4.51564
 20
-4.24116
 30
0
  0
LINE
  5
D62
330
A02
100
AcDbEntity
  8
Body
100
AcDbLine
 10
-15.9843
 20
10.5959
 30
1.5
 11
-15.9843
 21
10.5959
 31
0
  0
LINE
  5
D63
330
A02
100
AcDbEntity
  8
Body
100
AcDbLine
 10
-13.4498
 20
6.9023
 30
1.5
 11
-13.4498
 21
6.9023
 31
0
  0
SPLINE
  5
D64
330
A02
100
AcDbEntity
  8
Body
100
AcDbSpline
210
0
220
0
230
1
 70
8
 71
1
 72
4
 73
2
 74
0
 40
0
 40
0
 40
16.9304
 40
16.9304
 10
-15.9843
 20
10.5959
 30
1.5
 10
-13.4498
 20
6.9023
 30
1.5
  0
SPLINE
  5
D65
330
A02
100
AcDbEntity
  8
Body
100
AcDbSpline
210
0
220
0
230
1
 70
8
 71
1
 72
4
 73
2
 74
0
 40
0
 40
0
 40
16.9304
 40
16.9304
 10
-15.9843
 20
10.5959
 30
0
 10
-13.4498
 20
6.9023
 30
0
  0
LINE
  5
D66
330
A02
100
AcDbEntity
  8
Body
100
AcDbLine
 10
-3.89413
 20
-4.65867
 30
1.5
 11
-3.89413
 21
-4.65867
 31
0
  0
LINE
  5
D67
330
A02
100
AcDbEntity
  8
Body
100
AcDbLine
 10
-4.27486
 20
-4.42558
 30
1.5
 11
-4.27486
 21
-4.42558
 31
0
  0
SPLINE
  5
D68
330
A02
100
AcDbEntity
  8
Body
100
AcDbSpline
210
0
220
0
230
1
 70
8
 71
1
 72
4
 73
2
 74
0
 40
0
 40
0
 40
1.68727
 40
1.68727
 10
-3.89413
 20
-4.65867
 30
1.5
 10
-4.27486
 20
-4.42558
 30
1.5
  0
SPLINE
  5
D69
330
A02
100
AcDbEntity
  8
Body
100
AcDbSpline
210
0
220
0
230
1
 70
8
 71
1
 72
4
 73
2
 74
0
 40
0
 40
0
 40
1.68727
 40
1.68727
 10
-3.89413
 20
-4.65867
 30
0
 10
-4.27486
 20
-4.42558
 30
0
  0
LINE
  5
D6A
330
A02
100
AcDbEntity
  8
Body
100
AcDbLine
 10
-13.4498
 20
6.9023
 30
1.5
 11
-13.4498
 21
6.9023
 31
0
  0
LINE
  5
D6B
330
A02
100
AcDbEntity
  8
Body
100
AcDbLine
 10
-13.4289
 20
6.56601
 30
1.5
 11
-13.4289
 21
6.56601
 31
0
  0
SPLINE
  5
D6C
330
A02
100
AcDbEntity
  8
Body
100
AcDbSpline
210
0
220
0
230
1
 70
8
 71
3
 72
8
 73
4
 74
0
 40
0
 40
0
 40
0
 40
0
 40
1
 40
1
 40
1
 40
1
 10
-13.4498
 20
6.9023
 30
1.5
 10
-13.389
 20
6.81287
 30
1.5
 10
-13.3794
 20
6.66205
 30
1.5
 10
-13.4289
 20
6.56601
 30
1.5
  0
SPLINE
  5
D6D
330
A02
100
AcDbEntity
  8
Body
100
AcDbSpline
210
0
220
0
230
1
 70
8
 71
3
 72
8
 73
4
 74
0
 40
0
 40
0
 40
0
 40
0
 40
1
 40
1
 40
1
 40
1
 10
-13.4498
 20
6.9023
 30
0
 10
-13.389
 20
6.81287
 30
0
 10
-13.3794
 20
6.66205
 30
0
 10
-13.4289
 20
6.56601
 30
0
  0
LINE
  5
D6E
330
A02
100
AcDbEntity
  8
Body
100
AcDbLine
 10
-3.80205
 20
-4.94204
 30
1.5
 11
-3.80205
 21
-4.94204
 31
0
  0
LINE
  5
D6F
330
A02
100
AcDbEntity
  8
Body
100
AcDbLine
 10
-3.89413
 20
-4.65867
 30
1.5
 11
-3.89413
 21
-4.65867
 31
0
  0
SPLINE
  5
D70
330
A02
100
AcDbEntity
  8
Body
100
AcDbSpline
210
0
220
0
230
1
 70
8
 71
3
 72
8
 73
4
 74
0
 40
0
 40
0
 40
0
 40
0
 40
1
 40
1
 40
1
 40
1
 10
-3.80205
 20
-4.94204
 30
1.5
 10
-3.76051
 20
-4.84229
 30
1.5
 10
-3.80205
 20
-4.71503
 30
1.5
 10
-3.89413
 20
-4.65867
 30
1.5
  0
SPLINE
  5
D71
330
A02
100
AcDbEntity
  8
Body
100
AcDbSpline
210
0
220
0
230
1
 70
8
 71
3
 72
8
 73
4
 74
0
 40
0
 40
0
 40
0
 40
0
 40
1
 40
1
 40
1
 40
1
 10
-3.80205
 20
-4.94204
 30
0
 10
-3.76051
 20
-4.84229
 30
0
 10
-3.80205
 20
-4.71503
 30
0
 10
-3.89413
 20
-4.65867
 30
0
  0
LINE
  5
D72
330
A02
100
AcDbEntity
  8
Body
100
AcDbLine
 10
-13.4289
 20
6.56601
 30
1.5
 11
-13.4289
 21
6.56601
 31
0
  0
LINE
  5
D73
330
A02
100
AcDbEntity
  8
Body
100
AcDbLine
 10
-14.7624
 20
3.45557
 30
1.5
 11
-14.7624
 21
3.45557
 31
0
  0
SPLINE
  5
D74
330
A02
100
AcDbEntity
  8
Body
100
AcDbSpline
210
0
220
0
230
1
 70
8
 71
1
 72
4
 73
2
 74
0
 40
0
 40
0
 40
12.7908
 40
12.7908
 10
-13.4289
 20
6.56601
 30
1.5
 10
-14.7624
 20
3.45557
 30
1.5
  0
SPLINE
  5
D75
330
A02
100
AcDbEntity
  8
Body
100
AcDbSpline
210
0
220
0
230
1
 70
8
 71
1
 72
4
 73
2
 74
0
 40
0
 40
0
 40
12.7908
 40
12.7908
 10
-13.4289
 20
6.56601
 30
0
 10
-14.7624
 20
3.45557
 30
0
  0
LINE
  5
D76
330
A02
100
AcDbEntity
  8
Body
100
AcDbLine
 10
-6.93895
 20
-12.5216
 30
1.5
 11
-6.93895
 21
-12.5216
 31
0
  0
LINE
  5
D77
330
A02
100
AcDbEntity
  8
Body
100
AcDbLine
 10
-3.80205
 20
-4.94204
 30
1.5
 11
-3.80205
 21
-4.94204
 31
0
  0
SPLINE
  5
D78
330
A02
100
AcDbEntity
  8
Body
100
AcDbSpline
210
0
220
0
230
1
 70
8
 71
1
 72
4
 73
2
 74
0
 40
0
 40
0
 40
31.0035
 40
31.0035
 10
-6.93895
 20
-12.5216
 30
1.5
 10
-3.80205
 20
-4.94204
 30
1.5
  0
SPLINE
  5
D79
330
A02
100
AcDbEntity
  8
Body
100
AcDbSpline
210
0
220
0
230
1
 70
8
 71
1
 72
4
 73
2
 74
0
 40
0
 40
0
 40
31.0035
 40
31.0035
 10
-6.93895
 20
-12.5216
 30
0
 10
-3.80205
 20
-4.94204
 30
0
  0
LINE
  5
D7A
330
A02
100
AcDbEntity
  8
Body
100
AcDbLine
 10
-14.7624
 20
3.45557
 30
1.5
 11
-14.7624
 21
3.45557
 31
0
  0
LINE
  5
D7B
330
A02
100
AcDbEntity
  8
Body
100
AcDbLine
 10
-15.0199
 20
3.23411
 30
1.5
 11
-15.0199
 21
3.23411
 31
0
  0
SPLINE
  5
D7C
330
A02
100
AcDbEntity
  8
Body
100
AcDbSpline
210
0
220
0
230
1
 70
8
 71
3
 72
8
 73
4
 74
0
 40
0
 40
0
 40
0
 40
0
 40
1
 40
1
 40
1
 40
1
 10
-14.7624
 20
3.45557
 30
1.5
 10
-14.7979
 20
3.35344
 30
1.5
 10
-14.9135
 20
3.25396
 30
1.5
 10
-15.0199
 20
3.23411
 30
1.5
  0
SPLINE
  5
D7D
330
A02
100
AcDbEntity
  8
Body
100
AcDbSpline
210
0
220
0
230
1
 70
8
 71
3
 72
8
 73
4
 74
0
 40
0
 40
0
 40
0
 40
0
 40
1
 40
1
 40
1
 40
1
 10
-14.7624
 20
3.45557
 30
0
 10
-14.7979
 20
3.35344
 30
0
 10
-14.9135
 20
3.25396
 30
0
 10
-15.0199
 20
3.23411
 30
0
  0
LINE
  5
D7E
330
A02
100
AcDbEntity
  8
Body
100
AcDbLine
 10
-7.18899
 20
-12.6136
 30
1.5
 11
-7.18899
 21
-12.6136
 31
0
  0
LINE
  5
D7F
330
A02
100
AcDbEntity
  8
Body
100
AcDbLine
 10
-6.93895
 20
-12.5216
 30
1.5
 11
-6.93895
 21
-12.5216
 31
0
  0
SPLINE
  5
D80
330
A02
100
AcDbEntity
  8
Body
100
AcDbSpline
210
0
220
0
230
1
 70
8
 71
3
 72
8
 73
4
 74
0
 40
0
 40
0
 40
0
 40
0
 40
1
 40
1
 40
1
 40
1
 10
-7.18899
 20
-12.6136
 30
1.5
 10
-7.09268
 20
-12.6628
 30
1.5
 10
-6.98023
 20
-12.6213
 30
1.5
 10
-6.93895
 20
-12.5216
 30
1.5
  0
SPLINE
  5
D81
330
A02
100
AcDbEntity
  8
Body
100
AcDbSpline
210
0
220
0
230
1
 70
8
 71
3
 72
8
 73
4
 74
0
 40
0
 40
0
 40
0
 40
0
 40
1
 40
1
 40
1
 40
1
 10
-7.18899
 20
-12.6136
 30
0
 10
-7.09268
 20
-12.6628
 30
0
 10
-6.98023
 20
-12.6213
 30
0
 10
-6.93895
 20
-12.5216
 30
0
  0
LINE
  5
D82
330
A02
100
AcDbEntity
  8
Body
100
AcDbLine
 10
-15.0199
 20
3.23411
 30
1.5
 11
-15.0199
 21
3.23411
 31
0
  0
LINE
  5
D83
330
A02
100
AcDbEntity
  8
Body
100
AcDbLine
 10
-19.3691
 20
2.42528
 30
1.5
 11
-19.3691
 21
2.42528
 31
0
  0
SPLINE
  5
D84
330
A02
100
AcDbEntity
  8
Body
100
AcDbSpline
210
0
220
0
230
1
 70
8
 71
1
 72
4
 73
2
 74
0
 40
0
 40
0
 40
16.7198
 40
16.7198
 10
-15.0199
 20
3.23411
 30
1.5
 10
-19.3691
 20
2.42528
 30
1.5
  0
SPLINE
  5
D85
330
A02
100
AcDbEntity
  8
Body
100
AcDbSpline
210
0
220
0
230
1
 70
8
 71
1
 72
4
 73
2
 74
0
 40
0
 40
0
 40
16.7198
 40
16.7198
 10
-15.0199
 20
3.23411
 30
0
 10
-19.3691
 20
2.42528
 30
0
  0
LINE
  5
D86
330
A02
100
AcDbEntity
  8
Body
100
AcDbLine
 10
-8.71034
 20
-11.8014
 30
1.5
 11
-8.71034
 21
-11.8014
 31
0
  0
LINE
  5
D87
330
A02
100
AcDbEntity
  8
Body
100
AcDbLine
 10
-7.18899
 20
-12.6136
 30
1.5
 11
-7.18899
 21
-12.6136
 31
0
  0
SPLINE
  5
D88
330
A02
100
AcDbEntity
  8
Body
100
AcDbSpline
210
0
220
0
230
1
 70
8
 71
1
 72
4
 73
2
 74
0
 40
0
 40
0
 40
6.51824
 40
6.51824
 10
-8.71034
 20
-11.8014
 30
1.5
 10
-7.18899
 20
-12.6136
 30
1.5
  0
SPLINE
  5
D89
330
A02
100
AcDbEntity
  8
Body
100
AcDbSpline
210
0
220
0
230
1
 70
8
 71
1
 72
4
 73
2
 74
0
 40
0
 40
0
 40
6.51824
 40
6.51824
 10
-8.71034
 20
-11.8014
 30
0
 10
-7.18899
 20
-12.6136
 30
0
  0
LINE
  5
D8A
330
A02
100
AcDbEntity
  8
Body
100
AcDbLine
 10
-19.3691
 20
2.42528
 30
1.5
 11
-19.3691
 21
2.42528
 31
0
  0
LINE
  5
D8B
330
A02
100
AcDbEntity
  8
Body
100
AcDbLine
 10
-19.562
 20
2.19298
 30
1.5
 11
-19.562
 21
2.19298
 31
0
  0
SPLINE
  5
D8C
330
A02
100
AcDbEntity
  8
Body
100
AcDbSpline
210
0
220
0
230
1
 70
8
 71
3
 72
8
 73
4
 74
0
 40
0
 40
0
 40
0
 40
0
 40
1
 40
1
 40
1
 40
1
 10
-19.3691
 20
2.42528
 30
1.5
 10
-19.4754
 20
2.40517
 30
1.5
 10
-19.562
 20
2.30093
 30
1.5
 10
-19.562
 20
2.19298
 30
1.5
  0
SPLINE
  5
D8D
330
A02
100
AcDbEntity
  8
Body
100
AcDbSpline
210
0
220
0
230
1
 70
8
 71
3
 72
8
 73
4
 74
0
 40
0
 40
0
 40
0
 40
0
 40
1
 40
1
 40
1
 40
1
 10
-19.3691
 20
2.42528
 30
0
 10
-19.4754
 20
2.40517
 30
0
 10
-19.562
 20
2.30093
 30
0
 10
-19.562
 20
2.19298
 30
0
  0
LINE
  5
D8E
330
A02
100
AcDbEntity
  8
Body
100
AcDbLine
 10
-9.04107
 20
-11.8127
 30
1.5
 11
-9.04107
 21
-11.8127
 31
0
  0
LINE
  5
D8F
330
A02
100
AcDbEntity
  8
Body
100
AcDbLine
 10
-8.71034
 20
-11.8014
 30
1.5
 11
-8.71034
 21
-11.8014
 31
0
  0
SPLINE
  5
D90
330
A02
100
AcDbEntity
  8
Body
100
AcDbSpline
210
0
220
0
230
1
 70
8
 71
3
 72
8
 73
4
 74
0
 40
0
 40
0
 40
0
 40
0
 40
1
 40
1
 40
1
 40
1
 10
-9.04107
 20
-11.8127
 30
1.5
 10
-8.95217
 20
-11.7519
 30
1.5
 10
-8.80321
 20
-11.7471
 30
1.5
 10
-8.71034
 20
-11.8014
 30
1.5
  0
SPLINE
  5
D91
330
A02
100
AcDbEntity
  8
Body
100
AcDbSpline
210
0
220
0
230
1
 70
8
 71
3
 72
8
 73
4
 74
0
 40
0
 40
0
 40
0
 40
0
 40
1
 40
1
 40
1
 40
1
 10
-9.04107
 20
-11.8127
 30
0
 10
-8.95217
 20
-11.7519
 30
0
 10
-8.80321
 20
-11.7471
 30
0
 10
-8.71034
 20
-11.8014
 30
0
  0
LINE
  5
D92
330
A02
100
AcDbEntity
  8
Body
100
AcDbLine
 10
-19.562
 20
2.19298
 30
1.5
 11
-19.562
 21
2.19298
 31
0
  0
LINE
  5
D93
330
A02
100
AcDbEntity
  8
Body
100
AcDbLine
 10
-19.5617
 20
-2.28351
 30
1.5
 11
-19.5617
 21
-2.28351
 31
0
  0
SPLINE
  5
D94
330
A02
100
AcDbEntity
  8
Body
100
AcDbSpline
210
0
220
0
230
1
 70
8
 71
1
 72
4
 73
2
 74
0
 40
0
 40
0
 40
16.919
 40
16.919
 10
-19.562
 20
2.19298
 30
1.5
 10
-19.5617
 20
-2.28351
 30
1.5
  0
SPLINE
  5
D95
330
A02
100
AcDbEntity
  8
Body
100
AcDbSpline
210
0
220
0
230
1
 70
8
 71
1
 72
4
 73
2
 74
0
 40
0
 40
0
 40
16.919
 40
16.919
 10
-19.562
 20
2.19298
 30
0
 10
-19.5617
 20
-2.28351
 30
0
  0
LINE
  5
D96
330
A02
100
AcDbEntity
  8
Body
100
AcDbLine
 10
-12.4907
 20
-14.1805
 30
1.5
 11
-12.4907
 21
-14.1805
 31
0
  0
LINE
  5
D97
330
A02
100
AcDbEntity
  8
Body
100
AcDbLine
 10
-9.04107
 20
-11.8127
 30
1.5
 11
-9.04107
 21
-11.8127
 31
0
  0
SPLINE
  5
D98
330
A02
100
AcDbEntity
  8
Body
100
AcDbSpline
210
0
220
0
230
1
 70
8
 71
1
 72
4
 73
2
 74
0
 40
0
 40
0
 40
15.8137
 40
15.8137
 10
-12.4907
 20
-14.1805
 30
1.5
 10
-9.04107
 20
-11.8127
 30
1.5
  0
SPLINE
  5
D99
330
A02
100
AcDbEntity
  8
Body
100
AcDbSpline
210
0
220
0
230
1
 70
8
 71
1
 72
4
 73
2
 74
0
 40
0
 40
0
 40
15.8137
 40
15.8137
 10
-12.4907
 20
-14.1805
 30
0
 10
-9.04107
 20
-11.8127
 30
0
  0
LINE
  5
D9A
330
A02
100
AcDbEntity
  8
Body
100
AcDbLine
 10
-19.5617
 20
-2.28351
 30
1.5
 11
-19.5617
 21
-2.28351
 31
0
  0
LINE
  5
D9B
330
A02
100
AcDbEntity
  8
Body
100
AcDbLine
 10
-19.3688
 20
-2.51581
 30
1.5
 11
-19.3688
 21
-2.51581
 31
0
  0
SPLINE
  5
D9C
330
A02
100
AcDbEntity
  8
Body
100
AcDbSpline
210
0
220
0
230
1
 70
8
 71
3
 72
8
 73
4
 74
0
 40
0
 40
0
 40
0
 40
0
 40
1
 40
1
 40
1
 40
1
 10
-19.5617
 20
-2.28351
 30
1.5
 10
-19.5617
 20
-2.39146
 30
1.5
 10
-19.4749
 20
-2.4965
 30
1.5
 10
-19.3688
 20
-2.51581
 30
1.5
  0
SPLINE
  5
D9D
330
A02
100
AcDbEntity
  8
Body
100
AcDbSpline
210
0
220
0
230
1
 70
8
 71
3
 72
8
 73
4
 74
0
 40
0
 40
0
 40
0
 40
0
 40
1
 40
1
 40
1
 40
1
 10
-19.5617
 20
-2.28351
 30
0
 10
-19.5617
 20
-2.39146
 30
0
 10
-19.4749
 20
-2.4965
 30
0
 10
-19.3688
 20
-2.51581
 30
0
  0
LINE
  5
D9E
330
A02
100
AcDbEntity
  8
Body
100
AcDbLine
 10
-12.7913
 20
-14.1527
 30
1.5
 11
-12.7913
 21
-14.1527
 31
0
  0
LINE
  5
D9F
330
A02
100
AcDbEntity
  8
Body
100
AcDbLine
 10
-12.4907
 20
-14.1805
 30
1.5
 11
-12.4907
 21
-14.1805
 31
0
  0
SPLINE
  5
DA0
330
A02
100
AcDbEntity
  8
Body
100
AcDbSpline
210
0
220
0
230
1
 70
8
 71
3
 72
8
 73
4
 74
0
 40
0
 40
0
 40
0
 40
0
 40
1
 40
1
 40
1
 40
1
 10
-12.7913
 20
-14.1527
 30
1.5
 10
-12.7151
 20
-14.2287
 30
1.5
 10
-12.5799
 20
-14.2411
 30
1.5
 10
-12.4907
 20
-14.1805
 30
1.5
  0
SPLINE
  5
DA1
330
A02
100
AcDbEntity
  8
Body
100
AcDbSpline
210
0
220
0
230
1
 70
8
 71
3
 72
8
 73
4
 74
0
 40
0
 40
0
 40
0
 40
0
 40
1
 40
1
 40
1
 40
1
 10
-12.7913
 20
-14.1527
 30
0
 10
-12.7151
 20
-14.2287
 30
0
 10
-12.5799
 20
-14.2411
 30
0
 10
-12.4907
 20
-14.1805
 30
0
  0
LINE
  5
DA2
330
A02
100
AcDbEntity
  8
Body
100
AcDbLine
 10
-19.3688
 20
-2.51581
 30
1.5
 11
-19.3688
 21
-2.51581
 31
0
  0
LINE
  5
DA3
330
A02
100
AcDbEntity
  8
Body
100
AcDbLine
 10
-15.1262
 20
-3.30533
 30
1.5
 11
-15.1262
 21
-3.30533
 31
0
  0
SPLINE
  5
DA4
330
A02
100
AcDbEntity
  8
Body
100
AcDbSpline
210
0
220
0
230
1
 70
8
 71
1
 72
4
 73
2
 74
0
 40
0
 40
0
 40
16.3103
 40
16.3103
 10
-19.3688
 20
-2.51581
 30
1.5
 10
-15.1262
 20
-3.30533
 30
1.5
  0
SPLINE
  5
DA5
330
A02
100
AcDbEntity
  8
Body
100
AcDbSpline
210
0
220
0
230
1
 70
8
 71
1
 72
4
 73
2
 74
0
 40
0
 40
0
 40
16.3103
 40
16.3103
 10
-19.3688
 20
-2.51581
 30
0
 10
-15.1262
 20
-3.30533
 30
0
  0
LINE
  5
DA6
330
A02
100
AcDbEntity
  8
Body
100
AcDbLine
 10
-15.957
 20
-10.9875
 30
1.5
 11
-15.957
 21
-10.9875
 31
0
  0
LINE
  5
DA7
330
A02
100
AcDbEntity
  8
Body
100
AcDbLine
 10
-12.7913
 20
-14.1527
 30
1.5
 11
-12.7913
 21
-14.1527
 31
0
  0
SPLINE
  5
DA8
330
A02
100
AcDbEntity
  8
Body
100
AcDbSpline
210
0
220
0
230
1
 70
8
 71
1
 72
4
 73
2
 74
0
 40
0
 40
0
 40
16.9197
 40
16.9197
 10
-15.957
 20
-10.9875
 30
1.5
 10
-12.7913
 20
-14.1527
 30
1.5
  0
SPLINE
  5
DA9
330
A02
100
AcDbEntity
  8
Body
100
AcDbSpline
210
0
220
0
230
1
 70
8
 71
1
 72
4
 73
2
 74
0
 40
0
 40
0
 40
16.9197
 40
16.9197
 10
-15.957
 20
-10.9875
 30
0
 10
-12.7913
 20
-14.1527
 30
0
  0
LINE
  5
DAA
330
A02
100
AcDbEntity
  8
Body
100
AcDbLine
 10
-15.1262
 20
-3.30533
 30
1.5
 11
-15.1262
 21
-3.30533
 31
0
  0
LINE
  5
DAB
330
A02
100
AcDbEntity
  8
Body
100
AcDbLine
 10
-14.8743
 20
-3.52837
 30
1.5
 11
-14.8743
 21
-3.52837
 31
0
  0
SPLINE
  5
DAC
330
A02
100
AcDbEntity
  8
Body
100
AcDbSpline
210
0
220
0
230
1
 70
8
 71
3
 72
8
 73
4
 74
0
 40
0
 40
0
 40
0
 40
0
 40
1
 40
1
 40
1
 40
1
 10
-15.1262
 20
-3.30533
 30
1.5
 10
-15.0201
 20
-3.32464
 30
1.5
 10
-14.9066
 20
-3.42545
 30
1.5
 10
-14.8743
 20
-3.52837
 30
1.5
  0
SPLINE
  5
DAD
330
A02
100
AcDbEntity
  8
Body
100
AcDbSpline
210
0
220
0
230
1
 70
8
 71
3
 72
8
 73
4
 74
0
 40
0
 40
0
 40
0
 40
0
 40
1
 40
1
 40
1
 40
1
 10
-15.1262
 20
-3.30533
 30
0
 10
-15.0201
 20
-3.32464
 30
0
 10
-14.9066
 20
-3.42545
 30
0
 10
-14.8743
 20
-3.52837
 30
0
  0
LINE
  5
DAE
330
A02
100
AcDbEntity
  8
Body
100
AcDbLine
 10
-15.9848
 20
-10.6867
 30
1.5
 11
-15.9848
 21
-10.6867
 31
0
  0
LINE
  5
DAF
330
A02
100
AcDbEntity
  8
Body
100
AcDbLine
 10
-15.957
 20
-10.9875
 30
1.5
 11
-15.957
 21
-10.9875
 31
0
  0
SPLINE
  5
DB0
330
A02
100
AcDbEntity
  8
Body
100
AcDbSpline
210
0
220
0
230
1
 70
8
 71
3
 72
8
 73
4
 74
0
 40
0
 40
0
 40
0
 40
0
 40
1
 40
1
 40
1
 40
1
 10
-15.9848
 20
-10.6867
 30
1.5
 10
-16.0456
 20
-10.7756
 30
1.5
 10
-16.0332
 20
-10.911
 30
1.5
 10
-15.957
 20
-10.9875
 30
1.5
  0
SPLINE
  5
DB1
330
A02
100
AcDbEntity
  8
Body
100
AcDbSpline
210
0
220
0
230
1
 70
8
 71
3
 72
8
 73
4
 74
0
 40
0
 40
0
 40
0
 40
0
 40
1
 40
1
 40
1
 40
1
 10
-15.9848
 20
-10.6867
 30
0
 10
-16.0456
 20
-10.7756
 30
0
 10
-16.0332
 20
-10.911
 30
0
 10
-15.957
 20
-10.9875
 30
0
  0
LINE
  5
DB2
330
A02
100
AcDbEntity
  8
Body
100
AcDbLine
 10
-14.8743
 20
-3.52837
 30
1.5
 11
-14.8743
 21
-3.52837
 31
0
  0
LINE
  5
DB3
330
A02
100
AcDbEntity
  8
Body
100
AcDbLine
 10
-13.5498
 20
-6.83699
 30
1.5
 11
-13.5498
 21
-6.83699
 31
0
  0
SPLINE
  5
DB4
330
A02
100
AcDbEntity
  8
Body
100
AcDbSpline
210
0
220
0
230
1
 70
8
 71
1
 72
4
 73
2
 74
0
 40
0
 40
0
 40
13.4698
 40
13.4698
 10
-14.8743
 20
-3.52837
 30
1.5
 10
-13.5498
 20
-6.83699
 30
1.5
  0
SPLINE
  5
DB5
330
A02
100
AcDbEntity
  8
Body
100
AcDbSpline
210
0
220
0
230
1
 70
8
 71
1
 72
4
 73
2
 74
0
 40
0
 40
0
 40
13.4698
 40
13.4698
 10
-14.8743
 20
-3.52837
 30
0
 10
-13.5498
 20
-6.83699
 30
0
  0
LINE
  5
DB6
330
A02
100
AcDbEntity
  8
Body
100
AcDbLine
 10
-13.575
 20
-7.17486
 30
1.5
 11
-13.575
 21
-7.17486
 31
0
  0
LINE
  5
DB7
330
A02
100
AcDbEntity
  8
Body
100
AcDbLine
 10
-15.9848
 20
-10.6867
 30
1.5
 11
-15.9848
 21
-10.6867
 31
0
  0
SPLINE
  5
DB8
330
A02
100
AcDbEntity
  8
Body
100
AcDbSpline
210
0
220
0
230
1
 70
8
 71
1
 72
4
 73
2
 74
0
 40
0
 40
0
 40
16.0975
 40
16.0975
 10
-13.575
 20
-7.17486
 30
1.5
 10
-15.9848
 20
-10.6867
 30
1.5
  0
SPLINE
  5
DB9
330
A02
100
AcDbEntity
  8
Body
100
AcDbSpline
210
0
220
0
230
1
 70
8
 71
1
 72
4
 73
2
 74
0
 40
0
 40
0
 40
16.0975
 40
16.0975
 10
-13.575
 20
-7.17486
 30
0
 10
-15.9848
 20
-10.6867
 30
0
  0
LINE
  5
DBA
330
A02
100
AcDbEntity
  8
Body
100
AcDbLine
 10
-13.5498
 20
-6.83699
 30
1.5
 11
-13.5498
 21
-6.83699
 31
0
  0
LINE
  5
DBB
330
A02
100
AcDbEntity
  8
Body
100
AcDbLine
 10
-13.575
 20
-7.17486
 30
1.5
 11
-13.575
 21
-7.17486
 31
0
  0
SPLINE
  5
DBC
330
A02
100
AcDbEntity
  8
Body
100
AcDbSpline
210
0
220
0
230
1
 70
8
 71
3
 72
8
 73
4
 74
0
 40
0
 40
0
 40
0
 40
0
 40
1
 40
1
 40
1
 40
1
 10
-13.5498
 20
-6.83699
 30
1.5
 10
-13.5025
 20
-6.93409
 30
1.5
 10
-13.5136
 20
-7.08596
 30
1.5
 10
-13.575
 20
-7.17486
 30
1.5
  0
SPLINE
  5
DBD
330
A02
100
AcDbEntity
  8
Body
100
AcDbSpline
210
0
220
0
230
1
 70
8
 71
3
 72
8
 73
4
 74
0
 40
0
 40
0
 40
0
 40
0
 40
1
 40
1
 40
1
 40
1
 10
-13.5498
 20
-6.83699
 30
0
 10
-13.5025
 20
-6.93409
 30
0
 10
-13.5136
 20
-7.08596
 30
0
 10
-13.575
 20
-7.17486
 30
0
  0
LINE
  5
DBE
330
A02
100
AcDbEntity
  8
Body
100
AcDbLine
 10
40
 20
17
 30
1.5
 11
40
 21
17
 31
0
  0
LINE
  5
DBF
330
A02
100
AcDbEntity
  8
Body
100
AcDbLine
 10
40
 20
17
 30
1.5
 11
40
 21
17
 31
0
  0
CIRCLE
  5
DC0
330
A02
100
AcDbEntity
  8
Body
100
AcDbCircle
 10
35
 20
17
 40
5
  0
CIRCLE
  5
DC1
330
A02
100
AcDbEntity
  8
Body
100
AcDbCircle
 10
35
 20
17
 40
5
  0
LINE
  5
DC2
330
A02
100
AcDbEntity
  8
Body
100
AcDbLine
 10
28
 20
34
 30
1.5
 11
28
 21
34
 31
0
  0
LINE
  5
DC3
330
A02
100
AcDbEntity
  8
Body
100
AcDbLine
 10
28
 20
48
 30
1.5
 11
28
 21
48
 31
0
  0
LINE
  5
DC4
330
A02
100
AcDbEntity
  8
Body
100
AcDbLine
 10
28
 20
34
 30
1.5
 11
28
 21
48
 31
1.5
  0
LINE
  5
DC5
330
A02
100
AcDbEntity
  8
Body
100
AcDbLine
 10
28
 20
34
 30
0
 11
28
 21
48
 31
0
  0
LINE
  5
DC6
330
A02
100
AcDbEntity
  8
Body
100
AcDbLine
 10
42
 20
34
 30
1.5
 11
42
 21
34
 31
0
  0
LINE
  5
DC7
330
A02
100
AcDbEntity
  8
Body
100
AcDbLine
 10
28
 20
34
 30
1.5
 11
28
 21
34
 31
0
  0
LINE
  5
DC8
330
A02
100
AcDbEntity
  8
Body
100
AcDbLine
 10
42
 20
34
 30
1.5
 11
28
 21
34
 31
1.5
  0
LINE
  5
DC9
330
A02
100
AcDbEntity
  8
Body
100
AcDbLine
 10
42
 20
34
 30
0
 11
28
 21
34
 31
0
  0
LINE
  5
DCA
330
A02
100
AcDbEntity
  8
Body
100
AcDbLine
 10
28
 20
48
 30
1.5
 11
28
 21
48
 31
0
  0
LINE
  5
DCB
330
A02
100
AcDbEntity
  8
Body
100
AcDbLine
 10
42
 20
48
 30
1.5
 11
42
 21
48
 31
0
  0
LINE
  5
DCC
330
A02
100
AcDbEntity
  8
Body
100
AcDbLine
 10
28
 20
48
 30
1.5
 11
42
 21
48
 31
1.5
  0
LINE
  5
DCD
330
A02
100
AcDbEntity
  8
Body
100
AcDbLine
 10
28
 20
48
 30
0
 11
42
 21
48
 31
0
  0
LINE
  5
DCE
330
A02
100
AcDbEntity
  8
Body
100
AcDbLine
 10
42
 20
48
 30
1.5
 11
42
 21
48
 31
0
  0
LINE
  5
DCF
330
A02
100
AcDbEntity
  8
Body
100
AcDbLine
 10
42
 20
34
 30
1.5
 11
42
 21
34
 31
0
  0
LINE
  5
DD0
330
A02
100
AcDbEntity
  8
Body
100
AcDbLine
 10
42
 20
48
 30
1.5
 11
42
 21
34
 31
1.5
  0
LINE
  5
DD1
330
A02
100
AcDbEntity
  8
Body
100
AcDbLine
 10
42
 20
48
 30
0
 11
42
 21
34
 31
0
  0
LINE
  5
DD2
330
A02
100
AcDbEntity
  8
Body
100
AcDbLine
 10
-10
 20
40
 30
1.5
 11
-10
 21
40
 31
0
  0
LINE
  5
DD3
330
A02
100
AcDbEntity
  8
Body
100
AcDbLine
 10
-5
 20
35
 30
1.5
 11
-5
 21
35
 31
0
  0
LINE
  5
DD4
330
A02
100
AcDbEntity
  8
Body
100
AcDbLine
 10
-10
 20
40
 30
1.5
 11
-5
 21
35
 31
1.5
  0
LINE
  5
DD5
330
A02
100
AcDbEntity
  8
Body
100
AcDbLine
 10
-10
 20
40
 30
0
 11
-5
 21
35
 31
0
  0
LINE
  5
DD6
330
A02
100
AcDbEntity
  8
Body
100
AcDbLine
 10
-5
 20
35
 30
1.5
 11
-5
 21
35
 31
0
  0
LINE
  5
DD7
330
A02
100
AcDbEntity
  8
Body
100
AcDbLine
 10
10
 20
35
 30
1.5
 11
10
 21
35
 31
0
  0
LINE
  5
DD8
330
A02
100
AcDbEntity
  8
Body
100
AcDbLine
 10
-5
 20
35
 30
1.5
 11
10
 21
35
 31
1.5
  0
LINE
  5
DD9
330
A02
100
AcDbEntity
  8
Body
100
AcDbLine
 10
-5
 20
35
 30
0
 11
10
 21
35
 31
0
  0
LINE
  5
DDA
330
A02
100
AcDbEntity
  8
Body
100
AcDbLine
 10
10
 20
35
 30
1.5
 11
10
 21
35
 31
0
  0
LINE
  5
DDB
330
A02
100
AcDbEntity
  8
Body
100
AcDbLine
 10
10
 20
55
 30
1.5
 11
10
 21
55
 31
0
  0
LINE
  5
DDC
330
A02
100
AcDbEntity
  8
Body
100
AcDbLine
 10
10
 20
35
 30
1.5
 11
10
 21
55
 31
1.5
  0
LINE
  5
DDD
330
A02
100
AcDbEntity
  8
Body
100
AcDbLine
 10
10
 20
35
 30
0
 11
10
 21
55
 31
0
  0
LINE
  5
DDE
330
A02
100
AcDbEntity
  8
Body
100
AcDbLine
 10
10
 20
55
 30
1.5
 11
10
 21
55
 31
0
  0
LINE
  5
DDF
330
A02
100
AcDbEntity
  8
Body
100
AcDbLine
 10
5
 20
60
 30
1.5
 11
5
 21
60
 31
0
  0
LINE
  5
DE0
330
A02
100
AcDbEntity
  8
Body
100
AcDbLine
 10
10
 20
55
 30
1.5
 11
5
 21
60
 31
1.5
  0
LINE
  5
DE1
330
A02
100
AcDbEntity
  8
Body
100
AcDbLine
 10
10
 20
55
 30
0
 11
5
 21
60
 31
0
  0
LINE
  5
DE2
330
A02
100
AcDbEntity
  8
Body
100
AcDbLine
 10
5
 20
60
 30
1.5
 11
5
 21
60
 31
0
  0
LINE
  5
DE3
330
A02
100
AcDbEntity
  8
Body
100
AcDbLine
 10
5
 20
40
 30
1.5
 11
5
 21
40
 31
0
  0
LINE
  5
DE4
330
A02
100
AcDbEntity
  8
Body
100
AcDbLine
 10
5
 20
60
 30
1.5
 11
5
 21
40
 31
1.5
  0
LINE
  5
DE5
330
A02
100
AcDbEntity
  8
Body
100
AcDbLine
 10
5
 20
60
 30
0
 11
5
 21
40
 31
0
  0
LINE
  5
DE6
330
A02
100
AcDbEntity
  8
Body
100
AcDbLine
 10
5
 20
40
 30
1.5
 11
5
 21
40
 31
0
  0
LINE
  5
DE7
330
A02
100
AcDbEntity
  8
Body
100
AcDbLine
 10
-10
 20
40
 30
1.5
 11
-10
 21
40
 31
0
  0
LINE
  5
DE8
330
A02
100
AcDbEntity
  8
Body
100
AcDbLine
 10
5
 20
40
 30
1.5
 11
-10
 21
40
 31
1.5
  0
LINE
  5
DE9
330
A02
100
AcDbEntity
  8
Body
100
AcDbLine
 10
5
 20
40
 30
0
 11
-10
 21
40
 31
0
  0
LINE
  5
DEA
330
A02
100
AcDbEntity
  8
Body
100
AcDbLine
 10
28
 20
54
 30
1.5
 11
28
 21
54
 31
0
  0
LINE
  5
DEB
330
A02
100
AcDbEntity
  8
Body
100
AcDbLine
 10
28
 20
68
 30
1.5
 11
28
 21
68
 31
0
  0
LINE
  5
DEC
330
A02
100
AcDbEntity
  8
Body
100
AcDbLine
 10
28
 20
54
 30
1.5
 11
28
 21
68
 31
1.5
  0
LINE
  5
DED
330
A02
100
AcDbEntity
  8
Body
100
AcDbLine
 10
28
 20
54
 30
0
 11
28
 21
68
 31
0
  0
LINE
  5
DEE
330
A02
100
AcDbEntity
  8
Body
100
AcDbLine
 10
42
 20
54
 30
1.5
 11
42
 21
54
 31
0
  0
LINE
  5
DEF
330
A02
100
AcDbEntity
  8
Body
100
AcDbLine
 10
28
 20
54
 30
1.5
 11
28
 21
54
 31
0
  0
LINE
  5
DF0
330
A02
100
AcDbEntity
  8
Body
100
AcDbLine
 10
42
 20
54
 30
1.5
 11
28
 21
54
 31
1.5
  0
LINE
  5
DF1
330
A02
100
AcDbEntity
  8
Body
100
AcDbLine
 10
42
 20
54
 30
0
 11
28
 21
54
 31
0
  0
LINE
  5
DF2
330
A02
100
AcDbEntity
  8
Body
100
AcDbLine
 10
28
 20
68
 30
1.5
 11
28
 21
68
 31
0
  0
LINE
  5
DF3
330
A02
100
AcDbEntity
  8
Body
100
AcDbLine
 10
42
 20
68
 30
1.5
 11
42
 21
68
 31
0
  0
LINE
  5
DF4
330
A02
100
AcDbEntity
  8
Body
100
AcDbLine
 10
28
 20
68
 30
1.5
 11
42
 21
68
 31
1.5
  0
LINE
  5
DF5
330
A02
100
AcDbEntity
  8
Body
100
AcDbLine
 10
28
 20
68
 30
0
 11
42
 21
68
 31
0
  0
LINE
  5
DF6
330
A02
100
AcDbEntity
  8
Body
100
AcDbLine
 10
42
 20
68
 30
1.5
 11
42
 21
68
 31
0
  0
LINE
  5
DF7
330
A02
100
AcDbEntity
  8
Body
100
AcDbLine
 10
42
 20
54
 30
1.5
 11
42
 21
54
 31
0
  0
LINE
  5
DF8
330
A02
100
AcDbEntity
  8
Body
100
AcDbLine
 10
42
 20
68
 30
1.5
 11
42
 21
54
 31
1.5
  0
LINE
  5
DF9
330
A02
100
AcDbEntity
  8
Body
100
AcDbLine
 10
42
 20
68
 30
0
 11
42
 21
54
 31
0
  0
LINE
  5
DFA
330
A02
100
AcDbEntity
  8
Body
100
AcDbLine
 10
40
 20
85
 30
1.5
 11
40
 21
85
 31
0
  0
LINE
  5
DFB
330
A02
100
AcDbEntity
  8
Body
100
AcDbLine
 10
40
 20
85
 30
1.5
 11
40
 21
85
 31
0
  0
CIRCLE
  5
DFC
330
A02
100
AcDbEntity
  8
Body
100
AcDbCircle
 10
35
 20
85
 40
5
  0
CIRCLE
  5
DFD
330
A02
100
AcDbEntity
  8
Body
100
AcDbCircle
 10
35
 20
85
 40
5
  0
ENDSEC
  0
SECTION
  2
OBJECTS
  0
DICTIONARY
  5
F000
330
0
100
AcDbDictionary
  3
ACAD_GROUP
350
F001
  0
DICTIONARY
  5
F001
330
F000
100
AcDbDictionary
  0
ENDSEC
  0
EOF